<svg width="24" height="24" viewBox="0 0 24 24" fill="none" xmlns="http://www.w3.org/2000/svg">
<path d="M17.9025 8.90761L19.7448 5.56215C19.8657 5.34066 19.8227 5.17082 19.6153 5.0514C19.3903 4.94842 19.2173 5.0006 19.0965 5.20425L17.2285 8.57646C15.5848 7.86105 13.8463 7.5027 12.013 7.5027C10.1794 7.5027 8.44074 7.86113 6.79766 8.57646L4.92958 5.20425C4.80818 5.0006 4.63526 4.94888 4.41074 5.0514C4.20292 5.17136 4.15991 5.34066 4.2813 5.56215L6.12362 8.90761C4.25554 9.84541 2.76773 11.1515 1.66073 12.8287C0.553733 14.5068 0 16.3406 0 18.3333H24C24 16.3411 23.4462 14.5072 22.3393 12.8287C21.2322 11.1515 19.753 9.84541 17.9025 8.90761ZM7.25154 13.7736C7.05231 13.9702 6.81436 14.068 6.53777 14.068C6.26063 14.068 6.02752 13.9702 5.83735 13.7736C5.64717 13.578 5.55209 13.3447 5.55209 13.0714C5.55209 12.7992 5.64717 12.5654 5.83735 12.3693C6.02752 12.1736 6.26118 12.0758 6.53777 12.0758C6.81436 12.0758 7.05231 12.1736 7.25154 12.3693C7.4503 12.5658 7.55015 12.7992 7.55015 13.0714C7.5496 13.3442 7.44983 13.578 7.25154 13.7736ZM18.1877 13.7736C17.9972 13.9702 17.7635 14.068 17.4874 14.068C17.2102 14.068 16.9723 13.9702 16.7734 13.7736C16.5743 13.578 16.4749 13.3447 16.4749 13.0714C16.4749 12.7992 16.5743 12.5654 16.7734 12.3693C16.9723 12.1736 17.2102 12.0758 17.4874 12.0758C17.764 12.0758 17.9971 12.1736 18.1877 12.3693C18.378 12.5658 18.473 12.7992 18.473 13.0714C18.473 13.3442 18.378 13.578 18.1877 13.7736Z" fill="#0B7DE6"/>
</svg>
