<svg width="32" height="32" viewBox="0 0 32 32" fill="none" xmlns="http://www.w3.org/2000/svg">
<g clip-path="url(#clip0_145_5811)">
<path d="M22.3469 3.83887C21.6869 3.83887 21.1469 4.37887 21.1469 5.03887V6.23887H11.5469V5.03887C11.5469 4.37887 11.0069 3.83887 10.3469 3.83887C9.68688 3.83887 9.14688 4.37887 9.14688 5.03887V6.23887H7.94688C6.61488 6.23887 5.55887 7.31887 5.55887 8.63887L5.54688 25.4389C5.54688 26.7589 6.61488 27.8389 7.94688 27.8389H24.7469C26.0669 27.8389 27.1469 26.7589 27.1469 25.4389V8.63887C27.1469 7.31887 26.0669 6.23887 24.7469 6.23887H23.5469V5.03887C23.5469 4.37887 23.0069 3.83887 22.3469 3.83887ZM24.7469 25.4389H7.94688V13.4389H24.7469V25.4389Z" fill="#0B7DE6"/>
<circle cx="21.3334" cy="22.0952" r="1.52381" fill="#77EB42"/>
<circle cx="16.3809" cy="21.7143" r="1.14286" fill="#77EB42"/>
<circle cx="11.8096" cy="21.7143" r="1.14286" fill="#77EB42"/>
<circle cx="11.8096" cy="17.1429" r="1.14286" fill="#77EB42"/>
<circle cx="16.3809" cy="17.1429" r="1.14286" fill="#77EB42"/>
<circle cx="20.9524" cy="17.1429" r="1.14286" fill="#77EB42"/>
</g>
<defs>
<clipPath id="clip0_145_5811">
<rect width="32" height="32" fill="white"/>
</clipPath>
</defs>
</svg>
