<svg width="32" height="32" viewBox="0 0 32 32" fill="none" xmlns="http://www.w3.org/2000/svg">
<g clip-path="url(#clip0_145_5836)">
<path d="M16.0512 3.41235C10.7314 3.41235 6.39941 7.74971 6.39941 13.0761C6.39941 16.6358 8.3524 19.735 11.2253 21.4111V21.7735L11.1952 22.7398H11.2253C11.2706 22.7398 12.1792 22.7663 13.1255 23.3438C13.9625 23.8534 14.841 24.7066 15.0559 26.6054H7.3646V28.5381H24.7379V26.6054H17.0466C17.2615 24.7066 18.1399 23.8534 18.9769 23.3438C19.9233 22.7663 20.8319 22.7398 20.8771 22.7398H20.9073L20.8771 21.7735V21.4111C23.7501 19.735 25.703 16.6358 25.703 13.0761C25.703 7.74971 21.371 3.41235 16.0512 3.41235ZM16.0512 5.3451C20.3267 5.3451 23.7727 8.79536 23.7727 13.0761C23.7727 17.3568 20.3267 20.8071 16.0512 20.8071C11.7758 20.8071 8.32978 17.3568 8.32978 13.0761C8.32978 8.79536 11.7758 5.3451 16.0512 5.3451ZM18.9468 11.1434C18.4152 11.1434 17.9816 11.5775 17.9816 12.1097C17.9816 12.642 18.4152 13.0761 18.9468 13.0761C19.4784 13.0761 19.912 12.642 19.912 12.1097C19.912 11.5775 19.4784 11.1434 18.9468 11.1434ZM17.0164 13.0761C16.4848 13.0761 16.0512 13.5102 16.0512 14.0425C16.0512 14.5747 16.4848 15.0089 17.0164 15.0089C17.548 15.0089 17.9816 14.5747 17.9816 14.0425C17.9816 13.5102 17.548 13.0761 17.0164 13.0761ZM19.912 14.0425C19.3803 14.0425 18.9468 14.4766 18.9468 15.0089C18.9468 15.5411 19.3803 15.9752 19.912 15.9752C20.4436 15.9752 20.8771 15.5411 20.8771 15.0089C20.8771 14.4766 20.4436 14.0425 19.912 14.0425ZM17.9816 15.9752C17.45 15.9752 17.0164 16.4093 17.0164 16.9416C17.0164 17.4739 17.45 17.908 17.9816 17.908C18.5132 17.908 18.9468 17.4739 18.9468 16.9416C18.9468 16.4093 18.5132 15.9752 17.9816 15.9752ZM15.3575 22.7398H16.745C16.4923 23.0267 16.2624 23.3401 16.0512 23.7062C15.8401 23.3401 15.6101 23.0267 15.3575 22.7398Z" fill="#0B7DE6"/>
<path d="M17.9816 12.1097C17.9816 11.5775 18.4152 11.1434 18.9468 11.1434C19.4784 11.1434 19.912 11.5775 19.912 12.1097C19.912 12.642 19.4784 13.0761 18.9468 13.0761C18.4152 13.0761 17.9816 12.642 17.9816 12.1097Z" fill="#77EB42"/>
<path d="M16.0512 14.0425C16.0512 13.5102 16.4848 13.0761 17.0164 13.0761C17.548 13.0761 17.9816 13.5102 17.9816 14.0425C17.9816 14.5747 17.548 15.0089 17.0164 15.0089C16.4848 15.0089 16.0512 14.5747 16.0512 14.0425Z" fill="#77EB42"/>
<path d="M18.9468 15.0089C18.9468 14.4766 19.3803 14.0425 19.912 14.0425C20.4436 14.0425 20.8771 14.4766 20.8771 15.0089C20.8771 15.5411 20.4436 15.9752 19.912 15.9752C19.3803 15.9752 18.9468 15.5411 18.9468 15.0089Z" fill="#77EB42"/>
<path d="M17.0164 16.9416C17.0164 16.4093 17.45 15.9752 17.9816 15.9752C18.5132 15.9752 18.9468 16.4093 18.9468 16.9416C18.9468 17.4739 18.5132 17.908 17.9816 17.908C17.45 17.908 17.0164 17.4739 17.0164 16.9416Z" fill="#77EB42"/>
<path d="M17.9816 12.1097C17.9816 11.5775 18.4152 11.1434 18.9468 11.1434C19.4784 11.1434 19.912 11.5775 19.912 12.1097C19.912 12.642 19.4784 13.0761 18.9468 13.0761C18.4152 13.0761 17.9816 12.642 17.9816 12.1097Z" fill="#77EB42"/>
<path d="M16.0512 14.0425C16.0512 13.5102 16.4848 13.0761 17.0164 13.0761C17.548 13.0761 17.9816 13.5102 17.9816 14.0425C17.9816 14.5747 17.548 15.0089 17.0164 15.0089C16.4848 15.0089 16.0512 14.5747 16.0512 14.0425Z" fill="#77EB42"/>
<path d="M18.9468 15.0089C18.9468 14.4766 19.3803 14.0425 19.912 14.0425C20.4436 14.0425 20.8771 14.4766 20.8771 15.0089C20.8771 15.5411 20.4436 15.9752 19.912 15.9752C19.3803 15.9752 18.9468 15.5411 18.9468 15.0089Z" fill="#77EB42"/>
<path d="M17.0164 16.9416C17.0164 16.4093 17.45 15.9752 17.9816 15.9752C18.5132 15.9752 18.9468 16.4093 18.9468 16.9416C18.9468 17.4739 18.5132 17.908 17.9816 17.908C17.45 17.908 17.0164 17.4739 17.0164 16.9416Z" fill="#77EB42"/>
<path d="M17.9816 12.1097C17.9816 11.5775 18.4152 11.1434 18.9468 11.1434C19.4784 11.1434 19.912 11.5775 19.912 12.1097C19.912 12.642 19.4784 13.0761 18.9468 13.0761C18.4152 13.0761 17.9816 12.642 17.9816 12.1097Z" fill="#77EB42"/>
<path d="M16.0512 14.0425C16.0512 13.5102 16.4848 13.0761 17.0164 13.0761C17.548 13.0761 17.9816 13.5102 17.9816 14.0425C17.9816 14.5747 17.548 15.0089 17.0164 15.0089C16.4848 15.0089 16.0512 14.5747 16.0512 14.0425Z" fill="#77EB42"/>
<path d="M18.9468 15.0089C18.9468 14.4766 19.3803 14.0425 19.912 14.0425C20.4436 14.0425 20.8771 14.4766 20.8771 15.0089C20.8771 15.5411 20.4436 15.9752 19.912 15.9752C19.3803 15.9752 18.9468 15.5411 18.9468 15.0089Z" fill="#77EB42"/>
<path d="M17.0164 16.9416C17.0164 16.4093 17.45 15.9752 17.9816 15.9752C18.5132 15.9752 18.9468 16.4093 18.9468 16.9416C18.9468 17.4739 18.5132 17.908 17.9816 17.908C17.45 17.908 17.0164 17.4739 17.0164 16.9416Z" fill="#77EB42"/>
<path d="M17.9816 12.1097C17.9816 11.5775 18.4152 11.1434 18.9468 11.1434C19.4784 11.1434 19.912 11.5775 19.912 12.1097C19.912 12.642 19.4784 13.0761 18.9468 13.0761C18.4152 13.0761 17.9816 12.642 17.9816 12.1097Z" fill="#77EB42"/>
<path d="M16.0512 14.0425C16.0512 13.5102 16.4848 13.0761 17.0164 13.0761C17.548 13.0761 17.9816 13.5102 17.9816 14.0425C17.9816 14.5747 17.548 15.0089 17.0164 15.0089C16.4848 15.0089 16.0512 14.5747 16.0512 14.0425Z" fill="#77EB42"/>
<path d="M18.9468 15.0089C18.9468 14.4766 19.3803 14.0425 19.912 14.0425C20.4436 14.0425 20.8771 14.4766 20.8771 15.0089C20.8771 15.5411 20.4436 15.9752 19.912 15.9752C19.3803 15.9752 18.9468 15.5411 18.9468 15.0089Z" fill="#77EB42"/>
<path d="M17.0164 16.9416C17.0164 16.4093 17.45 15.9752 17.9816 15.9752C18.5132 15.9752 18.9468 16.4093 18.9468 16.9416C18.9468 17.4739 18.5132 17.908 17.9816 17.908C17.45 17.908 17.0164 17.4739 17.0164 16.9416Z" fill="#77EB42"/>
<path d="M17.9816 12.1097C17.9816 11.5775 18.4152 11.1434 18.9468 11.1434C19.4784 11.1434 19.912 11.5775 19.912 12.1097C19.912 12.642 19.4784 13.0761 18.9468 13.0761C18.4152 13.0761 17.9816 12.642 17.9816 12.1097Z" fill="#77EB42"/>
<path d="M16.0512 14.0425C16.0512 13.5102 16.4848 13.0761 17.0164 13.0761C17.548 13.0761 17.9816 13.5102 17.9816 14.0425C17.9816 14.5747 17.548 15.0089 17.0164 15.0089C16.4848 15.0089 16.0512 14.5747 16.0512 14.0425Z" fill="#77EB42"/>
<path d="M18.9468 15.0089C18.9468 14.4766 19.3803 14.0425 19.912 14.0425C20.4436 14.0425 20.8771 14.4766 20.8771 15.0089C20.8771 15.5411 20.4436 15.9752 19.912 15.9752C19.3803 15.9752 18.9468 15.5411 18.9468 15.0089Z" fill="#77EB42"/>
<path d="M17.0164 16.9416C17.0164 16.4093 17.45 15.9752 17.9816 15.9752C18.5132 15.9752 18.9468 16.4093 18.9468 16.9416C18.9468 17.4739 18.5132 17.908 17.9816 17.908C17.45 17.908 17.0164 17.4739 17.0164 16.9416Z" fill="#77EB42"/>
<path d="M17.9816 12.1097C17.9816 11.5775 18.4152 11.1434 18.9468 11.1434C19.4784 11.1434 19.912 11.5775 19.912 12.1097C19.912 12.642 19.4784 13.0761 18.9468 13.0761C18.4152 13.0761 17.9816 12.642 17.9816 12.1097Z" fill="#77EB42"/>
<path d="M16.0512 14.0425C16.0512 13.5102 16.4848 13.0761 17.0164 13.0761C17.548 13.0761 17.9816 13.5102 17.9816 14.0425C17.9816 14.5747 17.548 15.0089 17.0164 15.0089C16.4848 15.0089 16.0512 14.5747 16.0512 14.0425Z" fill="#77EB42"/>
<path d="M18.9468 15.0089C18.9468 14.4766 19.3803 14.0425 19.912 14.0425C20.4436 14.0425 20.8771 14.4766 20.8771 15.0089C20.8771 15.5411 20.4436 15.9752 19.912 15.9752C19.3803 15.9752 18.9468 15.5411 18.9468 15.0089Z" fill="#77EB42"/>
<path d="M17.0164 16.9416C17.0164 16.4093 17.45 15.9752 17.9816 15.9752C18.5132 15.9752 18.9468 16.4093 18.9468 16.9416C18.9468 17.4739 18.5132 17.908 17.9816 17.908C17.45 17.908 17.0164 17.4739 17.0164 16.9416Z" fill="#77EB42"/>
<path d="M17.9816 12.1097C17.9816 11.5775 18.4152 11.1434 18.9468 11.1434C19.4784 11.1434 19.912 11.5775 19.912 12.1097C19.912 12.642 19.4784 13.0761 18.9468 13.0761C18.4152 13.0761 17.9816 12.642 17.9816 12.1097Z" fill="#77EB42"/>
<path d="M16.0512 14.0425C16.0512 13.5102 16.4848 13.0761 17.0164 13.0761C17.548 13.0761 17.9816 13.5102 17.9816 14.0425C17.9816 14.5747 17.548 15.0089 17.0164 15.0089C16.4848 15.0089 16.0512 14.5747 16.0512 14.0425Z" fill="#77EB42"/>
<path d="M18.9468 15.0089C18.9468 14.4766 19.3803 14.0425 19.912 14.0425C20.4436 14.0425 20.8771 14.4766 20.8771 15.0089C20.8771 15.5411 20.4436 15.9752 19.912 15.9752C19.3803 15.9752 18.9468 15.5411 18.9468 15.0089Z" fill="#77EB42"/>
<path d="M17.0164 16.9416C17.0164 16.4093 17.45 15.9752 17.9816 15.9752C18.5132 15.9752 18.9468 16.4093 18.9468 16.9416C18.9468 17.4739 18.5132 17.908 17.9816 17.908C17.45 17.908 17.0164 17.4739 17.0164 16.9416Z" fill="#77EB42"/>
<circle cx="14.4762" cy="16.7619" r="1.52381" fill="#77EB42"/>
</g>
<defs>
<clipPath id="clip0_145_5836">
<rect width="32" height="32" fill="white"/>
</clipPath>
</defs>
</svg>
