<svg width="11" height="21" viewBox="0 0 11 21" fill="none" xmlns="http://www.w3.org/2000/svg">
<g clip-path="url(#clip0_19_2361)">
<path d="M1.93723 11.7611H3.03585C3.13278 11.7611 3.22972 11.8581 3.22972 11.955V18.8699C3.22972 19.2253 3.52053 19.5161 3.87597 19.5161H6.39633C6.75176 19.5161 7.0426 19.2253 7.0426 18.8699V11.955C7.0426 11.8581 7.13955 11.7611 7.23643 11.7611H9.04595C9.36907 11.7611 9.65991 11.535 9.69218 11.2119L10.1122 8.69151C10.1769 8.30373 9.85374 7.916 9.46601 7.916H7.33338C7.17182 7.916 7.0426 7.78678 7.0426 7.62516V6.00957C7.0426 5.58951 7.26877 5.36333 7.68883 5.36333H9.59523C9.95068 5.36333 10.2415 5.07251 10.2415 4.71707V2.13209C10.2415 1.77665 9.95068 1.48584 9.59523 1.48584H7.3011C3.10047 1.48584 3.19741 4.87864 3.19741 5.36333V7.72211C3.19741 7.81906 3.10047 7.916 3.00354 7.916H1.90492C1.54948 7.916 1.25867 8.20684 1.25867 8.56223V11.0826C1.29098 11.4704 1.58179 11.7611 1.93723 11.7611Z" fill="#0B7DE6"/>
</g>
<defs>
<clipPath id="clip0_19_2361">
<rect width="9.54545" height="19.0909" fill="white" transform="translate(0.727295 0.95459)"/>
</clipPath>
</defs>
</svg>
