<svg width="32" height="32" viewBox="0 0 32 32" fill="none" xmlns="http://www.w3.org/2000/svg">
<g clip-path="url(#clip0_145_5846)">
<g clip-path="url(#clip1_145_5846)">
<path d="M15.3653 8.63608C15.3653 7.55818 14.479 6.68402 13.3843 6.68402C12.2911 6.68402 11.4048 7.55769 11.4048 8.63608C11.4048 9.71997 12.291 10.597 13.3843 10.597C14.4771 10.5969 15.3653 9.71997 15.3653 8.63608Z" fill="#0B7DE6"/>
<path d="M23.4293 10.5506C23.3519 10.1319 23.0083 9.89137 22.9878 9.87314L12.1297 2.71686C11.6999 2.43384 11.1143 2.54764 10.8215 2.9714L10.2719 3.76863C10.0672 4.08099 10.1567 4.48706 10.4649 4.68939C10.7749 4.89455 11.1148 4.74019 11.3143 4.42739L11.7335 3.39473L21.4651 9.82887L13.7246 11.2265C13.1745 11.3151 12.7791 11.8653 12.9018 12.4004L14.5857 18.9166L9.13991 27.0874C8.81121 27.645 9.00984 28.3639 9.57397 28.6819C10.1441 29.0059 10.8626 28.8068 11.1908 28.2497C11.1908 28.2497 16.8739 19.7045 16.8953 19.6463L17.1914 20.8402L16.3331 27.6571C16.2273 28.2916 16.6627 28.8907 17.3084 28.9979C17.9522 29.1061 18.5602 28.6748 18.6697 28.0403L19.55 21.0439C19.5779 20.8752 19.543 20.504 19.5024 20.3446L17.5625 12.6209L22.6166 11.7109C23.1584 11.6154 23.5225 11.0951 23.4293 10.5506Z" fill="#0B7DE6"/>
<circle cx="27.8095" cy="27.0476" r="1.90476" fill="#77EB42"/>
</g>
</g>
<defs>
<clipPath id="clip0_145_5846">
<rect width="32" height="32" fill="white"/>
</clipPath>
<clipPath id="clip1_145_5846">
<rect width="26.6667" height="27.4286" fill="white" transform="translate(3.04761 2.28571)"/>
</clipPath>
</defs>
</svg>
