<svg width="21" height="21" viewBox="0 0 21 21" fill="none" xmlns="http://www.w3.org/2000/svg">
<g clip-path="url(#clip0_19_2363)">
<path d="M10.5685 1.48584C8.00623 1.48584 7.68497 1.49623 6.67868 1.54011C5.6745 1.58388 4.98865 1.73626 4.38853 1.95914C3.76814 2.18952 3.24198 2.49779 2.71752 2.99898C2.19302 3.50014 1.8704 4.00291 1.62931 4.59573C1.39606 5.16914 1.2366 5.8245 1.19079 6.78406C1.14487 7.74562 1.13403 8.05262 1.13403 10.501C1.13403 12.9494 1.14487 13.2564 1.19079 14.2179C1.2366 15.1775 1.39606 15.8328 1.62931 16.4063C1.8704 16.9991 2.19302 17.5018 2.71752 18.003C3.24198 18.5042 3.76814 18.8125 4.38853 19.0429C4.98865 19.2657 5.6745 19.4182 6.67868 19.4619C7.68497 19.5057 8.00623 19.5161 10.5685 19.5161C13.1307 19.5161 13.452 19.5057 14.4583 19.4619C15.4625 19.4182 16.1483 19.2657 16.7484 19.0429C17.3688 18.8125 17.895 18.5042 18.4195 18.003C18.944 17.5018 19.2666 16.9991 19.5077 16.4063C19.7409 15.8328 19.9004 15.1775 19.9462 14.2179C19.9921 13.2564 20.003 12.9494 20.003 10.501C20.003 8.05262 19.9921 7.74562 19.9462 6.78406C19.9004 5.8245 19.7409 5.16914 19.5077 4.59573C19.2666 4.00291 18.944 3.50014 18.4195 2.99898C17.895 2.49779 17.3688 2.18952 16.7484 1.95914C16.1483 1.73626 15.4625 1.58388 14.4583 1.54011C13.452 1.49623 13.1307 1.48584 10.5685 1.48584ZM10.5685 3.11023C13.0876 3.11023 13.386 3.11939 14.3809 3.16277C15.3007 3.20288 15.8002 3.34973 16.1327 3.47316C16.573 3.6367 16.8873 3.83208 17.2175 4.14754C17.5476 4.463 17.752 4.76335 17.9232 5.18411C18.0524 5.50179 18.2061 5.97913 18.2481 6.85808C18.2934 7.80873 18.303 8.09385 18.303 10.501C18.303 12.9082 18.2934 13.1933 18.2481 14.1439C18.2061 15.0228 18.0524 15.5002 17.9232 15.8178C17.752 16.2387 17.5476 16.539 17.2175 16.8544C16.8873 17.17 16.573 17.3653 16.1327 17.5288C15.8002 17.6523 15.3007 17.7991 14.3809 17.8392C13.3862 17.8826 13.0878 17.8918 10.5685 17.8918C8.04919 17.8918 7.75089 17.8826 6.75614 17.8392C5.83632 17.7991 5.33677 17.6523 5.00431 17.5288C4.56395 17.3653 4.24966 17.17 3.9195 16.8544C3.58936 16.539 3.3849 16.2387 3.21378 15.8178C3.08458 15.5002 2.9309 15.0228 2.88892 14.1439C2.84352 13.1933 2.83394 12.9082 2.83394 10.501C2.83394 8.09385 2.84352 7.80873 2.88892 6.85808C2.9309 5.97913 3.08458 5.50179 3.21378 5.18411C3.3849 4.76335 3.58936 4.463 3.9195 4.14754C4.24966 3.83208 4.56395 3.6367 5.00431 3.47316C5.33677 3.34973 5.83632 3.20288 6.75614 3.16277C7.75101 3.11939 8.04943 3.11023 10.5685 3.11023Z" fill="url(#paint0_linear_19_2363)"/>
<path d="M10.5628 13.5017C8.82591 13.5017 7.4179 12.1562 7.4179 10.4966C7.4179 8.83697 8.82591 7.49154 10.5628 7.49154C12.2996 7.49154 13.7076 8.83697 13.7076 10.4966C13.7076 12.1562 12.2996 13.5017 10.5628 13.5017ZM10.5628 5.86719C7.88706 5.86719 5.71802 7.93982 5.71802 10.4966C5.71802 13.0533 7.88706 15.126 10.5628 15.126C13.2384 15.126 15.4074 13.0533 15.4074 10.4966C15.4074 7.93982 13.2384 5.86719 10.5628 5.86719Z" fill="url(#paint1_linear_19_2363)"/>
<path d="M16.7354 5.69043C16.7354 6.28793 16.2285 6.77225 15.6032 6.77225C14.978 6.77225 14.4711 6.28793 14.4711 5.69043C14.4711 5.09296 14.978 4.60864 15.6032 4.60864C16.2285 4.60864 16.7354 5.09296 16.7354 5.69043Z" fill="url(#paint2_linear_19_2363)"/>
</g>
<defs>
<linearGradient id="paint0_linear_19_2363" x1="12.22" y1="0.530501" x2="7.14822" y2="18.0654" gradientUnits="userSpaceOnUse">
<stop stop-color="#515BD4"/>
<stop offset="0.26" stop-color="#9510B8"/>
<stop offset="0.66" stop-color="#E51804"/>
<stop offset="1" stop-color="#FEDA77"/>
</linearGradient>
<linearGradient id="paint1_linear_19_2363" x1="12.2142" y1="0.5261" x2="7.14251" y2="18.061" gradientUnits="userSpaceOnUse">
<stop stop-color="#515BD4"/>
<stop offset="0.26" stop-color="#9510B8"/>
<stop offset="0.66" stop-color="#E51804"/>
<stop offset="1" stop-color="#FFBF00"/>
</linearGradient>
<linearGradient id="paint2_linear_19_2363" x1="12.2185" y1="0.532251" x2="7.14684" y2="18.0672" gradientUnits="userSpaceOnUse">
<stop stop-color="#515BD4"/>
<stop offset="0.26" stop-color="#9510B8"/>
<stop offset="0.66" stop-color="#E51804"/>
<stop offset="1" stop-color="#FFBF00"/>
</linearGradient>
<clipPath id="clip0_19_2363">
<rect width="19.0909" height="19.0909" fill="white" transform="translate(0.95459 0.95459)"/>
</clipPath>
</defs>
</svg>
