<svg width="21" height="21" viewBox="0 0 21 21" fill="none" xmlns="http://www.w3.org/2000/svg">
<path fill-rule="evenodd" clip-rule="evenodd" d="M19.5163 3.73963C19.5163 2.49571 18.5064 1.48584 17.2625 1.48584H3.73975C2.49583 1.48584 1.48596 2.49571 1.48596 3.73963V17.2624C1.48596 18.5063 2.49583 19.5161 3.73975 19.5161H17.2625C18.5064 19.5161 19.5163 18.5063 19.5163 17.2624V3.73963Z" fill="#2867B2"/>
<path d="M6.65472 7.78271H3.63464V16.8669H6.65472V7.78271Z" fill="white"/>
<path d="M5.16589 3.40161C4.13263 3.40161 3.45752 4.08092 3.45752 4.97127C3.45752 5.84292 4.1121 6.54096 5.12592 6.54096H5.14543C6.19848 6.54096 6.85394 5.84292 6.85394 4.97127C6.8344 4.08092 6.19854 3.40161 5.16589 3.40161Z" fill="white"/>
<path d="M14.0641 7.56836C12.4621 7.56836 11.7446 8.44935 11.3428 9.06819V7.782H8.32349C8.36352 8.63411 8.32349 16.8662 8.32349 16.8662H11.3427V11.7929C11.3427 11.5214 11.3622 11.2499 11.4423 11.0559C11.6602 10.5135 12.1574 9.95174 12.9915 9.95174C14.0836 9.95174 14.5211 10.7851 14.5211 12.0058V16.8662H17.5405V11.6568C17.5405 8.86642 16.0508 7.56836 14.0641 7.56836Z" fill="white"/>
</svg>
