<svg width="32" height="32" viewBox="0 0 32 32" fill="none" xmlns="http://www.w3.org/2000/svg">
<g clip-path="url(#clip0_145_5827)">
<path d="M6.86268 17.0383C8.16312 17.0383 9.22712 15.991 9.22712 14.7108C9.22712 13.4307 8.16312 12.3833 6.86268 12.3833C5.56223 12.3833 4.49823 13.4307 4.49823 14.7108C4.49823 15.991 5.56223 17.0383 6.86268 17.0383ZM8.19859 18.3185C7.76117 18.2487 7.32374 18.2021 6.86268 18.2021C5.69228 18.2021 4.58099 18.4465 3.5761 18.8771C2.70126 19.2495 2.13379 20.0874 2.13379 21.0301V22.8572H7.45379V20.9835C7.45379 20.0176 7.7257 19.1099 8.19859 18.3185ZM25.7782 17.0383C27.0787 17.0383 28.1427 15.991 28.1427 14.7108C28.1427 13.4307 27.0787 12.3833 25.7782 12.3833C24.4778 12.3833 23.4138 13.4307 23.4138 14.7108C23.4138 15.991 24.4778 17.0383 25.7782 17.0383ZM30.5071 21.0301C30.5071 20.0874 29.9397 19.2495 29.0648 18.8771C28.0599 18.4465 26.9486 18.2021 25.7782 18.2021C25.3172 18.2021 24.8797 18.2487 24.4423 18.3185C24.9152 19.1099 25.1871 20.0176 25.1871 20.9835V22.8572H30.5071V21.0301ZM21.3331 17.7948C19.9499 17.1896 18.2475 16.7474 16.3205 16.7474C14.3934 16.7474 12.691 17.2013 11.3078 17.7948C10.031 18.3534 9.22712 19.6103 9.22712 20.9835V22.8572H23.4138V20.9835C23.4138 19.6103 22.6099 18.3534 21.3331 17.7948ZM11.6743 20.5296C11.7807 20.262 11.828 20.0758 12.7501 19.7266C13.8969 19.2844 15.1028 19.0749 16.3205 19.0749C17.5381 19.0749 18.744 19.2844 19.8908 19.7266C20.8011 20.0758 20.8484 20.262 20.9666 20.5296H11.6743ZM16.3205 11.2195C16.9707 11.2195 17.5027 11.7432 17.5027 12.3833C17.5027 13.0233 16.9707 13.547 16.3205 13.547C15.6702 13.547 15.1382 13.0233 15.1382 12.3833C15.1382 11.7432 15.6702 11.2195 16.3205 11.2195ZM16.3205 8.89197C14.358 8.89197 12.7738 10.4514 12.7738 12.3833C12.7738 14.3151 14.358 15.8746 16.3205 15.8746C18.2829 15.8746 19.8671 14.3151 19.8671 12.3833C19.8671 10.4514 18.2829 8.89197 16.3205 8.89197Z" fill="#0B7DE6"/>
<circle cx="21.7143" cy="23.2381" r="1.90476" fill="#77EB42"/>
</g>
<defs>
<clipPath id="clip0_145_5827">
<rect width="32" height="32" fill="white"/>
</clipPath>
</defs>
</svg>
