<svg width="21" height="21" viewBox="0 0 21 21" fill="none" xmlns="http://www.w3.org/2000/svg">
<path d="M10.5011 19.5161C5.52295 19.5161 1.48596 15.4792 1.48596 10.501C1.48596 5.52282 5.52295 1.48584 10.5011 1.48584C15.4793 1.48584 19.5163 5.52282 19.5163 10.501C19.5163 15.4792 15.4793 19.5161 10.5011 19.5161Z" fill="#FF4500"/>
<path d="M12.5672 12.3819C12.0497 12.3819 11.6278 11.96 11.6278 11.4425C11.6278 10.925 12.0497 10.5031 12.5672 10.5031C13.0846 10.5031 13.5065 10.925 13.5065 11.4425C13.5065 11.96 13.0846 12.3819 12.5672 12.3819ZM12.7331 13.9235C12.0912 14.5635 10.8633 14.614 10.5027 14.614C10.1421 14.614 8.91243 14.5635 8.27235 13.9235C8.17684 13.8279 8.17684 13.6746 8.27235 13.5791C8.36793 13.4835 8.52119 13.4835 8.61676 13.5791C9.02066 13.9829 9.88428 14.1272 10.5027 14.1272C11.1193 14.1272 11.9848 13.9829 12.3887 13.5791C12.4842 13.4835 12.6375 13.4835 12.7331 13.5791C12.8268 13.6746 12.8268 13.8279 12.7331 13.9235ZM7.49529 11.4425C7.49529 10.925 7.9172 10.5031 8.43462 10.5031C8.95211 10.5031 9.37402 10.925 9.37402 11.4425C9.37402 11.96 8.95211 12.3819 8.43462 12.3819C7.9172 12.3819 7.49529 11.96 7.49529 11.4425ZM16.5104 10.5031C16.5104 9.7765 15.9226 9.18868 15.196 9.18868C14.8408 9.18868 14.5199 9.32929 14.2837 9.55833C13.3858 8.90924 12.1471 8.49091 10.7678 8.44222L11.3664 5.62411L13.3227 6.04061C13.3461 6.53824 13.7536 6.93488 14.2566 6.93488C14.7759 6.93488 15.196 6.5148 15.196 5.99553C15.196 5.47626 14.7759 5.05615 14.2566 5.05615C13.887 5.05615 13.5715 5.27071 13.4182 5.58083L11.2329 5.11565C11.1717 5.10303 11.1085 5.11385 11.0562 5.1481C11.004 5.18237 10.9679 5.23465 10.9553 5.29595L10.299 8.38817C10.2954 8.40619 10.299 8.42242 10.299 8.44043C8.89442 8.47647 7.63227 8.89659 6.71996 9.55469C6.48377 9.3275 6.16463 9.18868 5.81124 9.18868C5.08461 9.18868 4.49683 9.77829 4.49683 10.5031C4.49683 11.0368 4.81596 11.4966 5.27393 11.7021C5.2541 11.8319 5.24328 11.9653 5.24328 12.1006C5.24328 14.1236 7.59802 15.7625 10.5027 15.7625C13.4074 15.7625 15.7621 14.1236 15.7621 12.1006C15.7621 11.9671 15.7513 11.8355 15.7315 11.7057C16.1877 11.5002 16.5104 11.0404 16.5104 10.5031Z" fill="white"/>
</svg>
