<svg width="25" height="21" viewBox="0 0 25 21" fill="none" xmlns="http://www.w3.org/2000/svg">
<path d="M8.32013 19.3933C16.8251 19.3933 21.4768 12.4554 21.4768 6.43895C21.4768 6.24192 21.4768 6.04575 21.4633 5.85045C22.3683 5.20591 23.1495 4.40794 23.7703 3.49377C22.9264 3.86196 22.0311 4.10338 21.1145 4.21009C22.0795 3.64127 22.8023 2.7459 23.1473 1.69183C22.2397 2.22211 21.2466 2.5959 20.2112 2.79696C19.3368 1.88153 18.1157 1.36182 16.8395 1.36182C14.3004 1.36182 12.2112 3.419 12.2112 5.91898C12.2112 6.2658 12.2514 6.61154 12.3309 6.94935C8.61492 6.76597 5.1479 5.03532 2.80105 2.19247C1.58066 4.26101 2.21212 6.94172 4.23264 8.27016C3.49686 8.2487 2.77688 8.05323 2.13393 7.70029V7.75798C2.13455 9.91705 3.69429 11.7936 5.84366 12.2211C5.16295 12.4039 4.44856 12.4306 3.75578 12.2992C4.36004 14.1493 6.10249 15.4245 8.07582 15.461C6.43876 16.7277 4.41533 17.4159 2.33317 17.4138C1.96526 17.4131 1.5977 17.3912 1.23242 17.3481C3.34685 18.6841 5.80779 19.393 8.32013 19.3897" fill="#1DA1F2"/>
</svg>
