<svg width="147" height="40" viewBox="0 0 147 40" fill="none" xmlns="http://www.w3.org/2000/svg">
<path d="M0 26.9534V6.09971H3.14638V24.2449H12.5957V26.9534H0Z" fill="#113151"/>
<path d="M15.9407 26.9534V11.3131H18.9852V26.9534H15.9407ZM17.4782 8.89989C16.9487 8.89989 16.4939 8.72339 16.1138 8.3704C15.7404 8.01062 15.5537 7.58295 15.5537 7.08741C15.5537 6.58507 15.7404 6.15741 16.1138 5.80442C16.4939 5.44463 16.9487 5.26474 17.4782 5.26474C18.0077 5.26474 18.4591 5.44463 18.8325 5.80442C19.2126 6.15741 19.4027 6.58507 19.4027 7.08741C19.4027 7.58295 19.2126 8.01062 18.8325 8.3704C18.4591 8.72339 18.0077 8.89989 17.4782 8.89989Z" fill="#113151"/>
<path d="M26.1257 17.667V26.9534H23.0811V11.3131H26.0035V13.8587H26.1969C26.5567 13.0306 27.1202 12.3653 27.8872 11.863C28.6611 11.3607 29.6352 11.1095 30.8096 11.1095C31.8754 11.1095 32.8088 11.3335 33.6098 11.7815C34.4108 12.2228 35.0319 12.8812 35.4732 13.7569C35.9144 14.6326 36.135 15.7154 36.135 17.0051V26.9534H33.0905V17.3717C33.0905 16.2381 32.7952 15.3522 32.2046 14.7141C31.614 14.0692 30.8028 13.7467 29.771 13.7467C29.065 13.7467 28.4371 13.8995 27.8872 14.205C27.3442 14.5104 26.9131 14.9585 26.5941 15.549C26.2818 16.1328 26.1257 16.8388 26.1257 17.667Z" fill="#113151"/>
<path d="M43.0184 21.6483L42.998 17.9317H43.5275L49.7592 11.3131H53.4045L46.2971 18.8482H45.8186L43.0184 21.6483ZM40.2182 26.9534V6.09971H43.2628V26.9534H40.2182ZM50.0952 26.9534L44.4948 19.5202L46.5924 17.3921L53.8322 26.9534H50.0952Z" fill="#113151"/>
<path d="M62.276 27.2691C60.735 27.2691 59.4079 26.9398 58.2946 26.2814C57.1881 25.6161 56.3328 24.6827 55.7286 23.4812C55.1313 22.2729 54.8326 20.8575 54.8326 19.2351C54.8326 17.6331 55.1313 16.2211 55.7286 14.9992C56.3328 13.7773 57.1746 12.8235 58.2539 12.1379C59.34 11.4523 60.6094 11.1095 62.0621 11.1095C62.9446 11.1095 63.8 11.2554 64.6281 11.5473C65.4563 11.8392 66.1996 12.2974 66.8581 12.922C67.5166 13.5465 68.0359 14.3577 68.416 15.3556C68.7962 16.3467 68.9862 17.5516 68.9862 18.9703V20.0497H56.5534V17.7688H66.0028C66.0028 16.9678 65.8398 16.2584 65.514 15.6407C65.1882 15.0162 64.7299 14.524 64.1394 14.1642C63.5556 13.8044 62.87 13.6246 62.0825 13.6246C61.2272 13.6246 60.4805 13.835 59.8424 14.2559C59.2111 14.67 58.7223 15.213 58.3761 15.8851C58.0367 16.5503 57.867 17.2733 57.867 18.0539V19.8359C57.867 20.8813 58.0503 21.7705 58.4168 22.5037C58.7902 23.2368 59.3095 23.7968 59.9747 24.1838C60.64 24.5639 61.4173 24.754 62.3065 24.754C62.8835 24.754 63.4096 24.6725 63.8848 24.5096C64.36 24.3399 64.7707 24.0887 65.1169 23.7561C65.4631 23.4235 65.7278 23.0128 65.9111 22.524L68.7928 23.0433C68.562 23.8919 68.1479 24.6352 67.5505 25.2733C66.9599 25.9046 66.2166 26.3968 65.3205 26.7498C64.4313 27.096 63.4164 27.2691 62.276 27.2691Z" fill="#113151"/>
<path d="M78.2192 27.2589C76.9565 27.2589 75.8297 26.9364 74.8386 26.2915C73.8543 25.6399 73.0804 24.7133 72.517 23.5117C71.9604 22.3034 71.682 20.8541 71.682 19.1638C71.682 17.4735 71.9637 16.0276 72.5272 14.8261C73.0974 13.6246 73.878 12.7047 74.8691 12.0666C75.8602 11.4285 76.9837 11.1095 78.2395 11.1095C79.2103 11.1095 79.9909 11.2724 80.5815 11.5982C81.1789 11.9173 81.6405 12.2906 81.9663 12.7183C82.299 13.146 82.5569 13.5227 82.7402 13.8486H82.9235V6.09971H85.968V26.9534H82.9948V24.5198H82.7402C82.5569 24.8524 82.2922 25.2326 81.946 25.6602C81.6065 26.0879 81.1382 26.4613 80.5408 26.7803C79.9434 27.0994 79.1695 27.2589 78.2192 27.2589ZM78.8912 24.6623C79.7669 24.6623 80.5068 24.4315 81.111 23.9699C81.7219 23.5015 82.1835 22.8533 82.4958 22.0251C82.8149 21.1969 82.9744 20.233 82.9744 19.1333C82.9744 18.0471 82.8183 17.0968 82.506 16.2822C82.1937 15.4676 81.7355 14.8329 81.1314 14.3781C80.5272 13.9232 79.7805 13.6958 78.8912 13.6958C77.9748 13.6958 77.2111 13.9334 76.6002 14.4086C75.9892 14.8838 75.5276 15.5321 75.2153 16.3535C74.9099 17.1748 74.7571 18.1014 74.7571 19.1333C74.7571 20.1787 74.9133 21.1188 75.2255 21.9538C75.5378 22.7888 75.9994 23.4506 76.6103 23.9394C77.2281 24.4214 77.9884 24.6623 78.8912 24.6623Z" fill="#113151"/>
<path d="M113.19 20.6165C113.439 20.6165 113.63 20.7407 113.764 20.9892C113.917 21.2186 113.993 21.5149 113.993 21.8781C113.993 22.3178 113.926 22.6619 113.793 22.9104C113.659 23.1589 113.448 23.3787 113.162 23.5699C112.034 24.3154 110.237 25.5388 107.771 27.2401C107.026 31.1971 106.06 34.313 104.875 36.5878C103.69 38.8626 102.189 40 100.373 40C99.3983 40 98.605 39.6941 97.9933 39.0824C97.3816 38.4898 97.0757 37.7061 97.0757 36.7312C97.0757 35.8327 97.2764 34.9247 97.6779 34.0072C98.0793 33.0896 98.8248 32.0287 99.9144 30.8244C101.023 29.6201 102.581 28.2437 104.588 26.6953L104.674 26.1505C103.164 26.7814 101.683 27.0968 100.23 27.0968C98.0889 27.0968 96.2059 26.6858 94.5811 25.8638C92.9562 25.0227 91.6946 23.8375 90.7961 22.3082C89.8977 20.779 89.4485 19.0012 89.4485 16.9749C89.4485 14.1458 89.9837 11.6511 91.0542 9.49104C92.1247 7.31183 93.5966 5.62963 95.47 4.44445C97.3624 3.24014 99.4748 2.63799 101.807 2.63799C104.043 2.63799 105.716 3.16368 106.825 4.21505C107.953 5.24731 108.517 6.62366 108.517 8.34409C108.517 9.47192 108.306 10.3799 107.886 11.0681C107.484 11.7372 106.901 12.0717 106.137 12.0717C105.621 12.0717 105.2 11.9474 104.875 11.6989C104.569 11.4504 104.416 11.1063 104.416 10.6667C104.416 10.4755 104.454 10.1505 104.531 9.69176C104.646 9.15651 104.703 8.73596 104.703 8.43011C104.703 7.62724 104.454 7.00597 103.957 6.56631C103.48 6.12664 102.667 5.90681 101.52 5.90681C100.125 5.90681 98.8248 6.30824 97.6205 7.11111C96.4353 7.91398 95.4795 9.11828 94.7531 10.724C94.0267 12.3106 93.6635 14.2222 93.6635 16.4588C93.6635 18.7527 94.2848 20.5305 95.5273 21.7921C96.789 23.0346 98.605 23.6559 100.975 23.6559C102.294 23.6559 103.671 23.3596 105.104 22.767L105.506 19.2688H102.581C102.046 19.2688 101.635 19.1446 101.348 18.8961C101.061 18.6284 100.918 18.1983 100.918 17.6057C100.918 17.0705 101.061 16.6499 101.348 16.3441C101.635 16.0382 102.017 15.8853 102.495 15.8853H107.857C108.278 15.8853 108.622 16.0287 108.889 16.3154C109.176 16.583 109.291 16.9749 109.233 17.491C109.176 18.1027 108.985 19.4886 108.66 21.6487L108.345 23.828C109.874 22.681 111.269 21.687 112.531 20.8459C112.779 20.693 112.999 20.6165 113.19 20.6165ZM100.689 37.2186C101.186 37.2186 101.73 36.6547 102.323 35.5269C102.916 34.399 103.47 32.583 103.986 30.0789C102.533 31.3214 101.482 32.4397 100.832 33.4337C100.201 34.4468 99.8857 35.3357 99.8857 36.1004C99.8857 36.8459 100.153 37.2186 100.689 37.2186Z" fill="#8BFF58"/>
<path d="M126.855 18.1505C127.103 18.1505 127.294 18.2748 127.428 18.5233C127.562 18.7718 127.629 19.0872 127.629 19.4695C127.629 20.3871 127.352 20.9319 126.797 21.1039C125.651 21.5054 124.389 21.7348 123.013 21.7921C122.649 23.3978 121.932 24.6882 120.862 25.6631C119.792 26.6189 118.578 27.0968 117.22 27.0968C116.073 27.0968 115.089 26.8196 114.267 26.2652C113.464 25.7109 112.852 24.9749 112.432 24.0573C112.011 23.1398 111.801 22.1458 111.801 21.0753C111.801 19.6225 112.078 18.3321 112.633 17.2043C113.187 16.0573 113.952 15.1685 114.927 14.5376C115.901 13.8877 116.981 13.5627 118.167 13.5627C119.619 13.5627 120.786 14.0693 121.665 15.0824C122.563 16.0765 123.089 17.3094 123.242 18.7814C124.14 18.724 125.211 18.5329 126.453 18.2079C126.606 18.1697 126.74 18.1505 126.855 18.1505ZM117.45 24.0573C118.062 24.0573 118.587 23.8088 119.027 23.3118C119.486 22.8148 119.792 22.098 119.944 21.1613C119.352 20.7599 118.893 20.2342 118.568 19.5842C118.262 18.9343 118.109 18.2461 118.109 17.5197C118.109 17.2139 118.138 16.908 118.195 16.6021H118.052C117.287 16.6021 116.647 16.9749 116.131 17.7204C115.634 18.4468 115.385 19.4791 115.385 20.8172C115.385 21.8686 115.586 22.6714 115.987 23.2258C116.408 23.7802 116.895 24.0573 117.45 24.0573Z" fill="#8BFF58"/>
<path d="M136.035 20.5591C136.284 20.5591 136.475 20.6738 136.609 20.9032C136.762 21.1326 136.838 21.448 136.838 21.8495C136.838 22.6141 136.657 23.2067 136.293 23.6272C135.471 24.6404 134.573 25.4719 133.598 26.1219C132.642 26.7718 131.553 27.0968 130.329 27.0968C128.647 27.0968 127.395 26.3321 126.573 24.8029C125.77 23.2736 125.369 21.2951 125.369 18.8674C125.369 16.5352 125.665 13.8781 126.258 10.8961C126.869 7.91398 127.758 5.35245 128.924 3.21147C130.109 1.07049 131.514 0 133.139 0C134.057 0 134.774 0.430108 135.29 1.29032C135.825 2.13142 136.093 3.34528 136.093 4.9319C136.093 7.20669 135.462 9.84468 134.2 12.8459C132.939 15.8471 131.228 18.8196 129.068 21.7634C129.201 22.5472 129.421 23.1111 129.727 23.4552C130.033 23.7802 130.434 23.9427 130.931 23.9427C131.715 23.9427 132.403 23.7228 132.996 23.2832C133.589 22.8244 134.344 22.0502 135.261 20.9606C135.491 20.693 135.749 20.5591 136.035 20.5591ZM132.508 2.83871C132.069 2.83871 131.572 3.63202 131.017 5.21864C130.463 6.80526 129.976 8.77419 129.555 11.1254C129.135 13.4767 128.905 15.7324 128.867 17.8925C130.224 15.6559 131.304 13.4194 132.107 11.1828C132.91 8.92712 133.311 6.87216 133.311 5.01792C133.311 3.56511 133.044 2.83871 132.508 2.83871Z" fill="#8BFF58"/>
<path d="M145.961 18.9247C146.497 18.9247 146.764 19.3262 146.764 20.129C146.764 21.6392 145.579 22.3943 143.209 22.3943C142.75 22.3943 142.09 22.3082 141.23 22.1362C141.479 23.3214 141.68 24.6404 141.832 26.0932C142.004 27.5269 142.09 28.7121 142.09 29.6487C142.09 31.7133 141.756 33.2903 141.087 34.3799C140.418 35.4695 139.539 36.0143 138.449 36.0143C137.073 36.0143 136.088 35.0394 135.496 33.0896C134.922 31.1398 134.635 28.1959 134.635 24.2581C134.635 20.5878 135.027 16.8698 135.811 13.1039C136.614 9.319 137.703 6.19355 139.08 3.7276C140.475 1.24253 142.004 0 143.668 0C144.566 0 145.264 0.401434 145.761 1.2043C146.277 2.00717 146.535 3.08722 146.535 4.44445C146.535 8.93668 143.849 13.8303 138.478 19.1254C138.286 20.9988 138.191 22.6428 138.191 24.0573C138.191 26.0263 138.258 28.043 138.392 30.1075C138.525 32.1912 138.745 33.233 139.051 33.233C139.625 33.233 139.911 32.2389 139.911 30.2509C139.911 28.7599 139.806 27.3166 139.596 25.9211C139.405 24.5257 139.137 23.0538 138.793 21.5054C138.774 21.2569 138.85 20.9415 139.022 20.5591C139.214 20.1768 139.443 19.8423 139.711 19.5556C139.978 19.2688 140.217 19.1254 140.427 19.1254C140.81 19.1254 141.268 19.1446 141.804 19.1828C141.976 19.2019 142.177 19.2115 142.406 19.2115C143.171 19.2115 144.021 19.1446 144.958 19.0108C145.111 18.9916 145.273 18.9725 145.445 18.9534C145.617 18.9343 145.789 18.9247 145.961 18.9247ZM143.065 2.83871C142.721 2.83871 142.291 3.42174 141.775 4.58781C141.278 5.75388 140.781 7.30227 140.284 9.23298C139.787 11.1446 139.357 13.1708 138.994 15.3118C140.523 13.5723 141.699 11.7658 142.521 9.89247C143.343 8 143.763 6.23178 143.782 4.58781C143.782 3.42174 143.543 2.83871 143.065 2.83871Z" fill="#8BFF58"/>
</svg>
