<svg width="1981" height="1408" viewBox="0 0 1981 1408" fill="none" xmlns="http://www.w3.org/2000/svg">
<path d="M1848.76 108.367C1854.08 113.142 1860.24 117.075 1863.32 123.816C1864.72 127.748 1867.52 130.557 1868.64 134.77C1869.48 138.422 1872.83 138.984 1876.19 137.86C1883.75 135.613 1890.75 137.579 1896.91 142.354C1899.99 144.601 1903.35 144.601 1906.99 144.601C1913.71 144.32 1920.99 142.073 1926.87 147.41C1929.95 150.219 1934.43 152.185 1933.31 157.522C1932.47 162.016 1926.31 167.915 1920.99 168.196C1913.99 168.757 1907.27 169.319 1900.55 166.791C1896.91 165.387 1893.83 165.668 1890.19 167.072C1879.27 171.566 1868.64 172.69 1858.84 163.701C1856.6 161.454 1853.8 161.173 1850.72 162.016C1847.92 162.859 1845.12 162.578 1842.32 162.859C1832.8 163.701 1824.12 161.735 1816 156.117C1809.28 151.342 1801.72 150.781 1794.16 153.59C1786.04 156.679 1778.48 157.522 1769.8 154.432C1762.52 151.623 1754.12 152.747 1748.52 146.006C1746.56 143.478 1743.2 145.444 1740.4 146.287C1733.68 148.534 1726.68 150.219 1719.4 149.938C1711.28 149.657 1704.56 146.848 1699.52 140.388C1695.32 135.332 1695.04 135.613 1691.13 141.231C1687.77 146.006 1683.57 149.376 1677.69 149.657C1673.49 149.938 1670.13 151.904 1667.05 154.713C1656.13 165.106 1643.81 166.51 1630.09 160.612C1624.21 158.084 1618.61 157.522 1612.17 158.084C1603.77 158.645 1595.37 160.331 1586.69 159.488C1583.05 159.207 1580.25 157.803 1577.45 156.117C1573.53 153.59 1570.73 154.713 1567.09 157.241C1556.73 163.982 1546.09 171.004 1532.37 168.196C1529.01 167.634 1526.21 169.319 1523.41 170.162C1509.14 175.498 1495.42 174.937 1482.26 166.791C1478.62 164.544 1475.54 165.668 1472.18 167.634C1462.38 173.532 1452.02 174.094 1441.38 171.004C1436.62 169.6 1432.42 166.791 1432.42 161.173C1432.42 155.837 1437.18 153.87 1441.1 151.904C1448.1 148.253 1455.94 148.253 1463.5 149.095C1467.98 149.657 1472.18 149.095 1476.1 147.691C1490.1 142.354 1504.1 143.197 1518.1 147.129C1526.21 149.376 1526.77 149.657 1530.41 142.354C1533.21 136.736 1537.41 132.804 1542.73 129.714C1543.01 129.153 1543.57 128.591 1543.85 128.31C1546.93 127.748 1550.01 126.906 1553.09 127.186C1559.81 127.467 1565.13 126.625 1566.81 118.479C1567.65 114.547 1571.57 112.019 1575.49 110.333C1579.13 108.929 1579.69 106.963 1578.29 103.03C1571.85 84.2111 1574.65 74.3802 1590.05 61.4595C1592.01 59.7742 1593.41 57.5271 1594.53 55.28C1604.61 34.7755 1624.77 27.7534 1645.49 37.0226C1649.41 38.7079 1653.33 38.1461 1657.53 37.8652C1674.61 37.0226 1690.85 38.427 1705.4 48.5388C1714.36 54.9991 1721.36 62.8639 1725.56 72.9757C1728.08 78.5934 1730.04 79.9978 1735.92 76.3464C1752.16 66.5154 1771.48 65.111 1786.6 83.3685C1788.56 85.8964 1791.08 86.7391 1793.88 87.3008C1802.56 88.7053 1810.12 92.9185 1815.44 99.9406C1817.4 102.749 1820.2 103.873 1823.56 103.592C1832.52 102.749 1840.92 104.716 1848.76 108.367Z" fill="#FEFEFE"/>
<path d="M1438.3 181.389C1434.38 175.771 1427.38 171.558 1431.02 163.131C1439.7 175.209 1451.18 174.648 1464.62 172.681C1474.69 171.277 1486.17 169.873 1496.25 173.524C1509.41 178.299 1522.01 179.704 1534.89 173.243C1538.25 171.558 1542.17 171.558 1546.09 172.962C1554.77 176.052 1562.61 174.929 1570.45 169.873C1577.73 165.098 1586.13 165.378 1593.69 169.311C1610.21 177.456 1627.01 179.423 1644.65 174.086C1647.16 173.243 1649.68 172.681 1652.2 171.839C1660.6 169.03 1668.16 169.592 1675.44 175.771C1680.76 180.265 1688.04 181.951 1695.04 181.108C1706.8 179.984 1718.84 181.108 1730.6 181.389C1744.88 181.67 1757.76 177.456 1769.8 170.434C1775.4 167.064 1780.72 165.098 1787.16 167.626C1791.36 169.311 1796.12 168.468 1800.6 167.064C1804.24 165.94 1807.88 166.221 1811.8 166.221C1820.48 166.502 1827.75 169.592 1835.31 173.524C1849.03 180.827 1864.15 179.704 1877.59 174.648C1889.91 170.153 1901.39 169.03 1913.43 171.558C1913.99 171.558 1914.27 171.839 1914.83 171.839C1928.27 173.243 1931.91 170.154 1931.91 156.671C1931.91 155.267 1931.63 153.862 1932.75 152.739C1934.15 154.424 1935.27 155.828 1936.67 157.514C1937.51 176.052 1931.91 182.512 1913.15 181.67C1898.03 180.827 1884.87 186.445 1870.87 190.096C1853.79 190.377 1836.43 190.658 1819.92 185.883C1817.68 185.321 1814.6 185.883 1812.08 186.445C1804.24 188.13 1796.4 187.006 1788.84 184.479C1785.76 183.636 1782.96 183.355 1779.88 185.04C1741.8 204.421 1702.88 201.612 1663.96 189.254C1660.6 188.13 1657.8 187.849 1654.44 188.973C1631.21 197.399 1607.97 197.68 1585.01 187.287C1582.49 186.164 1579.97 186.164 1577.45 187.568C1575.77 188.411 1573.81 189.815 1572.13 189.534C1551.41 187.568 1531.81 195.995 1511.37 194.871C1499.89 194.309 1489.25 191.22 1479.73 185.04C1475.53 182.231 1471.34 181.389 1466.3 183.074C1457.34 185.883 1447.54 185.04 1438.3 181.389Z" fill="#C6E0E5"/>
<path d="M1933.31 152.737C1933.03 156.95 1936.39 160.04 1936.11 164.534C1935.83 170.432 1933.31 173.522 1927.43 174.645C1917.91 176.331 1908.39 175.488 1899.15 172.96C1894.39 171.556 1891.03 174.364 1887.11 175.769C1866.11 183.072 1845.67 185.038 1825.8 172.398C1819.08 168.185 1810.4 168.185 1802.28 170.151C1796.12 171.556 1789.96 172.398 1784.08 169.87C1780.44 168.185 1777.64 169.59 1774.84 171.556C1756.36 183.634 1736.2 186.723 1714.92 183.634C1708.48 182.791 1702.32 184.757 1695.88 184.476C1686.92 184.195 1678.52 182.229 1671.24 176.331C1667.32 173.241 1663.69 172.117 1658.37 173.522C1646.61 176.892 1635.13 181.106 1622.25 179.982C1612.17 179.139 1602.65 177.173 1593.69 172.398C1586.41 168.466 1579.13 168.185 1572.13 172.96C1564.01 178.578 1555.33 179.701 1546.37 176.05C1542.17 174.364 1538.53 174.926 1534.89 176.612C1522.85 182.791 1510.53 182.229 1498.49 176.892C1496.81 176.05 1494.57 174.084 1493.45 174.645C1483.66 178.859 1473.86 173.241 1463.78 175.488C1454.82 177.454 1445.58 179.139 1437.18 172.679C1433.82 170.151 1431.3 167.062 1431.58 162.567C1430.74 155.826 1436.62 154.422 1439.98 150.77C1448.38 147.962 1457.06 147.119 1466.02 148.243C1467.98 148.523 1470.5 148.242 1472.18 147.681C1488.69 141.22 1505.21 141.501 1521.73 146.557C1526.21 147.962 1527.61 145.715 1529.29 142.625C1532.37 136.726 1535.45 130.828 1543.29 129.704C1538.53 135.603 1532.65 140.659 1529.01 147.681C1527.33 151.051 1523.13 149.928 1519.77 148.804C1504.93 143.748 1490.09 143.468 1475.26 149.366C1471.62 150.77 1467.98 150.77 1464.06 150.209C1455.94 148.523 1448.1 149.928 1440.82 154.141C1438.02 155.826 1435.22 157.792 1435.22 161.163C1435.22 164.534 1438.58 166.219 1441.38 167.342C1453.14 171.837 1464.34 170.432 1474.42 162.848C1476.94 161.163 1478.62 159.478 1481.7 162.006C1494.57 172.96 1509.13 172.398 1523.97 166.5C1528.45 164.815 1532.93 163.129 1537.41 165.938C1538.25 166.5 1540.21 166.781 1540.77 166.219C1548.61 160.601 1559.53 162.006 1565.97 154.141C1569.89 149.085 1574.09 149.085 1578.57 153.017C1582.21 156.107 1586.69 157.792 1591.17 156.669C1599.29 154.422 1607.69 156.388 1616.09 154.422C1621.41 153.017 1626.45 155.826 1631.21 157.792C1644.65 163.691 1655.57 162.006 1665.64 151.894C1668.72 148.804 1671.52 146.838 1676 146.838C1683.56 146.557 1688.04 142.625 1689.72 135.041C1690.28 132.794 1690.28 130.547 1692.8 129.985C1695.32 129.423 1695.88 131.951 1696.72 133.356C1710.44 151.332 1721.92 149.366 1740.96 142.625C1746.28 140.659 1749.92 139.816 1752.72 145.715C1753 146.557 1753.84 147.681 1754.68 147.681C1765.6 149.366 1776.24 156.95 1787.72 152.456C1801.16 147.119 1812.64 149.085 1824.4 157.512C1831.96 162.848 1840.92 160.882 1849.31 159.197C1854.63 158.073 1858.27 158.354 1861.91 162.567C1868.63 169.87 1877.87 168.747 1885.71 165.657C1892.15 163.129 1897.47 161.725 1903.91 164.815C1909.23 167.342 1915.39 166.5 1920.71 165.657C1926.03 164.815 1930.23 160.32 1930.51 155.545C1930.79 150.209 1924.63 148.243 1920.43 145.995C1920.15 145.995 1919.87 145.995 1919.59 145.995C1907.83 147.4 1896.91 144.872 1886.27 139.816C1884.59 138.973 1882.63 138.973 1880.67 138.973C1868.07 139.535 1865.27 137.007 1862.75 124.368C1867.23 129.704 1878.15 134.198 1884.87 137.007C1895.79 141.501 1906.43 144.591 1918.75 143.468C1925.19 142.625 1929.67 147.681 1933.31 152.737Z" fill="#E3EFF7"/>
<path d="M341.958 379.758C343.774 381.388 345.877 382.731 346.928 385.032C347.406 386.375 348.362 387.334 348.745 388.772C349.031 390.019 350.178 390.21 351.325 389.827C353.906 389.06 356.296 389.731 358.399 391.361C359.45 392.128 360.597 392.128 361.84 392.128C364.134 392.032 366.619 391.265 368.626 393.087C369.678 394.046 371.207 394.717 370.825 396.539C370.538 398.074 368.435 400.087 366.619 400.183C364.229 400.375 361.935 400.567 359.641 399.704C358.399 399.224 357.347 399.32 356.105 399.8C352.377 401.334 348.745 401.717 345.399 398.649C344.634 397.882 343.679 397.786 342.627 398.074C341.671 398.361 340.715 398.265 339.76 398.361C336.51 398.649 333.547 397.978 330.775 396.06C328.481 394.43 325.9 394.238 323.319 395.197C320.547 396.252 317.966 396.539 315.003 395.484C312.518 394.526 309.651 394.909 307.739 392.608C307.07 391.745 305.923 392.416 304.967 392.704C302.673 393.471 300.283 394.046 297.798 393.95C295.026 393.854 292.732 392.895 291.012 390.69C289.578 388.964 289.482 389.06 288.144 390.978C286.997 392.608 285.563 393.758 283.556 393.854C282.122 393.95 280.975 394.621 279.924 395.58C276.196 399.128 271.99 399.608 267.307 397.594C265.299 396.731 263.388 396.539 261.189 396.731C258.322 396.923 255.454 397.498 252.491 397.211C251.249 397.115 250.293 396.635 249.337 396.06C247.999 395.197 247.043 395.58 245.8 396.443C242.264 398.745 238.631 401.142 233.948 400.183C232.801 399.991 231.845 400.567 230.889 400.854C226.014 402.676 221.331 402.485 216.838 399.704C215.596 398.937 214.544 399.32 213.397 399.991C210.052 402.005 206.515 402.197 202.883 401.142C201.258 400.663 199.824 399.704 199.824 397.786C199.824 395.964 201.449 395.293 202.787 394.621C205.177 393.375 207.853 393.375 210.434 393.663C211.963 393.854 213.397 393.663 214.735 393.183C219.515 391.361 224.294 391.649 229.073 392.991C231.845 393.758 232.036 393.854 233.279 391.361C234.235 389.443 235.668 388.101 237.484 387.046C237.58 386.854 237.771 386.662 237.867 386.567C238.918 386.375 239.97 386.087 241.021 386.183C243.315 386.279 245.131 385.991 245.705 383.21C245.991 381.868 247.33 381.005 248.668 380.429C249.91 379.95 250.102 379.279 249.624 377.936C247.425 371.511 248.381 368.155 253.638 363.744C254.307 363.169 254.785 362.402 255.168 361.635C258.609 354.634 265.491 352.237 272.564 355.402C273.902 355.977 275.24 355.785 276.674 355.689C282.505 355.402 288.049 355.881 293.019 359.333C296.078 361.539 298.467 364.224 299.901 367.676C300.761 369.594 301.43 370.073 303.438 368.826C308.981 365.47 315.577 364.991 320.738 371.224C321.407 372.087 322.268 372.374 323.224 372.566C326.187 373.046 328.767 374.484 330.584 376.881C331.253 377.84 332.208 378.224 333.355 378.128C336.414 377.84 339.282 378.512 341.958 379.758Z" fill="#FEFEFE"/>
<path d="M201.833 404.69C200.494 402.772 198.105 401.334 199.347 398.457C202.31 402.581 206.229 402.389 210.817 401.718C214.258 401.238 218.177 400.759 221.618 402.005C226.111 403.635 230.412 404.115 234.809 401.909C235.956 401.334 237.294 401.334 238.632 401.813C241.596 402.868 244.272 402.485 246.948 400.759C249.434 399.129 252.301 399.224 254.882 400.567C260.521 403.348 266.256 404.019 272.278 402.197C273.138 401.909 273.999 401.718 274.859 401.43C277.726 400.471 280.307 400.663 282.792 402.772C284.609 404.307 287.094 404.882 289.483 404.594C293.498 404.211 297.608 404.594 301.623 404.69C306.497 404.786 310.894 403.348 315.004 400.95C316.916 399.8 318.732 399.129 320.931 399.992C322.364 400.567 323.989 400.279 325.519 399.8C326.761 399.416 328.004 399.512 329.342 399.512C332.305 399.608 334.79 400.663 337.371 402.005C342.055 404.498 347.216 404.115 351.804 402.389C356.01 400.855 359.929 400.471 364.039 401.334C364.23 401.334 364.326 401.43 364.517 401.43C369.105 401.909 370.348 400.855 370.348 396.252C370.348 395.772 370.252 395.293 370.634 394.909C371.112 395.485 371.495 395.964 371.973 396.539C372.259 402.868 370.348 405.074 363.943 404.786C358.782 404.498 354.289 406.416 349.51 407.663C343.68 407.759 337.753 407.855 332.114 406.224C331.349 406.033 330.298 406.224 329.438 406.416C326.761 406.992 324.085 406.608 321.504 405.745C320.453 405.457 319.497 405.361 318.445 405.937C305.446 412.553 292.16 411.594 278.873 407.375C277.726 406.992 276.771 406.896 275.624 407.279C267.69 410.156 259.757 410.252 251.919 406.704C251.058 406.32 250.198 406.32 249.338 406.8C248.764 407.087 248.095 407.567 247.522 407.471C240.449 406.8 233.758 409.677 226.78 409.293C222.861 409.101 219.229 408.046 215.979 405.937C214.545 404.978 213.111 404.69 211.391 405.266C208.332 406.224 204.987 405.937 201.833 404.69Z" fill="#C6E0E5"/>
<path d="M370.826 394.907C370.731 396.345 371.878 397.4 371.782 398.935C371.687 400.948 370.826 402.003 368.819 402.387C365.569 402.962 362.319 402.674 359.165 401.811C357.54 401.332 356.393 402.291 355.055 402.77C347.886 405.263 340.909 405.935 334.122 401.62C331.828 400.181 328.865 400.181 326.093 400.852C323.99 401.332 321.887 401.62 319.88 400.757C318.637 400.181 317.682 400.661 316.726 401.332C310.417 405.455 303.535 406.51 296.271 405.455C294.072 405.168 291.969 405.839 289.771 405.743C286.712 405.647 283.845 404.976 281.36 402.962C280.021 401.907 278.779 401.524 276.963 402.003C272.948 403.154 269.029 404.592 264.632 404.209C261.191 403.921 257.941 403.25 254.883 401.62C252.398 400.277 249.912 400.181 247.523 401.811C244.751 403.729 241.788 404.113 238.729 402.866C237.295 402.291 236.053 402.483 234.81 403.058C230.7 405.168 226.494 404.976 222.384 403.154C221.811 402.866 221.046 402.195 220.664 402.387C217.318 403.825 213.973 401.907 210.532 402.674C207.473 403.346 204.319 403.921 201.451 401.715C200.304 400.852 199.444 399.798 199.539 398.263C199.253 395.962 201.26 395.482 202.407 394.236C205.274 393.277 208.238 392.989 211.296 393.373C211.965 393.469 212.826 393.373 213.399 393.181C219.039 390.975 224.678 391.071 230.318 392.797C231.847 393.277 232.325 392.51 232.898 391.455C233.95 389.441 235.001 387.427 237.678 387.044C236.053 389.058 234.045 390.784 232.803 393.181C232.229 394.332 230.795 393.948 229.648 393.565C224.583 391.839 219.517 391.743 214.451 393.756C213.208 394.236 211.965 394.236 210.627 394.044C207.855 393.469 205.179 393.948 202.694 395.387C201.738 395.962 200.782 396.633 200.782 397.784C200.782 398.935 201.929 399.51 202.885 399.893C206.899 401.428 210.723 400.948 214.164 398.359C215.024 397.784 215.598 397.208 216.649 398.072C221.046 401.811 226.016 401.62 231.082 399.606C232.612 399.03 234.141 398.455 235.67 399.414C235.957 399.606 236.626 399.702 236.817 399.51C239.494 397.592 243.221 398.072 245.42 395.387C246.758 393.66 248.192 393.66 249.721 395.003C250.964 396.058 252.493 396.633 254.022 396.25C256.794 395.482 259.662 396.154 262.529 395.482C264.346 395.003 266.066 395.962 267.691 396.633C272.279 398.647 276.007 398.072 279.448 394.619C280.499 393.565 281.455 392.893 282.984 392.893C285.565 392.797 287.095 391.455 287.668 388.866C287.859 388.099 287.859 387.332 288.72 387.14C289.58 386.948 289.771 387.811 290.058 388.29C294.741 394.428 298.66 393.756 305.16 391.455C306.976 390.784 308.219 390.496 309.175 392.51C309.27 392.797 309.557 393.181 309.844 393.181C313.571 393.756 317.204 396.345 321.123 394.811C325.711 392.989 329.63 393.66 333.644 396.537C336.225 398.359 339.284 397.688 342.151 397.113C343.967 396.729 345.21 396.825 346.452 398.263C348.746 400.757 351.901 400.373 354.577 399.318C356.776 398.455 358.592 397.976 360.79 399.03C362.606 399.893 364.709 399.606 366.525 399.318C368.341 399.03 369.775 397.496 369.871 395.866C369.966 394.044 367.863 393.373 366.43 392.606C366.334 392.606 366.238 392.606 366.143 392.606C362.128 393.085 358.401 392.222 354.768 390.496C354.195 390.208 353.526 390.208 352.857 390.208C348.555 390.4 347.6 389.537 346.739 385.222C348.269 387.044 351.996 388.578 354.29 389.537C358.018 391.071 361.65 392.126 365.856 391.743C368.055 391.455 369.584 393.181 370.826 394.907Z" fill="#E3EFF7"/>
<path d="M265.398 100.757C268.198 103.27 271.44 105.34 273.061 108.888C273.797 110.957 275.271 112.436 275.86 114.653C276.303 116.575 278.071 116.871 279.839 116.279C283.818 115.097 287.502 116.132 290.744 118.645C292.365 119.827 294.133 119.827 296.049 119.827C299.585 119.68 303.417 118.497 306.511 121.306C308.132 122.784 310.49 123.819 309.901 126.628C309.459 128.993 306.217 132.098 303.417 132.245C299.733 132.541 296.196 132.837 292.66 131.506C290.744 130.767 289.123 130.915 287.207 131.654C281.46 134.019 275.86 134.611 270.703 129.88C269.524 128.697 268.05 128.55 266.429 128.993C264.956 129.437 263.482 129.289 262.009 129.437C256.998 129.88 252.43 128.845 248.157 125.889C244.62 123.375 240.641 123.08 236.663 124.558C232.389 126.184 228.411 126.628 223.842 125.002C220.011 123.523 215.59 124.115 212.643 120.567C211.611 119.236 209.843 120.271 208.37 120.714C204.833 121.897 201.149 122.784 197.318 122.636C193.044 122.488 189.507 121.01 186.855 117.61C184.645 114.949 184.497 115.097 182.434 118.053C180.666 120.567 178.455 122.341 175.361 122.488C173.15 122.636 171.382 123.671 169.761 125.149C164.014 130.619 157.53 131.358 150.31 128.254C147.215 126.923 144.268 126.628 140.879 126.923C136.458 127.219 132.037 128.106 127.469 127.663C125.553 127.515 124.08 126.776 122.606 125.889C120.543 124.558 119.069 125.149 117.154 126.48C111.701 130.028 106.102 133.724 98.881 132.245C97.1127 131.95 95.6391 132.837 94.1655 133.28C86.6501 136.089 79.4295 135.793 72.5036 131.506C70.5879 130.324 68.9669 130.915 67.1986 131.95C62.041 135.054 56.5887 135.35 50.989 133.724C48.4839 132.985 46.2734 131.506 46.2734 128.55C46.2734 125.741 48.7786 124.706 50.8416 123.671C54.5256 121.749 58.6517 121.749 62.6304 122.193C64.9882 122.488 67.1986 122.193 69.2616 121.454C76.6296 118.645 83.9976 119.088 91.3656 121.158C95.6391 122.341 95.9338 122.488 97.8495 118.645C99.3231 115.688 101.533 113.618 104.333 111.992C104.481 111.697 104.775 111.401 104.923 111.253C106.544 110.957 108.165 110.514 109.786 110.662C113.322 110.81 116.122 110.366 117.006 106.079C117.448 104.009 119.511 102.679 121.574 101.792C123.49 101.053 123.785 100.018 123.048 97.9481C119.659 88.0432 121.132 82.8691 129.237 76.0687C130.269 75.1817 131.005 73.9991 131.595 72.8164C136.9 62.0245 147.51 58.3287 158.414 63.2072C160.478 64.0942 162.541 63.7986 164.751 63.6507C173.74 63.2072 182.287 63.9464 189.95 69.2684C194.665 72.6686 198.349 76.8079 200.559 82.1299C201.886 85.0866 202.917 85.8257 206.012 83.9039C214.559 78.7297 224.727 77.9906 232.684 87.5997C233.715 88.9302 235.042 89.3737 236.515 89.6694C241.083 90.4086 245.062 92.6261 247.862 96.3219C248.894 97.8003 250.367 98.3916 252.135 98.2438C256.851 97.8003 261.272 98.8351 265.398 100.757Z" fill="#FEFEFE"/>
<path d="M49.3668 139.192C47.3038 136.235 43.6198 134.017 45.5354 129.582C50.1036 135.939 56.1453 135.644 63.2186 134.609C68.5236 133.869 74.5654 133.13 79.8703 135.052C86.7962 137.565 93.4274 138.305 100.206 134.904C101.974 134.017 104.037 134.017 106.1 134.756C110.669 136.383 114.795 135.791 118.921 133.13C122.752 130.617 127.173 130.765 131.152 132.835C139.846 137.122 148.687 138.157 157.971 135.348C159.297 134.904 160.624 134.609 161.95 134.165C166.371 132.687 170.349 132.982 174.181 136.235C176.98 138.6 180.812 139.487 184.496 139.044C190.685 138.452 197.021 139.044 203.211 139.192C210.726 139.339 217.504 137.122 223.841 133.426C226.788 131.652 229.588 130.617 232.977 131.948C235.188 132.835 237.693 132.391 240.051 131.652C241.966 131.061 243.882 131.208 245.945 131.208C250.513 131.356 254.344 132.982 258.323 135.052C265.544 138.896 273.501 138.305 280.574 135.643C287.058 133.278 293.1 132.687 299.437 134.017C299.731 134.017 299.879 134.165 300.173 134.165C307.247 134.904 309.162 133.278 309.162 126.182C309.162 125.443 309.015 124.704 309.604 124.112C310.341 124.999 310.931 125.738 311.667 126.626C312.109 136.383 309.162 139.783 299.289 139.339C291.332 138.896 284.406 141.853 277.038 143.774C268.049 143.922 258.913 144.07 250.218 141.557C249.039 141.261 247.419 141.557 246.092 141.853C241.966 142.74 237.84 142.148 233.861 140.818C232.24 140.374 230.767 140.226 229.146 141.113C209.105 151.314 188.622 149.836 168.139 143.331C166.371 142.74 164.897 142.592 163.129 143.183C150.898 147.618 138.667 147.766 126.583 142.296C125.257 141.705 123.931 141.705 122.605 142.444C121.721 142.887 120.689 143.627 119.805 143.479C108.9 142.444 98.585 146.879 87.8277 146.288C81.786 145.992 76.1863 144.366 71.176 141.113C68.9656 139.635 66.7553 139.192 64.1028 140.079C59.3873 141.557 54.2297 141.113 49.3668 139.192Z" fill="#C6E0E5"/>
<path d="M309.901 124.113C309.753 126.33 311.522 127.956 311.374 130.322C311.227 133.426 309.901 135.052 306.806 135.644C301.796 136.531 296.786 136.087 291.923 134.757C289.418 134.018 287.649 135.496 285.586 136.235C274.534 140.079 263.777 141.114 253.315 134.461C249.778 132.244 245.21 132.244 240.936 133.278C237.694 134.018 234.452 134.461 231.358 133.131C229.442 132.244 227.969 132.983 226.495 134.018C216.769 140.374 206.159 142.001 194.96 140.374C191.571 139.931 188.329 140.966 184.94 140.818C180.224 140.67 175.803 139.635 171.972 136.531C169.909 134.905 167.993 134.313 165.193 135.052C159.004 136.826 152.962 139.044 146.184 138.453C140.879 138.009 135.869 136.974 131.153 134.461C127.322 132.391 123.49 132.244 119.806 134.757C115.533 137.713 110.965 138.305 106.249 136.383C104.039 135.496 102.123 135.792 100.208 136.679C93.8711 139.931 87.3873 139.635 81.0508 136.826C80.1666 136.383 78.9878 135.348 78.3983 135.644C73.2407 137.861 68.0831 134.905 62.7782 136.087C58.0627 137.122 53.1998 138.009 48.779 134.609C47.0107 133.278 45.6844 131.652 45.8318 129.287C45.3897 125.739 48.4843 125 50.2526 123.078C54.6734 121.6 59.2415 121.156 63.957 121.747C64.9886 121.895 66.3148 121.747 67.199 121.452C75.8932 118.052 84.5874 118.199 93.2817 120.86C95.6394 121.6 96.3762 120.417 97.2604 118.791C98.8813 115.686 100.502 112.582 104.628 111.99C102.123 115.095 99.0287 117.756 97.113 121.452C96.2289 123.226 94.0185 122.634 92.2502 122.043C84.4401 119.382 76.63 119.234 68.8199 122.339C66.9043 123.078 64.9886 123.078 62.9255 122.782C58.6521 121.895 54.526 122.634 50.6946 124.852C49.221 125.739 47.7474 126.774 47.7474 128.548C47.7474 130.322 49.5158 131.209 50.9894 131.8C57.1785 134.165 63.0729 133.426 68.3778 129.435C69.7041 128.548 70.5882 127.661 72.2092 128.991C78.9878 134.757 86.6505 134.461 94.4606 131.357C96.8183 130.47 99.1761 129.583 101.534 131.061C101.976 131.357 103.007 131.504 103.302 131.209C107.428 128.252 113.175 128.991 116.565 124.852C118.628 122.191 120.838 122.191 123.196 124.261C125.111 125.887 127.469 126.774 129.827 126.182C134.1 125 138.521 126.035 142.942 125C145.742 124.261 148.394 125.739 150.899 126.774C157.973 129.878 163.72 128.991 169.025 123.669C170.646 122.043 172.119 121.008 174.477 121.008C178.456 120.86 180.813 118.791 181.698 114.799C181.992 113.617 181.992 112.434 183.319 112.138C184.645 111.843 184.94 113.173 185.382 113.912C192.602 123.374 198.644 122.339 208.665 118.791C211.464 117.756 213.38 117.312 214.854 120.417C215.001 120.86 215.443 121.452 215.885 121.452C221.632 122.339 227.232 126.33 233.274 123.965C240.347 121.156 246.389 122.191 252.578 126.626C256.556 129.435 261.272 128.4 265.693 127.513C268.493 126.922 270.408 127.069 272.324 129.287C275.861 133.131 280.723 132.539 284.85 130.913C288.239 129.583 291.039 128.843 294.428 130.47C297.228 131.8 300.47 131.357 303.27 130.913C306.069 130.47 308.28 128.104 308.427 125.591C308.575 122.782 305.333 121.747 303.122 120.565C302.975 120.565 302.827 120.565 302.68 120.565C296.491 121.304 290.744 119.973 285.144 117.312C284.26 116.869 283.229 116.869 282.197 116.869C275.566 117.165 274.092 115.834 272.766 109.182C275.124 111.99 280.871 114.356 284.408 115.834C290.155 118.199 295.754 119.826 302.238 119.234C305.627 118.791 307.985 121.452 309.901 124.113Z" fill="#E3EFF7"/>
<path d="M426.398 730.775C429.198 733.288 432.439 735.358 434.06 738.906C434.797 740.975 436.271 742.454 436.86 744.671C437.302 746.593 439.071 746.889 440.839 746.297C444.818 745.115 448.502 746.149 451.744 748.663C453.365 749.845 455.133 749.845 457.049 749.845C460.585 749.697 464.417 748.515 467.511 751.324C469.132 752.802 471.49 753.837 470.9 756.646C470.458 759.011 467.216 762.115 464.417 762.263C460.733 762.559 457.196 762.855 453.659 761.524C451.744 760.785 450.123 760.933 448.207 761.672C442.46 764.037 436.86 764.629 431.703 759.898C430.524 758.715 429.05 758.567 427.429 759.011C425.956 759.454 424.482 759.307 423.008 759.454C417.998 759.898 413.43 758.863 409.157 755.906C405.62 753.393 401.641 753.098 397.663 754.576C393.389 756.202 389.41 756.646 384.842 755.019C381.011 753.541 376.59 754.132 373.643 750.584C372.611 749.254 370.843 750.289 369.369 750.732C365.833 751.915 362.149 752.802 358.317 752.654C354.044 752.506 350.507 751.028 347.855 747.628C345.644 744.967 345.497 745.115 343.434 748.071C341.666 750.584 339.455 752.358 336.361 752.506C334.15 752.654 332.382 753.689 330.761 755.167C325.014 760.637 318.53 761.376 311.31 758.272C308.215 756.941 305.268 756.646 301.879 756.941C297.458 757.237 293.037 758.124 288.469 757.68C286.553 757.533 285.08 756.793 283.606 755.906C281.543 754.576 280.069 755.167 278.154 756.498C272.701 760.046 267.102 763.742 259.881 762.263C258.113 761.968 256.639 762.855 255.165 763.298C247.65 766.107 240.429 765.811 233.504 761.524C231.588 760.341 229.967 760.933 228.199 761.968C223.041 765.072 217.589 765.368 211.989 763.742C209.484 763.002 207.273 761.524 207.273 758.567C207.273 755.759 209.779 754.724 211.842 753.689C215.526 751.767 219.652 751.767 223.63 752.211C225.988 752.506 228.199 752.211 230.262 751.471C237.63 748.663 244.998 749.106 252.366 751.176C256.639 752.358 256.934 752.506 258.849 748.663C260.323 745.706 262.533 743.636 265.333 742.01C265.481 741.714 265.775 741.419 265.923 741.271C267.544 740.975 269.165 740.532 270.786 740.68C274.322 740.827 277.122 740.384 278.006 736.097C278.448 734.027 280.511 732.697 282.574 731.81C284.49 731.07 284.785 730.036 284.048 727.966C280.659 718.061 282.132 712.887 290.237 706.087C291.269 705.2 292.005 704.017 292.595 702.834C297.9 692.042 308.51 688.347 319.414 693.225C321.477 694.112 323.54 693.816 325.751 693.669C334.74 693.225 343.287 693.964 350.949 699.286C355.665 702.686 359.349 706.826 361.559 712.148C362.886 715.104 363.917 715.844 367.012 713.922C375.559 708.748 385.726 708.008 393.684 717.618C394.715 718.948 396.042 719.392 397.515 719.687C402.083 720.426 406.062 722.644 408.862 726.34C409.893 727.818 411.367 728.409 413.135 728.262C417.851 727.818 422.272 728.853 426.398 730.775Z" fill="#FEFEFE"/>
<path d="M210.367 769.209C208.304 766.252 204.62 764.035 206.535 759.6C211.104 765.957 217.145 765.661 224.219 764.626C229.524 763.887 235.565 763.148 240.87 765.07C247.796 767.583 254.427 768.322 261.206 764.922C262.974 764.035 265.037 764.035 267.1 764.774C271.669 766.4 275.795 765.809 279.921 763.148C283.752 760.635 288.173 760.783 292.152 762.852C300.846 767.139 309.687 768.174 318.971 765.365C320.297 764.922 321.624 764.626 322.95 764.183C327.371 762.704 331.349 763 335.181 766.252C337.981 768.618 341.812 769.505 345.496 769.061C351.685 768.47 358.021 769.061 364.211 769.209C371.726 769.357 378.505 767.139 384.841 763.444C387.788 761.67 390.588 760.635 393.977 761.965C396.188 762.852 398.693 762.409 401.051 761.67C402.966 761.078 404.882 761.226 406.945 761.226C411.513 761.374 415.345 763 419.323 765.07C426.544 768.913 434.501 768.322 441.575 765.661C448.058 763.296 454.1 762.704 460.437 764.035C460.731 764.035 460.879 764.183 461.173 764.183C468.247 764.922 470.162 763.296 470.162 756.2C470.162 755.461 470.015 754.721 470.605 754.13C471.341 755.017 471.931 755.756 472.668 756.643C473.11 766.4 470.162 769.8 460.289 769.357C452.332 768.913 445.406 771.87 438.038 773.792C429.049 773.94 419.913 774.087 411.218 771.574C410.04 771.279 408.419 771.574 407.092 771.87C402.966 772.757 398.84 772.166 394.862 770.835C393.241 770.392 391.767 770.244 390.146 771.131C370.105 781.331 349.622 779.853 329.139 773.348C327.371 772.757 325.897 772.609 324.129 773.2C311.898 777.635 299.667 777.783 287.583 772.313C286.257 771.722 284.931 771.722 283.605 772.461C282.721 772.905 281.689 773.644 280.805 773.496C269.9 772.461 259.585 776.896 248.828 776.305C242.786 776.009 237.186 774.383 232.176 771.131C229.966 769.653 227.755 769.209 225.103 770.096C220.387 771.574 215.23 771.131 210.367 769.209Z" fill="#C6E0E5"/>
<path d="M470.901 754.131C470.753 756.348 472.522 757.974 472.374 760.34C472.227 763.444 470.901 765.07 467.806 765.662C462.796 766.549 457.786 766.105 452.923 764.775C450.418 764.035 448.649 765.514 446.586 766.253C435.534 770.097 424.777 771.131 414.315 764.479C410.778 762.261 406.21 762.261 401.936 763.296C398.694 764.035 395.453 764.479 392.358 763.148C390.442 762.261 388.969 763.001 387.495 764.035C377.769 770.392 367.159 772.018 355.96 770.392C352.571 769.949 349.329 770.984 345.94 770.836C341.224 770.688 336.803 769.653 332.972 766.549C330.909 764.922 328.993 764.331 326.193 765.07C320.004 766.844 313.962 769.062 307.184 768.47C301.879 768.027 296.869 766.992 292.153 764.479C288.322 762.409 284.49 762.261 280.806 764.775C276.533 767.731 271.965 768.323 267.249 766.401C265.039 765.514 263.123 765.809 261.208 766.696C254.871 769.949 248.387 769.653 242.051 766.844C241.167 766.401 239.988 765.366 239.398 765.662C234.241 767.879 229.083 764.922 223.778 766.105C219.063 767.14 214.2 768.027 209.779 764.627C208.011 763.296 206.684 761.67 206.832 759.305C206.39 755.757 209.484 755.018 211.253 753.096C215.673 751.617 220.242 751.174 224.957 751.765C225.989 751.913 227.315 751.765 228.199 751.47C236.893 748.069 245.587 748.217 254.282 750.878C256.639 751.617 257.376 750.435 258.26 748.809C259.881 745.704 261.502 742.6 265.628 742.008C263.123 745.113 260.029 747.774 258.113 751.47C257.229 753.244 255.018 752.652 253.25 752.061C245.44 749.4 237.63 749.252 229.82 752.357C227.904 753.096 225.989 753.096 223.926 752.8C219.652 751.913 215.526 752.652 211.695 754.87C210.221 755.757 208.747 756.792 208.747 758.566C208.747 760.34 210.516 761.227 211.989 761.818C218.178 764.183 224.073 763.444 229.378 759.453C230.704 758.566 231.588 757.679 233.209 759.009C239.988 764.775 247.65 764.479 255.461 761.374C257.818 760.487 260.176 759.6 262.534 761.079C262.976 761.374 264.007 761.522 264.302 761.227C268.428 758.27 274.175 759.009 277.565 754.87C279.628 752.209 281.838 752.209 284.196 754.278C286.111 755.905 288.469 756.792 290.827 756.2C295.1 755.018 299.521 756.052 303.942 755.018C306.742 754.278 309.394 755.757 311.899 756.792C318.973 759.896 324.72 759.009 330.025 753.687C331.646 752.061 333.119 751.026 335.477 751.026C339.456 750.878 341.813 748.809 342.698 744.817C342.992 743.634 342.992 742.452 344.319 742.156C345.645 741.86 345.94 743.191 346.382 743.93C353.602 753.391 359.644 752.357 369.665 748.809C372.464 747.774 374.38 747.33 375.854 750.435C376.001 750.878 376.443 751.47 376.885 751.47C382.632 752.357 388.232 756.348 394.274 753.983C401.347 751.174 407.389 752.209 413.578 756.644C417.557 759.453 422.272 758.418 426.693 757.531C429.493 756.939 431.408 757.087 433.324 759.305C436.861 763.148 441.724 762.557 445.85 760.931C449.239 759.6 452.039 758.861 455.428 760.487C458.228 761.818 461.47 761.374 464.27 760.931C467.069 760.487 469.28 758.122 469.427 755.609C469.575 752.8 466.333 751.765 464.122 750.583C463.975 750.583 463.828 750.583 463.68 750.583C457.491 751.322 451.744 749.991 446.144 747.33C445.26 746.887 444.229 746.887 443.197 746.887C436.566 747.182 435.092 745.852 433.766 739.199C436.124 742.008 441.871 744.374 445.408 745.852C451.155 748.217 456.754 749.843 463.238 749.252C466.627 748.809 468.985 751.47 470.901 754.131Z" fill="#E3EFF7"/>
<path d="M1017.4 393.695C1020.2 396.208 1023.44 398.278 1025.06 401.826C1025.8 403.896 1027.27 405.374 1027.86 407.592C1028.3 409.513 1030.07 409.809 1031.84 409.218C1035.82 408.035 1039.5 409.07 1042.74 411.583C1044.36 412.766 1046.13 412.766 1048.05 412.766C1051.59 412.618 1055.42 411.435 1058.51 414.244C1060.13 415.722 1062.49 416.757 1061.9 419.566C1061.46 421.931 1058.22 425.036 1055.42 425.184C1051.73 425.479 1048.2 425.775 1044.66 424.445C1042.74 423.705 1041.12 423.853 1039.21 424.592C1033.46 426.958 1027.86 427.549 1022.7 422.818C1021.52 421.636 1020.05 421.488 1018.43 421.931C1016.96 422.375 1015.48 422.227 1014.01 422.375C1009 422.818 1004.43 421.784 1000.16 418.827C996.62 416.314 992.641 416.018 988.662 417.496C984.389 419.123 980.41 419.566 975.842 417.94C972.011 416.462 967.59 417.053 964.643 413.505C963.611 412.174 961.843 413.209 960.369 413.653C956.833 414.835 953.149 415.722 949.317 415.575C945.044 415.427 941.507 413.948 938.855 410.548C936.644 407.887 936.497 408.035 934.434 410.992C932.666 413.505 930.455 415.279 927.361 415.427C925.15 415.575 923.382 416.609 921.761 418.088C916.014 423.558 909.53 424.297 902.31 421.192C899.215 419.862 896.268 419.566 892.879 419.862C888.458 420.157 884.037 421.044 879.469 420.601C877.553 420.453 876.079 419.714 874.606 418.827C872.543 417.496 871.069 418.088 869.154 419.418C863.701 422.966 858.102 426.662 850.881 425.184C849.113 424.888 847.639 425.775 846.165 426.219C838.65 429.027 831.429 428.732 824.504 424.445C822.588 423.262 820.967 423.853 819.199 424.888C814.041 427.993 808.589 428.288 802.989 426.662C800.484 425.923 798.273 424.445 798.273 421.488C798.273 418.679 800.779 417.644 802.842 416.609C806.526 414.688 810.652 414.688 814.63 415.131C816.988 415.427 819.199 415.131 821.262 414.392C828.63 411.583 835.998 412.027 843.366 414.096C847.639 415.279 847.934 415.427 849.849 411.583C851.323 408.626 853.533 406.557 856.333 404.931C856.481 404.635 856.775 404.339 856.923 404.191C858.544 403.896 860.165 403.452 861.786 403.6C865.322 403.748 868.122 403.304 869.006 399.017C869.448 396.947 871.511 395.617 873.574 394.73C875.49 393.991 875.785 392.956 875.048 390.886C871.659 380.981 873.132 375.807 881.237 369.007C882.269 368.12 883.005 366.937 883.595 365.755C888.9 354.963 899.51 351.267 910.414 356.145C912.477 357.032 914.54 356.737 916.751 356.589C925.74 356.145 934.287 356.885 941.949 362.207C946.665 365.607 950.349 369.746 952.559 375.068C953.886 378.025 954.917 378.764 958.012 376.842C966.558 371.668 976.726 370.929 984.684 380.538C985.715 381.868 987.041 382.312 988.515 382.608C993.083 383.347 997.062 385.564 999.862 389.26C1000.89 390.738 1002.37 391.33 1004.14 391.182C1008.85 390.738 1013.27 391.773 1017.4 393.695Z" fill="#FEFEFE"/>
<path d="M801.367 432.129C799.304 429.173 795.62 426.955 797.535 422.52C802.104 428.877 808.145 428.581 815.219 427.547C820.524 426.807 826.565 426.068 831.87 427.99C838.796 430.503 845.427 431.242 852.206 427.842C853.974 426.955 856.037 426.955 858.1 427.694C862.669 429.321 866.795 428.729 870.921 426.068C874.752 423.555 879.173 423.703 883.152 425.773C891.846 430.06 900.687 431.095 909.971 428.286C911.297 427.842 912.624 427.547 913.95 427.103C918.371 425.625 922.349 425.92 926.181 429.173C928.98 431.538 932.812 432.425 936.496 431.982C942.685 431.39 949.021 431.982 955.211 432.129C962.726 432.277 969.504 430.06 975.841 426.364C978.788 424.59 981.588 423.555 984.977 424.886C987.188 425.773 989.693 425.329 992.051 424.59C993.966 423.999 995.882 424.146 997.945 424.146C1002.51 424.294 1006.34 425.92 1010.32 427.99C1017.54 431.834 1025.5 431.242 1032.57 428.581C1039.06 426.216 1045.1 425.625 1051.44 426.955C1051.73 426.955 1051.88 427.103 1052.17 427.103C1059.25 427.842 1061.16 426.216 1061.16 419.12C1061.16 418.381 1061.01 417.642 1061.6 417.051C1062.34 417.938 1062.93 418.677 1063.67 419.564C1064.11 429.321 1061.16 432.721 1051.29 432.277C1043.33 431.834 1036.41 434.79 1029.04 436.712C1020.05 436.86 1010.91 437.008 1002.22 434.495C1001.04 434.199 999.419 434.495 998.092 434.79C993.966 435.677 989.84 435.086 985.861 433.756C984.24 433.312 982.767 433.164 981.146 434.051C961.105 444.252 940.622 442.773 920.139 436.269C918.371 435.677 916.897 435.53 915.129 436.121C902.898 440.556 890.667 440.704 878.583 435.234C877.257 434.643 875.931 434.643 874.605 435.382C873.721 435.825 872.689 436.564 871.805 436.417C860.9 435.382 850.585 439.817 839.828 439.225C833.786 438.93 828.186 437.304 823.176 434.051C820.966 432.573 818.755 432.129 816.103 433.016C811.387 434.495 806.23 434.051 801.367 432.129Z" fill="#C6E0E5"/>
<path d="M1061.9 417.051C1061.75 419.268 1063.52 420.895 1063.37 423.26C1063.23 426.364 1061.9 427.99 1058.81 428.582C1053.8 429.469 1048.79 429.025 1043.92 427.695C1041.42 426.956 1039.65 428.434 1037.59 429.173C1026.53 433.017 1015.78 434.052 1005.31 427.399C1001.78 425.182 997.21 425.182 992.936 426.216C989.694 426.956 986.453 427.399 983.358 426.069C981.442 425.182 979.969 425.921 978.495 426.956C968.769 433.312 958.159 434.939 946.96 433.312C943.571 432.869 940.329 433.904 936.94 433.756C932.224 433.608 927.803 432.573 923.972 429.469C921.909 427.843 919.993 427.251 917.193 427.99C911.004 429.764 904.962 431.982 898.184 431.391C892.879 430.947 887.869 429.912 883.153 427.399C879.322 425.329 875.49 425.182 871.806 427.695C867.533 430.651 862.965 431.243 858.249 429.321C856.039 428.434 854.123 428.73 852.208 429.617C845.871 432.869 839.387 432.573 833.051 429.764C832.167 429.321 830.988 428.286 830.398 428.582C825.241 430.799 820.083 427.843 814.778 429.025C810.063 430.06 805.2 430.947 800.779 427.547C799.011 426.216 797.684 424.59 797.832 422.225C797.39 418.677 800.484 417.938 802.253 416.016C806.673 414.538 811.242 414.094 815.957 414.686C816.989 414.833 818.315 414.686 819.199 414.39C827.893 410.99 836.587 411.138 845.282 413.799C847.639 414.538 848.376 413.355 849.26 411.729C850.881 408.624 852.502 405.52 856.628 404.929C854.123 408.033 851.029 410.694 849.113 414.39C848.229 416.164 846.018 415.573 844.25 414.981C836.44 412.32 828.63 412.172 820.82 415.277C818.904 416.016 816.989 416.016 814.926 415.72C810.652 414.833 806.526 415.573 802.695 417.79C801.221 418.677 799.747 419.712 799.747 421.486C799.747 423.26 801.516 424.147 802.989 424.738C809.178 427.103 815.073 426.364 820.378 422.373C821.704 421.486 822.588 420.599 824.209 421.929C830.988 427.695 838.65 427.399 846.461 424.295C848.818 423.408 851.176 422.521 853.534 423.999C853.976 424.295 855.007 424.442 855.302 424.147C859.428 421.19 865.175 421.929 868.565 417.79C870.628 415.129 872.838 415.129 875.196 417.199C877.111 418.825 879.469 419.712 881.827 419.121C886.1 417.938 890.521 418.973 894.942 417.938C897.742 417.199 900.394 418.677 902.899 419.712C909.973 422.816 915.72 421.929 921.025 416.607C922.646 414.981 924.119 413.946 926.477 413.946C930.456 413.799 932.813 411.729 933.698 407.737C933.992 406.555 933.992 405.372 935.319 405.077C936.645 404.781 936.94 406.111 937.382 406.85C944.602 416.312 950.644 415.277 960.665 411.729C963.464 410.694 965.38 410.251 966.854 413.355C967.001 413.799 967.443 414.39 967.885 414.39C973.632 415.277 979.232 419.268 985.274 416.903C992.347 414.094 998.389 415.129 1004.58 419.564C1008.56 422.373 1013.27 421.338 1017.69 420.451C1020.49 419.86 1022.41 420.008 1024.32 422.225C1027.86 426.069 1032.72 425.477 1036.85 423.851C1040.24 422.521 1043.04 421.782 1046.43 423.408C1049.23 424.738 1052.47 424.295 1055.27 423.851C1058.07 423.408 1060.28 421.042 1060.43 418.529C1060.57 415.72 1057.33 414.686 1055.12 413.503C1054.97 413.503 1054.83 413.503 1054.68 413.503C1048.49 414.242 1042.74 412.912 1037.14 410.251C1036.26 409.807 1035.23 409.807 1034.2 409.807C1027.57 410.103 1026.09 408.772 1024.77 402.12C1027.12 404.929 1032.87 407.294 1036.41 408.772C1042.15 411.138 1047.75 412.764 1054.24 412.172C1057.63 411.729 1059.99 414.39 1061.9 417.051Z" fill="#E3EFF7"/>
<path d="M202.966 1102.9C200.353 1105.31 197.087 1107.27 195.78 1110.77C195.127 1112.73 193.603 1114.26 193.167 1116.23C192.732 1118.2 190.99 1118.2 189.248 1117.76C185.329 1116.67 181.845 1117.54 178.796 1119.94C177.272 1121.04 175.53 1121.04 173.788 1121.04C170.304 1120.82 166.82 1119.72 163.772 1122.56C162.248 1123.88 160.07 1124.97 160.506 1127.81C160.941 1130.21 163.99 1133.05 166.603 1133.27C170.086 1133.49 173.57 1133.92 176.836 1132.61C178.578 1131.96 180.32 1132.18 182.062 1132.83C187.506 1135.02 192.95 1135.67 197.74 1131.08C198.829 1129.99 200.353 1129.77 201.877 1130.21C203.183 1130.65 204.708 1130.43 206.232 1130.65C211.022 1131.08 215.377 1129.99 219.514 1127.15C222.78 1124.75 226.7 1124.53 230.401 1125.84C234.539 1127.37 238.458 1127.81 242.595 1126.28C246.297 1124.97 250.434 1125.4 253.265 1121.91C254.353 1120.6 256.095 1121.69 257.402 1122.13C260.886 1123.22 264.37 1124.09 268.071 1124.09C272.208 1123.88 275.474 1122.56 278.087 1119.29C280.265 1116.67 280.265 1116.88 282.225 1119.72C283.966 1122.13 285.926 1123.88 288.975 1123.88C291.152 1124.09 292.894 1124.97 294.418 1126.5C299.862 1131.74 306.176 1132.39 312.926 1129.55C315.757 1128.24 318.588 1128.03 321.854 1128.24C326.209 1128.46 330.346 1129.34 334.701 1128.9C336.443 1128.68 337.967 1128.03 339.273 1127.15C341.233 1125.84 342.757 1126.5 344.499 1127.59C349.725 1131.08 355.169 1134.36 361.919 1133.05C363.443 1132.61 364.967 1133.49 366.491 1134.14C373.677 1136.76 380.645 1136.54 387.177 1132.39C389.137 1131.3 390.661 1131.74 392.185 1132.83C397.193 1135.89 402.419 1136.11 407.863 1134.58C410.258 1133.92 412.435 1132.39 412.435 1129.55C412.435 1126.93 410.04 1125.84 408.08 1124.75C404.597 1122.78 400.677 1123 396.758 1123.44C394.58 1123.66 392.403 1123.44 390.443 1122.56C383.475 1119.94 376.29 1120.38 369.322 1122.35C365.185 1123.44 364.967 1123.66 363.225 1119.94C361.919 1117.1 359.741 1115.14 357.128 1113.61C356.911 1113.39 356.693 1113.17 356.475 1112.95C354.951 1112.73 353.427 1112.3 351.903 1112.3C348.419 1112.52 345.806 1112.08 344.935 1107.93C344.499 1105.96 342.54 1104.65 340.58 1103.78C338.838 1102.9 338.402 1102.03 339.056 1100.06C342.322 1090.45 340.798 1085.65 333.177 1079.09C332.088 1078.22 331.435 1077.13 330.781 1076.04C325.773 1065.77 315.539 1062.06 305.088 1066.86C303.128 1067.73 301.168 1067.52 298.991 1067.3C290.499 1066.86 282.225 1067.52 274.821 1072.76C270.249 1076.04 266.765 1079.97 264.587 1084.99C263.281 1087.83 262.192 1088.49 259.361 1086.74C251.087 1081.72 241.506 1081.06 233.885 1090.23C232.797 1091.55 231.708 1091.98 230.184 1092.2C225.829 1093.07 222.127 1095.04 219.297 1098.54C218.426 1100.06 217.119 1100.5 215.595 1100.5C211.022 1100.06 206.885 1100.94 202.966 1102.9Z" fill="#FEFEFE"/>
<path d="M160.294 1125.17C160.512 1127.36 158.77 1128.89 158.988 1131.07C159.205 1134.13 160.294 1135.66 163.343 1136.1C168.133 1136.97 172.923 1136.53 177.496 1135.22C179.891 1134.57 181.633 1135.88 183.593 1136.75C194.044 1140.46 204.496 1141.56 214.512 1135C217.996 1132.82 222.351 1133.04 226.27 1133.91C229.319 1134.57 232.367 1135 235.416 1133.69C237.158 1132.82 238.682 1133.69 240.206 1134.57C249.569 1140.68 259.803 1142.21 270.472 1140.68C273.739 1140.25 276.787 1141.34 280.053 1141.12C284.626 1140.9 288.763 1140.03 292.465 1136.97C294.424 1135.44 296.166 1134.78 298.997 1135.66C304.876 1137.41 310.755 1139.59 317.287 1138.94C322.295 1138.5 327.304 1137.62 331.658 1135.22C335.36 1133.26 339.062 1133.04 342.546 1135.44C346.683 1138.28 351.038 1138.72 355.61 1136.97C357.788 1136.1 359.53 1136.31 361.489 1137.41C367.586 1140.46 373.683 1140.25 379.78 1137.41C380.651 1136.97 381.739 1136.1 382.393 1136.31C387.401 1138.28 392.409 1135.66 397.199 1136.75C401.772 1137.84 406.344 1138.72 410.699 1135.44C412.441 1134.13 413.53 1132.6 413.53 1130.2C413.965 1126.92 410.917 1126.05 409.175 1124.3C404.82 1122.77 400.465 1122.55 396.111 1122.99C395.022 1123.21 393.933 1122.99 392.844 1122.55C384.57 1119.28 376.296 1119.49 367.804 1121.9C365.626 1122.55 364.755 1121.46 363.884 1119.93C362.36 1116.87 360.836 1114.03 356.917 1113.38C359.312 1116.44 362.36 1118.84 364.102 1122.55C364.973 1124.3 367.151 1123.64 368.675 1122.99C376.296 1120.59 383.699 1120.37 391.102 1123.21C392.844 1123.86 394.804 1124.08 396.764 1123.64C400.901 1122.77 404.82 1123.64 408.522 1125.61C409.828 1126.48 411.353 1127.58 411.353 1129.11C411.353 1130.85 409.611 1131.73 408.304 1132.16C402.425 1134.57 396.764 1133.69 391.756 1129.98C390.449 1129.11 389.578 1128.23 388.054 1129.54C381.522 1135 374.336 1134.78 366.715 1131.95C364.32 1131.07 362.36 1130.2 359.965 1131.73C359.53 1131.95 358.659 1132.16 358.223 1131.95C354.304 1129.11 348.642 1129.98 345.594 1125.83C343.634 1123.21 341.457 1123.21 339.279 1125.17C337.537 1126.7 335.142 1127.58 332.965 1126.92C328.828 1125.83 324.691 1126.7 320.553 1125.83C317.941 1125.17 315.328 1126.48 312.932 1127.58C306.182 1130.63 300.739 1129.76 295.513 1124.52C293.989 1122.99 292.465 1121.9 290.287 1121.9C286.368 1121.9 284.19 1119.71 283.319 1116C283.102 1114.91 283.102 1113.6 281.795 1113.38C280.489 1113.16 280.271 1114.47 279.835 1115.12C272.868 1124.08 267.206 1123.21 257.626 1119.71C255.013 1118.84 253.053 1118.4 251.746 1121.24C251.529 1121.68 251.093 1122.12 250.875 1122.33C245.432 1123.21 239.988 1126.92 234.327 1124.74C227.577 1122.12 221.698 1123.21 215.819 1127.36C212.117 1129.98 207.544 1129.11 203.19 1128.23C200.577 1127.79 198.835 1127.79 196.875 1129.98C193.391 1133.69 188.819 1133.26 184.899 1131.51C181.633 1130.2 179.02 1129.54 175.754 1131.07C173.141 1132.38 170.093 1131.95 167.262 1131.51C164.649 1131.07 162.472 1128.67 162.254 1126.48C162.036 1123.64 165.302 1122.77 167.48 1121.68C167.48 1121.68 167.697 1121.68 167.915 1121.68C173.794 1122.33 179.456 1121.02 184.681 1118.4C185.552 1117.96 186.641 1117.96 187.512 1117.96C193.827 1118.18 195.351 1117.09 196.44 1110.54C194.044 1113.16 188.819 1115.56 185.335 1116.87C179.891 1119.06 174.447 1120.8 168.351 1120.15C164.431 1119.93 162.254 1122.55 160.294 1125.17Z" fill="#E3EFF7"/>
<path d="M959.398 693.656C962.198 696.169 965.44 698.239 967.061 701.787C967.797 703.856 969.271 705.335 969.86 707.552C970.302 709.474 972.071 709.77 973.839 709.178C977.818 707.996 981.502 709.031 984.744 711.544C986.365 712.726 988.133 712.726 990.049 712.726C993.585 712.579 997.417 711.396 1000.51 714.205C1002.13 715.683 1004.49 716.718 1003.9 719.527C1003.46 721.892 1000.22 724.997 997.417 725.144C993.733 725.44 990.196 725.736 986.659 724.405C984.744 723.666 983.123 723.814 981.207 724.553C975.46 726.918 969.86 727.51 964.703 722.779C963.524 721.596 962.05 721.449 960.429 721.892C958.956 722.336 957.482 722.188 956.009 722.336C950.998 722.779 946.43 721.744 942.157 718.788C938.62 716.274 934.641 715.979 930.663 717.457C926.389 719.083 922.41 719.527 917.842 717.901C914.011 716.422 909.59 717.014 906.643 713.466C905.611 712.135 903.843 713.17 902.369 713.613C898.833 714.796 895.149 715.683 891.317 715.535C887.044 715.387 883.507 713.909 880.855 710.509C878.645 707.848 878.497 707.996 876.434 710.952C874.666 713.466 872.455 715.24 869.361 715.387C867.15 715.535 865.382 716.57 863.761 718.048C858.014 723.518 851.53 724.257 844.31 721.153C841.215 719.822 838.268 719.527 834.879 719.822C830.458 720.118 826.037 721.005 821.469 720.562C819.553 720.414 818.08 719.675 816.606 718.788C814.543 717.457 813.069 718.048 811.154 719.379C805.701 722.927 800.102 726.623 792.881 725.144C791.113 724.849 789.639 725.736 788.165 726.179C780.65 728.988 773.429 728.692 766.504 724.405C764.588 723.223 762.967 723.814 761.199 724.849C756.041 727.953 750.589 728.249 744.989 726.623C742.484 725.884 740.273 724.405 740.273 721.449C740.273 718.64 742.779 717.605 744.842 716.57C748.526 714.648 752.652 714.648 756.63 715.092C758.988 715.387 761.199 715.092 763.262 714.353C770.63 711.544 777.998 711.987 785.366 714.057C789.639 715.24 789.934 715.387 791.849 711.544C793.323 708.587 795.533 706.517 798.333 704.891C798.481 704.596 798.775 704.3 798.923 704.152C800.544 703.856 802.165 703.413 803.786 703.561C807.322 703.709 810.122 703.265 811.006 698.978C811.448 696.908 813.511 695.578 815.574 694.691C817.49 693.952 817.785 692.917 817.048 690.847C813.659 680.942 815.132 675.768 823.237 668.968C824.269 668.081 825.005 666.898 825.595 665.715C830.9 654.923 841.51 651.228 852.414 656.106C854.477 656.993 856.54 656.697 858.751 656.55C867.74 656.106 876.287 656.845 883.949 662.167C888.665 665.567 892.349 669.707 894.559 675.029C895.886 677.986 896.917 678.725 900.012 676.803C908.559 671.629 918.726 670.889 926.684 680.499C927.715 681.829 929.042 682.273 930.515 682.568C935.083 683.308 939.062 685.525 941.862 689.221C942.894 690.699 944.367 691.291 946.135 691.143C950.851 690.699 955.272 691.734 959.398 693.656Z" fill="#FEFEFE"/>
<path d="M743.367 732.09C741.304 729.133 737.62 726.916 739.535 722.481C744.104 728.838 750.145 728.542 757.219 727.507C762.524 726.768 768.565 726.029 773.87 727.951C780.796 730.464 787.427 731.203 794.206 727.803C795.974 726.916 798.037 726.916 800.1 727.655C804.669 729.281 808.795 728.69 812.921 726.029C816.752 723.516 821.173 723.664 825.152 725.733C833.846 730.02 842.687 731.055 851.971 728.246C853.297 727.803 854.624 727.507 855.95 727.064C860.371 725.585 864.349 725.881 868.181 729.133C870.981 731.499 874.812 732.386 878.496 731.942C884.685 731.351 891.021 731.942 897.211 732.09C904.726 732.238 911.505 730.02 917.841 726.325C920.788 724.551 923.588 723.516 926.977 724.846C929.188 725.733 931.693 725.29 934.051 724.551C935.966 723.959 937.882 724.107 939.945 724.107C944.513 724.255 948.345 725.881 952.323 727.951C959.544 731.794 967.501 731.203 974.575 728.542C981.058 726.177 987.1 725.585 993.437 726.916C993.731 726.916 993.879 727.064 994.174 727.064C1001.25 727.803 1003.16 726.177 1003.16 719.081C1003.16 718.342 1003.02 717.603 1003.6 717.011C1004.34 717.898 1004.93 718.637 1005.67 719.524C1006.11 729.281 1003.16 732.681 993.289 732.238C985.332 731.794 978.406 734.751 971.038 736.673C962.049 736.821 952.913 736.969 944.218 734.455C943.04 734.16 941.419 734.455 940.092 734.751C935.966 735.638 931.84 735.047 927.862 733.716C926.241 733.273 924.767 733.125 923.146 734.012C903.105 744.212 882.622 742.734 862.139 736.229C860.371 735.638 858.897 735.49 857.129 736.082C844.898 740.517 832.667 740.664 820.583 735.195C819.257 734.603 817.931 734.603 816.605 735.342C815.721 735.786 814.689 736.525 813.805 736.377C802.9 735.342 792.585 739.777 781.828 739.186C775.786 738.89 770.186 737.264 765.176 734.012C762.966 732.534 760.755 732.09 758.103 732.977C753.387 734.455 748.23 734.012 743.367 732.09Z" fill="#C6E0E5"/>
<path d="M1003.9 717.012C1003.75 719.229 1005.52 720.855 1005.37 723.22C1005.23 726.325 1003.9 727.951 1000.81 728.542C995.796 729.429 990.786 728.986 985.923 727.655C983.418 726.916 981.649 728.395 979.586 729.134C968.534 732.977 957.777 734.012 947.315 727.36C943.778 725.142 939.21 725.142 934.936 726.177C931.694 726.916 928.452 727.36 925.358 726.029C923.442 725.142 921.969 725.881 920.495 726.916C910.769 733.273 900.159 734.899 888.96 733.273C885.571 732.829 882.329 733.864 878.94 733.716C874.224 733.569 869.803 732.534 865.972 729.429C863.909 727.803 861.993 727.212 859.193 727.951C853.004 729.725 846.962 731.942 840.184 731.351C834.879 730.908 829.869 729.873 825.153 727.36C821.322 725.29 817.49 725.142 813.806 727.655C809.533 730.612 804.965 731.203 800.249 729.282C798.039 728.395 796.123 728.69 794.208 729.577C787.871 732.829 781.387 732.534 775.051 729.725C774.167 729.282 772.988 728.247 772.398 728.542C767.241 730.76 762.083 727.803 756.778 728.986C752.063 730.021 747.2 730.908 742.779 727.508C741.011 726.177 739.684 724.551 739.832 722.186C739.39 718.638 742.484 717.899 744.253 715.977C748.673 714.498 753.242 714.055 757.957 714.646C758.989 714.794 760.315 714.646 761.199 714.351C769.893 710.95 778.587 711.098 787.282 713.759C789.639 714.498 790.376 713.316 791.26 711.69C792.881 708.585 794.502 705.481 798.628 704.889C796.123 707.994 793.029 710.655 791.113 714.351C790.229 716.125 788.018 715.533 786.25 714.942C778.44 712.281 770.63 712.133 762.82 715.238C760.904 715.977 758.989 715.977 756.926 715.681C752.652 714.794 748.526 715.533 744.695 717.751C743.221 718.638 741.747 719.672 741.747 721.446C741.747 723.22 743.516 724.107 744.989 724.699C751.178 727.064 757.073 726.325 762.378 722.333C763.704 721.446 764.588 720.559 766.209 721.89C772.988 727.655 780.65 727.36 788.461 724.255C790.818 723.368 793.176 722.481 795.534 723.96C795.976 724.255 797.007 724.403 797.302 724.107C801.428 721.151 807.175 721.89 810.565 717.751C812.628 715.09 814.838 715.09 817.196 717.159C819.111 718.785 821.469 719.672 823.827 719.081C828.1 717.899 832.521 718.933 836.942 717.899C839.742 717.159 842.394 718.638 844.899 719.672C851.973 722.777 857.72 721.89 863.025 716.568C864.646 714.942 866.119 713.907 868.477 713.907C872.456 713.759 874.813 711.69 875.698 707.698C875.992 706.516 875.992 705.333 877.319 705.037C878.645 704.742 878.939 706.072 879.382 706.811C886.602 716.272 892.644 715.238 902.664 711.69C905.464 710.655 907.38 710.211 908.854 713.316C909.001 713.759 909.443 714.351 909.885 714.351C915.632 715.238 921.232 719.229 927.274 716.864C934.347 714.055 940.389 715.09 946.578 719.525C950.556 722.333 955.272 721.299 959.693 720.412C962.493 719.82 964.408 719.968 966.324 722.186C969.861 726.029 974.723 725.438 978.85 723.812C982.239 722.481 985.039 721.742 988.428 723.368C991.228 724.699 994.47 724.255 997.27 723.812C1000.07 723.368 1002.28 721.003 1002.43 718.49C1002.57 715.681 999.333 714.646 997.122 713.464C996.975 713.464 996.827 713.464 996.68 713.464C990.491 714.203 984.744 712.872 979.144 710.211C978.26 709.768 977.229 709.768 976.197 709.768C969.566 710.063 968.092 708.733 966.766 702.081C969.124 704.889 974.871 707.255 978.407 708.733C984.154 711.098 989.754 712.724 996.238 712.133C999.627 711.69 1001.99 714.351 1003.9 717.012Z" fill="#E3EFF7"/>
<path d="M1780.85 472.936C1782.47 474.389 1784.35 475.585 1785.29 477.637C1785.72 478.834 1786.57 479.688 1786.91 480.971C1787.17 482.082 1788.2 482.253 1789.22 481.911C1791.53 481.227 1793.67 481.825 1795.55 483.279C1796.49 483.962 1797.51 483.962 1798.62 483.962C1800.68 483.877 1802.9 483.193 1804.69 484.817C1805.63 485.672 1807 486.27 1806.66 487.894C1806.4 489.262 1804.52 491.057 1802.9 491.143C1800.76 491.314 1798.71 491.484 1796.66 490.715C1795.55 490.288 1794.61 490.373 1793.5 490.801C1790.16 492.168 1786.91 492.51 1783.92 489.775C1783.24 489.091 1782.38 489.006 1781.44 489.262C1780.59 489.518 1779.73 489.433 1778.88 489.518C1775.97 489.775 1773.32 489.177 1770.84 487.467C1768.79 486.014 1766.48 485.843 1764.18 486.698C1761.7 487.638 1759.39 487.894 1756.74 486.954C1754.52 486.099 1751.95 486.441 1750.24 484.39C1749.65 483.62 1748.62 484.219 1747.77 484.475C1745.71 485.159 1743.58 485.672 1741.35 485.586C1738.88 485.501 1736.82 484.646 1735.29 482.68C1734 481.142 1733.92 481.227 1732.72 482.937C1731.69 484.39 1730.41 485.415 1728.62 485.501C1727.34 485.586 1726.31 486.185 1725.37 487.04C1722.04 490.202 1718.27 490.63 1714.09 488.835C1712.29 488.065 1710.58 487.894 1708.62 488.065C1706.05 488.236 1703.49 488.749 1700.84 488.493C1699.73 488.407 1698.87 487.98 1698.02 487.467C1696.82 486.698 1695.96 487.04 1694.85 487.809C1691.69 489.86 1688.44 491.997 1684.25 491.143C1683.23 490.972 1682.37 491.484 1681.52 491.741C1677.16 493.365 1672.97 493.194 1668.95 490.715C1667.84 490.031 1666.9 490.373 1665.88 490.972C1662.88 492.767 1659.72 492.938 1656.47 491.997C1655.02 491.57 1653.74 490.715 1653.74 489.006C1653.74 487.381 1655.19 486.783 1656.39 486.185C1658.53 485.074 1660.92 485.074 1663.23 485.33C1664.59 485.501 1665.88 485.33 1667.07 484.903C1671.35 483.279 1675.62 483.535 1679.89 484.732C1682.37 485.415 1682.54 485.501 1683.66 483.279C1684.51 481.569 1685.79 480.372 1687.42 479.432C1687.5 479.261 1687.67 479.09 1687.76 479.005C1688.7 478.834 1689.64 478.577 1690.58 478.663C1692.63 478.748 1694.26 478.492 1694.77 476.013C1695.02 474.816 1696.22 474.047 1697.42 473.534C1698.53 473.107 1698.7 472.508 1698.27 471.312C1696.31 465.585 1697.16 462.593 1701.86 458.661C1702.46 458.148 1702.89 457.464 1703.23 456.78C1706.31 450.54 1712.46 448.403 1718.79 451.224C1719.98 451.737 1721.18 451.566 1722.46 451.481C1727.68 451.224 1732.64 451.652 1737.08 454.729C1739.82 456.695 1741.95 459.088 1743.23 462.165C1744 463.875 1744.6 464.302 1746.4 463.191C1751.36 460.199 1757.25 459.772 1761.87 465.328C1762.47 466.097 1763.24 466.354 1764.09 466.525C1766.74 466.952 1769.05 468.234 1770.67 470.371C1771.27 471.226 1772.13 471.568 1773.15 471.483C1775.89 471.226 1778.45 471.824 1780.85 472.936Z" fill="#FEFEFE"/>
<path d="M1655.53 495.156C1654.34 493.447 1652.2 492.165 1653.31 489.6C1655.96 493.276 1659.47 493.105 1663.57 492.507C1666.65 492.079 1670.15 491.652 1673.23 492.763C1677.24 494.216 1681.09 494.644 1685.02 492.678C1686.05 492.165 1687.25 492.165 1688.44 492.592C1691.09 493.532 1693.49 493.19 1695.88 491.652C1698.1 490.199 1700.67 490.284 1702.97 491.481C1708.02 493.96 1713.15 494.558 1718.53 492.934C1719.3 492.678 1720.07 492.507 1720.84 492.25C1723.4 491.395 1725.71 491.566 1727.93 493.447C1729.56 494.815 1731.78 495.327 1733.92 495.071C1737.51 494.729 1741.18 495.071 1744.77 495.156C1749.13 495.242 1753.06 493.96 1756.74 491.823C1758.45 490.797 1760.07 490.199 1762.04 490.968C1763.32 491.481 1764.77 491.224 1766.14 490.797C1767.25 490.455 1768.36 490.541 1769.56 490.541C1772.21 490.626 1774.43 491.566 1776.74 492.763C1780.93 494.986 1785.55 494.644 1789.65 493.105C1793.41 491.737 1796.91 491.395 1800.59 492.165C1800.76 492.165 1800.85 492.25 1801.02 492.25C1805.12 492.678 1806.23 491.737 1806.23 487.634C1806.23 487.207 1806.15 486.779 1806.49 486.438C1806.92 486.95 1807.26 487.378 1807.69 487.891C1807.94 493.532 1806.23 495.498 1800.5 495.242C1795.89 494.986 1791.87 496.695 1787.6 497.806C1782.38 497.892 1777.08 497.977 1772.04 496.524C1771.36 496.353 1770.42 496.524 1769.65 496.695C1767.25 497.208 1764.86 496.866 1762.55 496.097C1761.61 495.84 1760.76 495.755 1759.82 496.268C1748.19 502.166 1736.31 501.311 1724.43 497.55C1723.4 497.208 1722.55 497.123 1721.52 497.464C1714.43 500.029 1707.33 500.114 1700.32 496.952C1699.55 496.61 1698.79 496.61 1698.02 497.037C1697.5 497.293 1696.9 497.721 1696.39 497.635C1690.07 497.037 1684.08 499.601 1677.84 499.26C1674.34 499.089 1671.09 498.148 1668.18 496.268C1666.9 495.413 1665.62 495.156 1664.08 495.669C1661.35 496.524 1658.35 496.268 1655.53 495.156Z" fill="#C6E0E5"/>
<path d="M1806.66 486.438C1806.57 487.72 1807.6 488.66 1807.51 490.028C1807.43 491.823 1806.66 492.763 1804.86 493.105C1801.96 493.618 1799.05 493.362 1796.23 492.592C1794.78 492.165 1793.75 493.02 1792.56 493.447C1786.14 495.669 1779.9 496.268 1773.84 492.421C1771.78 491.139 1769.13 491.139 1766.66 491.737C1764.78 492.165 1762.89 492.421 1761.1 491.652C1759.99 491.139 1759.13 491.567 1758.28 492.165C1752.64 495.84 1746.48 496.781 1739.99 495.84C1738.02 495.584 1736.14 496.182 1734.17 496.097C1731.44 496.011 1728.87 495.413 1726.65 493.618C1725.45 492.678 1724.34 492.336 1722.72 492.763C1719.13 493.789 1715.62 495.071 1711.69 494.729C1708.62 494.473 1705.71 493.874 1702.97 492.421C1700.75 491.225 1698.53 491.139 1696.39 492.592C1693.91 494.302 1691.26 494.644 1688.53 493.533C1687.25 493.02 1686.13 493.191 1685.02 493.703C1681.35 495.584 1677.59 495.413 1673.91 493.789C1673.4 493.533 1672.71 492.934 1672.37 493.105C1669.38 494.387 1666.39 492.678 1663.31 493.362C1660.58 493.96 1657.76 494.473 1655.19 492.507C1654.17 491.737 1653.4 490.797 1653.48 489.43C1653.23 487.378 1655.02 486.951 1656.05 485.84C1658.61 484.985 1661.26 484.728 1664 485.07C1664.59 485.156 1665.36 485.07 1665.88 484.899C1670.92 482.933 1675.96 483.019 1681.01 484.557C1682.37 484.985 1682.8 484.301 1683.31 483.361C1684.25 481.566 1685.19 479.771 1687.59 479.429C1686.13 481.224 1684.34 482.762 1683.23 484.899C1682.72 485.925 1681.43 485.583 1680.41 485.241C1675.88 483.703 1671.35 483.617 1666.82 485.412C1665.71 485.84 1664.59 485.84 1663.4 485.669C1660.92 485.156 1658.53 485.583 1656.3 486.865C1655.45 487.378 1654.59 487.976 1654.59 489.002C1654.59 490.028 1655.62 490.541 1656.47 490.883C1660.06 492.25 1663.48 491.823 1666.56 489.515C1667.33 489.002 1667.84 488.489 1668.78 489.259C1672.71 492.592 1677.16 492.421 1681.69 490.626C1683.06 490.113 1684.43 489.601 1685.79 490.455C1686.05 490.626 1686.65 490.712 1686.82 490.541C1689.21 488.831 1692.55 489.259 1694.51 486.865C1695.71 485.327 1696.99 485.327 1698.36 486.523C1699.47 487.464 1700.84 487.976 1702.2 487.635C1704.68 486.951 1707.25 487.549 1709.81 486.951C1711.44 486.523 1712.97 487.378 1714.43 487.976C1718.53 489.772 1721.86 489.259 1724.94 486.181C1725.88 485.241 1726.74 484.643 1728.1 484.643C1730.41 484.557 1731.78 483.361 1732.29 481.053C1732.46 480.369 1732.46 479.685 1733.23 479.514C1734 479.343 1734.17 480.113 1734.43 480.54C1738.62 486.011 1742.12 485.412 1747.94 483.361C1749.56 482.762 1750.67 482.506 1751.53 484.301C1751.61 484.557 1751.87 484.899 1752.12 484.899C1755.46 485.412 1758.71 487.72 1762.21 486.352C1766.31 484.728 1769.82 485.327 1773.41 487.891C1775.72 489.515 1778.45 488.917 1781.02 488.404C1782.64 488.062 1783.75 488.147 1784.86 489.43C1786.91 491.652 1789.73 491.31 1792.13 490.37C1794.09 489.601 1795.72 489.173 1797.68 490.113C1799.31 490.883 1801.19 490.626 1802.81 490.37C1804.44 490.113 1805.72 488.746 1805.8 487.293C1805.89 485.669 1804.01 485.07 1802.73 484.386C1802.64 484.386 1802.56 484.386 1802.47 484.386C1798.88 484.814 1795.55 484.045 1792.3 482.506C1791.79 482.25 1791.19 482.25 1790.59 482.25C1786.74 482.42 1785.89 481.651 1785.12 477.805C1786.49 479.429 1789.82 480.796 1791.87 481.651C1795.21 483.019 1798.45 483.959 1802.21 483.617C1804.18 483.361 1805.55 484.899 1806.66 486.438Z" fill="#E3EFF7"/>
</svg>
