<svg width="207" height="71" viewBox="0 0 207 71" fill="none" xmlns="http://www.w3.org/2000/svg">
<path d="M190.516 0.00023075H16.4935C15.8592 0.00023075 15.2324 0.00023075 14.5998 0.00378075C14.0702 0.00733075 13.5448 0.0176435 13.0101 0.0263232C11.8486 0.0403489 10.6897 0.145206 9.54371 0.339983C8.39929 0.539001 7.29072 0.914206 6.25549 1.45291C5.22153 1.99617 4.27677 2.70208 3.45548 3.54503C2.62988 4.38561 1.94168 5.35721 1.41735 6.42246C0.891561 7.4856 0.52698 8.62485 0.336195 9.80086C0.143596 10.9754 0.0399566 12.1635 0.0262071 13.3544C0.0101542 13.8986 0.00845893 14.4446 0 14.9889V56.0167C0.00845893 56.5679 0.0101542 57.1018 0.0262071 57.6531C0.0399608 58.844 0.1436 60.032 0.336195 61.2065C0.526453 62.3832 0.891056 63.5231 1.41735 64.5866C1.94145 65.6484 2.62974 66.6161 3.45548 67.452C4.27365 68.2987 5.21903 69.0051 6.25549 69.5442C7.29071 70.0843 8.39916 70.4618 9.54371 70.6639C10.6899 70.8571 11.8487 70.962 13.0101 70.9777C13.5448 70.9897 14.0702 70.9967 14.5998 70.9967C15.2324 71.0002 15.8592 71.0002 16.4935 71.0002H190.516C191.138 71.0002 191.769 71.0002 192.391 70.9967C192.918 70.9967 193.459 70.9897 193.986 70.9777C195.145 70.9628 196.302 70.8579 197.445 70.6639C198.594 70.4603 199.706 70.083 200.746 69.5442C201.782 69.0048 202.726 68.2984 203.544 67.452C204.367 66.6128 205.057 65.6459 205.588 64.5866C206.11 63.5223 206.471 62.3825 206.659 61.2065C206.852 60.0319 206.959 58.8441 206.98 57.6531C206.987 57.1018 206.987 56.5679 206.987 56.0167C207 55.3719 207 54.7306 207 54.0752V16.9269C207 16.2768 207 15.632 206.987 14.9889C206.987 14.4446 206.987 13.8986 206.98 13.3543C206.959 12.1633 206.852 10.9755 206.659 9.80079C206.471 8.62545 206.11 7.4863 205.588 6.42239C204.52 4.2872 202.827 2.54918 200.746 1.45275C199.706 0.915363 198.594 0.540257 197.445 0.339824C196.302 0.144188 195.145 0.0392945 193.986 0.0260747C193.459 0.0174127 192.918 0.00701125 192.391 0.00355C191.769 0 191.138 0 190.516 0V0.00023075Z" fill="#A6A6A6"/>
<path d="M14.602 69.4484C14.0749 69.4484 13.5606 69.4415 13.0377 69.4294C11.9544 69.415 10.8737 69.3182 9.80437 69.1399C8.80727 68.9637 7.84135 68.636 6.93847 68.1674C6.04386 67.7028 5.22791 67.0935 4.52188 66.363C3.80562 65.641 3.2093 64.8037 2.75655 63.8842C2.29882 62.9587 1.98204 61.9666 1.81725 60.9426C1.63929 59.8423 1.54301 58.7298 1.52923 57.6145C1.51826 57.2402 1.50391 55.9938 1.50391 55.9938V14.9903C1.50391 14.9903 1.5192 13.763 1.52932 13.4025C1.54251 12.289 1.63823 11.1781 1.81566 10.0795C1.98075 9.05273 2.29778 8.05784 2.75576 7.12931C3.20684 6.21041 3.79985 5.37246 4.51179 4.64794C5.22293 3.91654 6.04149 3.30413 6.93762 2.83306C7.83843 2.36603 8.80252 2.04056 9.7976 1.86757C10.8704 1.68752 11.9549 1.59018 13.0419 1.57636L14.6028 1.55469H192.376L193.956 1.57723C195.033 1.59036 196.107 1.68684 197.17 1.86583C198.176 2.04099 199.15 2.36873 200.061 2.83826C201.856 3.78761 203.317 5.28958 204.238 7.13364C204.689 8.05576 205.001 9.04254 205.164 10.0605C205.344 11.1681 205.444 12.2876 205.465 13.4103C205.47 13.9129 205.47 14.4529 205.47 14.9903C205.484 15.6559 205.484 16.2894 205.484 16.9282V54.0766C205.484 54.7214 205.484 55.3507 205.47 55.9851C205.47 56.5623 205.47 57.0911 205.463 57.6353C205.443 58.7379 205.344 59.8375 205.168 60.9252C205.006 61.9566 204.691 62.9564 204.233 63.8895C203.777 64.799 203.185 65.6291 202.477 66.3491C201.77 67.0836 200.953 67.6964 200.056 68.1641C199.147 68.6362 198.175 68.9652 197.17 69.1399C196.101 69.3191 195.02 69.4159 193.937 69.4294C193.43 69.4415 192.9 69.4484 192.385 69.4484L190.51 69.452L14.602 69.4484Z" fill="black"/>
<path d="M42.847 36.0363C42.8656 34.5548 43.2491 33.1022 43.9619 31.8136C44.6746 30.525 45.6934 29.4424 46.9235 28.6664C46.1421 27.5212 45.1112 26.5788 43.9127 25.914C42.7142 25.2492 41.3812 24.8802 40.0194 24.8365C37.1146 24.5237 34.2985 26.6201 32.8183 26.6201C31.3094 26.6201 29.0303 24.8676 26.5761 24.9194C24.9887 24.972 23.4416 25.4457 22.0856 26.2942C20.7296 27.1428 19.611 28.3373 18.8387 29.7614C15.4932 35.7048 17.9886 44.4397 21.1933 49.2439C22.7967 51.5964 24.6706 54.2242 27.1226 54.131C29.522 54.0289 30.4181 52.5611 33.3144 52.5611C36.1838 52.5611 37.0245 54.131 39.5263 54.0718C42.1009 54.0289 43.7231 51.7088 45.2702 49.334C46.4223 47.6578 47.3087 45.8052 47.8968 43.8448C46.401 43.1957 45.1246 42.109 44.2265 40.7205C43.3285 39.3319 42.8488 37.7028 42.847 36.0363V36.0363Z" fill="white"/>
<path d="M38.116 21.6802C39.5198 19.951 40.2114 17.7284 40.044 15.4844C37.8993 15.7155 35.9181 16.7673 34.4954 18.4302C33.7997 19.2425 33.2669 20.1876 32.9275 21.2114C32.588 22.2351 32.4485 23.3175 32.5169 24.3967C33.5897 24.408 34.6509 24.1694 35.6208 23.6989C36.5907 23.2283 37.4438 22.5381 38.116 21.6802Z" fill="white"/>
<path d="M73.1811 48.178H64.9931L63.0267 54.1357H59.5586L67.3142 32.0938H70.9174L78.673 54.1357H75.1457L73.1811 48.178ZM65.8411 45.4288H72.3315L69.1319 35.7599H69.0424L65.8411 45.4288Z" fill="white"/>
<path d="M95.4168 46.1056C95.4168 51.0995 92.8119 54.308 88.8809 54.308C87.8851 54.3615 86.8947 54.1261 86.0233 53.6289C85.1518 53.1316 84.4344 52.3926 83.9532 51.4964H83.8788V59.4562H80.6641V38.0695H83.7758V40.7424H83.8349C84.3382 39.8506 85.0678 39.1154 85.9459 38.6151C86.824 38.1148 87.8179 37.8682 88.8217 37.9014C92.7966 37.9014 95.4168 41.1255 95.4168 46.1056ZM92.1125 46.1056C92.1125 42.852 90.4739 40.713 87.9737 40.713C85.5175 40.713 83.8653 42.8971 83.8653 46.1056C83.8653 49.3436 85.5175 51.5121 87.9737 51.5121C90.4739 51.5121 92.1125 49.3886 92.1125 46.1056Z" fill="white"/>
<path d="M112.659 46.1056C112.659 51.0995 110.054 54.308 106.123 54.308C105.127 54.3615 104.137 54.1261 103.265 53.6288C102.394 53.1316 101.677 52.3926 101.195 51.4964H101.121V59.4562H97.9062V38.0695H101.018V40.7424H101.077C101.58 39.8506 102.31 39.1154 103.188 38.6151C104.066 38.1148 105.06 37.8682 106.064 37.9014C110.039 37.9014 112.659 41.1255 112.659 46.1056ZM109.355 46.1056C109.355 42.852 107.716 40.713 105.216 40.713C102.76 40.713 101.108 42.897 101.108 46.1056C101.108 49.3436 102.76 51.512 105.216 51.512C107.716 51.512 109.355 49.3886 109.355 46.1056H109.355Z" fill="white"/>
<path d="M124.053 47.9946C124.291 50.1804 126.36 51.6156 129.188 51.6156C131.898 51.6156 133.847 50.1803 133.847 48.2095C133.847 46.4986 132.671 45.4742 129.887 44.7721L127.103 44.084C123.159 43.1063 121.328 41.2135 121.328 38.1419C121.328 34.3388 124.558 31.7266 129.144 31.7266C133.683 31.7266 136.795 34.3388 136.9 38.1419H133.654C133.46 35.9422 131.688 34.6144 129.098 34.6144C126.509 34.6144 124.737 35.9578 124.737 37.9131C124.737 39.4714 125.868 40.3884 128.637 41.0903L131.004 41.6866C135.411 42.7561 137.243 44.5728 137.243 47.7968C137.243 51.9206 134.041 54.5034 128.95 54.5034C124.186 54.5034 120.97 51.9813 120.762 47.9944L124.053 47.9946Z" fill="white"/>
<path d="M144.183 34.2578V38.0609H147.161V40.6731H144.183V49.5325C144.183 50.9088 144.779 51.5502 146.088 51.5502C146.442 51.5439 146.795 51.5184 147.146 51.4739V54.0705C146.557 54.1834 145.959 54.2345 145.36 54.223C142.19 54.223 140.953 53.001 140.953 49.8843V40.6731H138.676V38.0609H140.953V34.2578H144.183Z" fill="white"/>
<path d="M148.883 46.1008C148.883 41.0445 151.785 37.8672 156.311 37.8672C160.852 37.8672 163.74 41.0444 163.74 46.1008C163.74 51.171 160.867 54.3345 156.311 54.3345C151.756 54.3345 148.883 51.171 148.883 46.1008ZM160.465 46.1008C160.465 42.6323 158.916 40.5852 156.311 40.5852C153.706 40.5852 152.158 42.6479 152.158 46.1008C152.158 49.5832 153.706 51.6148 156.311 51.6148C158.916 51.6148 160.465 49.5832 160.465 46.1008H160.465Z" fill="white"/>
<path d="M166.395 38.0694H169.461V40.8047H169.535C169.742 39.9504 170.23 39.1954 170.916 38.6667C171.602 38.1379 172.445 37.8676 173.302 37.9012C173.673 37.8999 174.042 37.9412 174.404 38.0243V41.1098C173.936 40.9631 173.448 40.8958 172.959 40.9104C172.492 40.891 172.027 40.9755 171.594 41.1581C171.162 41.3407 170.774 41.6171 170.455 41.9684C170.137 42.3197 169.897 42.7374 169.751 43.193C169.605 43.6486 169.556 44.1312 169.609 44.6077V54.1397H166.395L166.395 38.0694Z" fill="white"/>
<path d="M189.221 49.4151C188.789 52.3324 186.02 54.3345 182.478 54.3345C177.922 54.3345 175.094 51.2022 175.094 46.1771C175.094 41.1364 177.937 37.8672 182.343 37.8672C186.676 37.8672 189.4 40.9214 189.4 45.794V46.9242H178.339V47.1235C178.288 47.715 178.36 48.3108 178.551 48.8714C178.741 49.432 179.046 49.9446 179.444 50.3751C179.843 50.8056 180.326 51.1442 180.862 51.3684C181.398 51.5926 181.974 51.6973 182.552 51.6754C183.312 51.7485 184.074 51.5679 184.726 51.1607C185.377 50.7534 185.883 50.1412 186.169 49.4151L189.221 49.4151ZM178.354 44.6188H186.184C186.213 44.087 186.134 43.5548 185.953 43.0557C185.772 42.5565 185.492 42.1012 185.132 41.7182C184.771 41.3352 184.337 41.0329 183.857 40.8301C183.377 40.6274 182.861 40.5286 182.343 40.5401C181.819 40.5369 181.3 40.6401 180.816 40.8438C180.331 41.0474 179.891 41.3475 179.52 41.7267C179.149 42.1059 178.855 42.5567 178.655 43.0531C178.455 43.5495 178.353 44.0816 178.354 44.6188V44.6188Z" fill="white"/>
<path d="M65.4314 15.5042C66.1054 15.4546 66.7817 15.5591 67.4115 15.8101C68.0414 16.0611 68.6091 16.4525 69.0737 16.9559C69.5383 17.4594 69.8882 18.0623 70.0983 18.7213C70.3083 19.3803 70.3731 20.079 70.2881 20.7668C70.2881 24.1504 68.5059 26.0953 65.4314 26.0953H61.7031V15.5042H65.4314ZM63.3063 24.5975H65.2523C65.7339 24.6271 66.2159 24.546 66.6631 24.3604C67.1103 24.1747 67.5116 23.889 67.8377 23.5241C68.1637 23.1592 68.4064 22.7243 68.548 22.2511C68.6896 21.7778 68.7266 21.2781 68.6563 20.7884C68.7215 20.3006 68.6808 19.804 68.537 19.3342C68.3932 18.8644 68.1499 18.4331 67.8246 18.0711C67.4993 17.7091 67.1 17.4255 66.6553 17.2404C66.2105 17.0554 65.7315 16.9736 65.2523 17.0009H63.3063V24.5975Z" fill="white"/>
<path d="M72.0955 22.0924C72.0465 21.5671 72.1051 21.0372 72.2674 20.5365C72.4297 20.0358 72.6923 19.5755 73.0381 19.185C73.384 18.7946 73.8056 18.4826 74.2758 18.2691C74.7461 18.0556 75.2547 17.9453 75.7689 17.9453C76.2831 17.9453 76.7917 18.0556 77.2619 18.2691C77.7322 18.4826 78.1538 18.7946 78.4996 19.185C78.8455 19.5755 79.108 20.0358 79.2704 20.5365C79.4327 21.0372 79.4912 21.5671 79.4423 22.0924C79.4922 22.6182 79.4343 23.1489 79.2724 23.6504C79.1105 24.1518 78.8481 24.613 78.5022 25.0042C78.1562 25.3955 77.7343 25.7081 77.2636 25.9221C76.7929 26.136 76.2837 26.2465 75.7689 26.2465C75.254 26.2465 74.7449 26.136 74.2742 25.9221C73.8034 25.7081 73.3815 25.3955 73.0356 25.0042C72.6896 24.613 72.4273 24.1518 72.2654 23.6504C72.1035 23.1489 72.0456 22.6182 72.0955 22.0924V22.0924ZM77.8611 22.0924C77.8611 20.3599 77.1026 19.3467 75.7714 19.3467C74.4352 19.3467 73.6835 20.3599 73.6835 22.0924C73.6835 23.8388 74.4352 24.8442 75.7714 24.8442C77.1026 24.8441 77.8611 23.8318 77.8611 22.0924H77.8611Z" fill="white"/>
<path d="M89.2068 26.0943H87.6121L86.0022 20.2076H85.8805L84.2774 26.0943H82.6979L80.5508 18.1016H82.11L83.5054 24.2005H83.6203L85.2217 18.1016H86.6965L88.2979 24.2005H88.4196L89.8082 18.1016H91.3454L89.2068 26.0943Z" fill="white"/>
<path d="M93.1563 18.0997H94.6361V19.3694H94.7509C94.9458 18.9133 95.2745 18.531 95.6912 18.2758C96.1078 18.0205 96.5917 17.905 97.0754 17.9454C97.4544 17.9161 97.835 17.9748 98.1889 18.1169C98.5428 18.2591 98.861 18.4812 99.12 18.7667C99.3789 19.0522 99.5719 19.3938 99.6847 19.7662C99.7975 20.1386 99.8272 20.5323 99.7715 20.9181V26.0923H98.2343V21.3142C98.2343 20.0298 97.6903 19.391 96.5534 19.391C96.2961 19.3787 96.0392 19.4237 95.8004 19.5228C95.5616 19.6219 95.3465 19.7728 95.1698 19.9652C94.9932 20.1576 94.8591 20.3869 94.7769 20.6374C94.6947 20.8879 94.6662 21.1537 94.6935 21.4165V26.0923H93.1562L93.1563 18.0997Z" fill="white"/>
<path d="M102.215 14.9766H103.752V26.0894H102.215V14.9766Z" fill="white"/>
<path d="M105.896 22.0925C105.847 21.5672 105.906 21.0373 106.068 20.5366C106.231 20.0359 106.493 19.5755 106.839 19.185C107.185 18.7946 107.607 18.4826 108.077 18.2691C108.547 18.0556 109.056 17.9453 109.57 17.9453C110.084 17.9453 110.593 18.0556 111.063 18.2691C111.533 18.4826 111.955 18.7946 112.301 19.185C112.647 19.5755 112.909 20.0359 113.072 20.5366C113.234 21.0373 113.293 21.5672 113.244 22.0925C113.294 22.6183 113.236 23.149 113.074 23.6505C112.912 24.152 112.649 24.6132 112.303 25.0044C111.957 25.3956 111.536 25.7082 111.065 25.9222C110.594 26.1361 110.085 26.2466 109.57 26.2466C109.055 26.2466 108.546 26.1361 108.075 25.9222C107.605 25.7082 107.183 25.3956 106.837 25.0044C106.491 24.6132 106.228 24.152 106.066 23.6505C105.904 23.149 105.846 22.6183 105.896 22.0925V22.0925ZM111.662 22.0925C111.662 20.36 110.903 19.3468 109.572 19.3468C108.236 19.3468 107.484 20.36 107.484 22.0926C107.484 23.839 108.236 24.8443 109.572 24.8443C110.903 24.8443 111.662 23.832 111.662 22.0925H111.662Z" fill="white"/>
<path d="M114.863 23.8319C114.863 22.3932 115.907 21.5638 117.76 21.4459L119.87 21.3211V20.6312C119.87 19.787 119.326 19.3104 118.276 19.3104C117.418 19.3104 116.823 19.6336 116.652 20.1987H115.164C115.321 18.8259 116.58 17.9453 118.347 17.9453C120.299 17.9453 121.401 18.9429 121.401 20.6312V26.0923H119.921V24.969H119.799C119.553 25.372 119.206 25.7004 118.795 25.9209C118.384 26.1414 117.923 26.246 117.46 26.224C117.133 26.2589 116.802 26.2231 116.49 26.1189C116.177 26.0147 115.889 25.8444 115.644 25.6191C115.4 25.3937 115.204 25.1182 115.069 24.8104C114.935 24.5026 114.865 24.1693 114.863 23.8319V23.8319ZM119.87 23.149V22.4807L117.968 22.6055C116.896 22.6792 116.409 23.0536 116.409 23.7582C116.409 24.4776 117.017 24.8962 117.853 24.8962C118.098 24.9217 118.346 24.8963 118.581 24.8216C118.816 24.7469 119.035 24.6243 119.223 24.4613C119.411 24.2983 119.565 24.0981 119.677 23.8727C119.788 23.6472 119.854 23.4011 119.87 23.149V23.149Z" fill="white"/>
<path d="M123.418 22.0896C123.418 19.564 124.683 17.9641 126.651 17.9641C127.138 17.9411 127.621 18.0607 128.044 18.309C128.467 18.5573 128.813 18.9241 129.04 19.3663H129.155V14.9766H130.692V26.0894H129.219V24.8266H129.097C128.852 25.2659 128.495 25.628 128.064 25.8738C127.633 26.1197 127.144 26.2397 126.651 26.2211C124.67 26.2212 123.418 24.6212 123.418 22.0896ZM125.006 22.0896C125.006 23.7849 125.785 24.805 127.087 24.805C128.383 24.805 129.184 23.7701 129.184 22.0965C129.184 20.4307 128.374 19.3812 127.087 19.3812C125.793 19.3812 125.006 20.4082 125.006 22.0896H125.006Z" fill="white"/>
<path d="M137.056 22.0924C137.007 21.5671 137.066 21.0372 137.228 20.5365C137.391 20.0358 137.653 19.5755 137.999 19.185C138.345 18.7946 138.767 18.4826 139.237 18.2691C139.707 18.0556 140.216 17.9453 140.73 17.9453C141.244 17.9453 141.753 18.0556 142.223 18.2691C142.693 18.4826 143.115 18.7946 143.461 19.185C143.806 19.5755 144.069 20.0358 144.231 20.5365C144.394 21.0372 144.452 21.5671 144.403 22.0924C144.453 22.6182 144.395 23.1489 144.233 23.6504C144.071 24.1518 143.809 24.613 143.463 25.0042C143.117 25.3955 142.695 25.7081 142.225 25.9221C141.754 26.136 141.245 26.2465 140.73 26.2465C140.215 26.2465 139.706 26.136 139.235 25.9221C138.764 25.7081 138.342 25.3955 137.997 25.0042C137.651 24.613 137.388 24.1518 137.226 23.6504C137.064 23.1489 137.007 22.6182 137.056 22.0924V22.0924ZM142.822 22.0924C142.822 20.3599 142.063 19.3467 140.732 19.3467C139.396 19.3467 138.644 20.3599 138.644 22.0924C138.644 23.8388 139.396 24.8442 140.732 24.8442C142.064 24.8441 142.822 23.8318 142.822 22.0924Z" fill="white"/>
<path d="M146.461 18.0997H147.941V19.3694H148.056C148.251 18.9133 148.579 18.531 148.996 18.2758C149.413 18.0205 149.896 17.905 150.38 17.9454C150.759 17.9161 151.14 17.9748 151.494 18.1169C151.848 18.2591 152.166 18.4812 152.425 18.7667C152.684 19.0522 152.877 19.3938 152.989 19.7662C153.102 20.1386 153.132 20.5323 153.076 20.9181V26.0923H151.539V21.3142C151.539 20.0298 150.995 19.391 149.858 19.391C149.601 19.3787 149.344 19.4237 149.105 19.5228C148.866 19.6219 148.651 19.7728 148.475 19.9652C148.298 20.1576 148.164 20.3869 148.082 20.6374C147.999 20.8879 147.971 21.1537 147.998 21.4165V26.0923H146.461V18.0997Z" fill="white"/>
<path d="M161.76 16.1016V18.1279H163.447V19.4566H161.76V23.5664C161.76 24.4037 162.096 24.7703 162.861 24.7703C163.057 24.7696 163.253 24.7575 163.447 24.7339V26.0478C163.171 26.0985 162.892 26.1254 162.611 26.1284C160.902 26.1284 160.221 25.5113 160.221 23.9703V19.4565H158.984V18.1278H160.221V16.1016H161.76Z" fill="white"/>
<path d="M165.547 14.9766H167.071V19.3811H167.192C167.397 18.9208 167.734 18.5364 168.159 18.2802C168.584 18.024 169.076 17.9084 169.567 17.9493C169.944 17.9283 170.321 17.9929 170.671 18.1385C171.021 18.2841 171.335 18.5072 171.592 18.7918C171.848 19.0764 172.04 19.4155 172.154 19.785C172.267 20.1544 172.3 20.5451 172.25 20.9291V26.0894H170.711V21.3182C170.711 20.0415 170.132 19.395 169.046 19.395C168.781 19.3727 168.516 19.41 168.267 19.5042C168.018 19.5984 167.792 19.7472 167.606 19.9402C167.419 20.1332 167.275 20.3657 167.185 20.6216C167.095 20.8774 167.061 21.1504 167.084 21.4213V26.0894H165.547L165.547 14.9766Z" fill="white"/>
<path d="M181.221 23.9343C181.013 24.6648 180.56 25.2967 179.943 25.7194C179.326 26.1421 178.584 26.3288 177.846 26.2467C177.333 26.2606 176.823 26.1597 176.352 25.9511C175.88 25.7425 175.459 25.4311 175.116 25.0386C174.774 24.6461 174.519 24.1818 174.369 23.678C174.219 23.1743 174.178 22.643 174.248 22.1212C174.18 21.5978 174.222 21.0654 174.371 20.5601C174.521 20.0548 174.775 19.5884 175.115 19.1924C175.456 18.7965 175.875 18.4802 176.345 18.2651C176.815 18.05 177.325 17.9409 177.84 17.9454C180.007 17.9454 181.314 19.4648 181.314 21.9747V22.5251H175.814V22.6135C175.79 22.9068 175.826 23.2021 175.92 23.4803C176.013 23.7585 176.162 24.0136 176.358 24.2292C176.553 24.4448 176.79 24.6161 177.054 24.7322C177.317 24.8483 177.602 24.9065 177.888 24.9033C178.256 24.9486 178.629 24.8806 178.959 24.7081C179.289 24.5355 179.561 24.2662 179.742 23.9343L181.221 23.9343ZM175.814 21.3585H179.748C179.768 21.0903 179.732 20.8208 179.644 20.5675C179.556 20.3142 179.417 20.0826 179.237 19.8876C179.056 19.6926 178.838 19.5385 178.596 19.4352C178.354 19.332 178.093 19.2818 177.831 19.288C177.565 19.2845 177.301 19.3358 177.055 19.4386C176.809 19.5415 176.585 19.6939 176.397 19.8868C176.209 20.0798 176.061 20.3094 175.961 20.5622C175.86 20.8149 175.811 21.0857 175.814 21.3585H175.814Z" fill="white"/>
</svg>
