<svg width="16" height="32" viewBox="0 0 16 32" fill="none" xmlns="http://www.w3.org/2000/svg">
<path d="M2.02802 18.114H3.86952C4.032 18.114 4.19449 18.2765 4.19449 18.439V30.0296C4.19449 30.6254 4.68194 31.1128 5.27772 31.1128H9.50233C10.0981 31.1128 10.5856 30.6254 10.5856 30.0296V18.439C10.5856 18.2765 10.7481 18.114 10.9105 18.114H13.9436C14.4852 18.114 14.9727 17.7349 15.0268 17.1933L15.7309 12.9687C15.8393 12.3187 15.2976 11.6688 14.6477 11.6688H11.073C10.8022 11.6688 10.5856 11.4522 10.5856 11.1813V8.47326C10.5856 7.76916 10.9647 7.39003 11.6688 7.39003H14.8643C15.4601 7.39003 15.9476 6.90257 15.9476 6.30679V1.97386C15.9476 1.37808 15.4601 0.890625 14.8643 0.890625H11.0189C3.97784 0.890625 4.14033 6.5776 4.14033 7.39003V11.3438C4.14033 11.5063 3.97784 11.6688 3.81536 11.6688H1.97386C1.37808 11.6688 0.890625 12.1563 0.890625 12.752V16.9766C0.944787 17.6266 1.43224 18.114 2.02802 18.114Z" fill="#0B7DE6"/>
</svg>
