<svg width="82" height="82" viewBox="0 0 82 82" fill="none" xmlns="http://www.w3.org/2000/svg">
<path d="M57.2638 9.83716C55.5726 9.83716 54.1888 11.2209 54.1888 12.9122V15.9872H29.5888V12.9122C29.5888 11.2209 28.2051 9.83716 26.5138 9.83716C24.8226 9.83716 23.4388 11.2209 23.4388 12.9122V15.9872H20.3638C16.9506 15.9872 14.2446 18.7547 14.2446 22.1372L14.2138 65.1872C14.2138 68.5697 16.9506 71.3372 20.3638 71.3372H63.4138C66.7963 71.3372 69.5638 68.5697 69.5638 65.1872V22.1372C69.5638 18.7547 66.7963 15.9872 63.4138 15.9872H60.3388V12.9122C60.3388 11.2209 58.9551 9.83716 57.2638 9.83716ZM63.4138 65.1872H20.3638V34.4372H63.4138V65.1872ZM38.8138 43.6622C38.8138 41.9709 40.1976 40.5872 41.8888 40.5872C43.5801 40.5872 44.9638 41.9709 44.9638 43.6622C44.9638 45.3534 43.5801 46.7372 41.8888 46.7372C40.1976 46.7372 38.8138 45.3534 38.8138 43.6622ZM26.5138 43.6622C26.5138 41.9709 27.8976 40.5872 29.5888 40.5872C31.2801 40.5872 32.6638 41.9709 32.6638 43.6622C32.6638 45.3534 31.2801 46.7372 29.5888 46.7372C27.8976 46.7372 26.5138 45.3534 26.5138 43.6622ZM51.1138 43.6622C51.1138 41.9709 52.4976 40.5872 54.1888 40.5872C55.8801 40.5872 57.2638 41.9709 57.2638 43.6622C57.2638 45.3534 55.8801 46.7372 54.1888 46.7372C52.4976 46.7372 51.1138 45.3534 51.1138 43.6622ZM38.8138 55.9622C38.8138 54.2709 40.1976 52.8872 41.8888 52.8872C43.5801 52.8872 44.9638 54.2709 44.9638 55.9622C44.9638 57.6534 43.5801 59.0372 41.8888 59.0372C40.1976 59.0372 38.8138 57.6534 38.8138 55.9622ZM26.5138 55.9622C26.5138 54.2709 27.8976 52.8872 29.5888 52.8872C31.2801 52.8872 32.6638 54.2709 32.6638 55.9622C32.6638 57.6534 31.2801 59.0372 29.5888 59.0372C27.8976 59.0372 26.5138 57.6534 26.5138 55.9622ZM51.1138 55.9622C51.1138 54.2709 52.4976 52.8872 54.1888 52.8872C55.8801 52.8872 57.2638 54.2709 57.2638 55.9622C57.2638 57.6534 55.8801 59.0372 54.1888 59.0372C52.4976 59.0372 51.1138 57.6534 51.1138 55.9622Z" fill="#9AA8B6"/>
<ellipse cx="53.9916" cy="55.973" rx="3.46735" ry="3.46736" fill="#8BFF57"/>
</svg>
