<svg width="82" height="82" viewBox="0 0 82 82" fill="none" xmlns="http://www.w3.org/2000/svg">
<g clip-path="url(#clip0_2_144)">
<path d="M39.3736 22.1301C39.3736 19.368 37.1026 17.1279 34.2975 17.1279C31.496 17.1279 29.2249 19.3667 29.2249 22.1301C29.2249 24.9075 31.4959 27.1548 34.2975 27.1548C37.0977 27.1547 39.3736 24.9075 39.3736 22.1301Z" fill="#9AA8B6"/>
<path d="M60.0376 27.0358C59.8392 25.963 58.9588 25.3466 58.9062 25.2999L31.0826 6.96191C29.9812 6.23668 28.4806 6.52827 27.7303 7.61417L26.3218 9.65706C25.7973 10.4575 26.0267 11.498 26.8164 12.0165C27.6109 12.5422 28.4818 12.1467 28.9931 11.3451L30.0671 8.69896L55.0045 25.1864L35.1695 28.768C33.7597 28.995 32.7467 30.4047 33.0609 31.7761L37.376 48.4738L23.4211 69.4115C22.5789 70.8403 23.0878 72.6824 24.5334 73.4972C25.9945 74.3275 27.8355 73.8173 28.6765 72.3897C28.6765 72.3897 43.2394 50.4928 43.2944 50.3435L44.053 53.403L41.8537 70.8713C41.5825 72.4973 42.6984 74.0323 44.353 74.3071C46.0027 74.5842 47.5606 73.4792 47.8413 71.8532L50.0969 53.9249C50.1685 53.4926 50.0789 52.5416 49.975 52.1329L45.004 32.341L57.9553 30.009C59.3436 29.7643 60.2765 28.4311 60.0376 27.0358Z" fill="#9AA8B6"/>
<circle cx="72.8145" cy="71.8239" r="2.47668" fill="#8BFF57"/>
</g>
<defs>
<clipPath id="clip0_2_144">
<rect width="67.7867" height="67.7867" fill="white" transform="translate(7.65451 6.56323)"/>
</clipPath>
</defs>
</svg>
