<svg width="82" height="82" viewBox="0 0 82 82" fill="none" xmlns="http://www.w3.org/2000/svg">
<path d="M17.5858 43.9915C20.9182 43.9915 23.6447 41.265 23.6447 37.9326C23.6447 34.6002 20.9182 31.8737 17.5858 31.8737C14.2534 31.8737 11.5269 34.6002 11.5269 37.9326C11.5269 41.265 14.2534 43.9915 17.5858 43.9915ZM21.0091 47.3239C19.8882 47.1421 18.7673 47.021 17.5858 47.021C14.5867 47.021 11.739 47.6571 9.16397 48.778C6.92218 49.7475 5.46805 51.9287 5.46805 54.3825V59.1387H19.1005V54.2613C19.1005 51.7469 19.7973 49.3839 21.0091 47.3239ZM66.0569 43.9915C69.3893 43.9915 72.1158 41.265 72.1158 37.9326C72.1158 34.6002 69.3893 31.8737 66.0569 31.8737C62.7246 31.8737 59.998 34.6002 59.998 37.9326C59.998 41.265 62.7246 43.9915 66.0569 43.9915ZM78.1747 54.3825C78.1747 51.9287 76.7206 49.7475 74.4788 48.778C71.9038 47.6571 69.0561 47.021 66.0569 47.021C64.8755 47.021 63.7546 47.1421 62.6337 47.3239C63.8454 49.3839 64.5422 51.7469 64.5422 54.2613V59.1387H78.1747V54.3825ZM54.6662 45.9606C51.1218 44.3853 46.7594 43.2341 41.8214 43.2341C36.8834 43.2341 32.521 44.4156 28.9765 45.9606C25.7047 47.4148 23.6447 50.6866 23.6447 54.2613V59.1387H59.998V54.2613C59.998 50.6866 57.938 47.4148 54.6662 45.9606ZM29.9157 53.0798C30.1883 52.3831 30.3095 51.8984 32.6725 50.9895C35.611 49.8383 38.7011 49.293 41.8214 49.293C44.9417 49.293 48.0317 49.8383 50.9703 50.9895C53.303 51.8984 53.4242 52.3831 53.7271 53.0798H29.9157ZM41.8214 28.8443C43.4876 28.8443 44.8508 30.2075 44.8508 31.8737C44.8508 33.5399 43.4876 34.9032 41.8214 34.9032C40.1552 34.9032 38.7919 33.5399 38.7919 31.8737C38.7919 30.2075 40.1552 28.8443 41.8214 28.8443ZM41.8214 22.7854C36.7925 22.7854 32.733 26.8449 32.733 31.8737C32.733 36.9026 36.7925 40.9621 41.8214 40.9621C46.8503 40.9621 50.9097 36.9026 50.9097 31.8737C50.9097 26.8449 46.8503 22.7854 41.8214 22.7854Z" fill="#9AA8B6"/>
<ellipse cx="56.4684" cy="58.4497" rx="4.95336" ry="4.95337" fill="#8BFF57"/>
</svg>
