<svg width="229" height="68" viewBox="0 0 229 68" fill="none" xmlns="http://www.w3.org/2000/svg">
<path d="M220.519 67.9321H8.48149C3.81673 67.9321 0 64.1109 0 59.4406V8.49155C0 3.82117 3.81665 0 8.48149 0H220.519C225.183 0 229 3.82117 229 8.49155V59.4405C229 64.1109 225.183 67.9321 220.519 67.9321" fill="black"/>
<path d="M220.519 0H8.48149C3.81673 0 0 3.82117 0 8.49155V59.4405C0 64.1109 3.81665 67.9321 8.48149 67.9321H220.519C225.183 67.9321 229 64.1109 229 59.4406V8.49155C229 3.82117 225.183 0 220.519 0H220.519ZM220.519 1.3586C224.447 1.3586 227.643 4.55894 227.643 8.49155V59.4405C227.643 63.3739 224.447 66.5742 220.519 66.5742H8.48149C4.55359 66.5742 1.35705 63.3738 1.35705 59.4406V8.49155C1.35705 4.55894 4.55351 1.35868 8.48149 1.35868H220.519" fill="#A6A6A6"/>
<path d="M80.435 17.3928C80.435 18.8157 80.0142 19.9487 79.1713 20.794C78.2138 21.799 76.9661 22.3019 75.4321 22.3019C73.9631 22.3019 72.7141 21.7925 71.687 20.7721C70.658 19.7524 70.1445 18.488 70.1445 16.9794C70.1445 15.4702 70.658 14.2065 71.687 13.186C72.7141 12.1665 73.9631 11.6562 75.4321 11.6562C76.161 11.6562 76.8588 11.799 77.5214 12.0836C78.184 12.3689 78.7154 12.7476 79.113 13.2219L78.2184 14.1181C77.5446 13.3121 76.6169 12.9094 75.4321 12.9094C74.3608 12.9094 73.4344 13.2863 72.6525 14.0406C71.8705 14.7956 71.4797 15.7747 71.4797 16.9794C71.4797 18.1842 71.8705 19.1633 72.6525 19.9184C73.4344 20.6726 74.3607 21.0494 75.4321 21.0494C76.5686 21.0494 77.5161 20.6706 78.2748 19.9117C78.7672 19.4174 79.052 18.7302 79.1282 17.8478H75.432V16.6238H80.364C80.4117 16.89 80.4349 17.1454 80.4349 17.3928" fill="white"/>
<path d="M80.4366 17.3986H80.2669C80.2655 18.789 79.8599 19.8689 79.0528 20.6797L79.0511 20.6811L79.0503 20.6824C78.1233 21.6528 76.9317 22.1358 75.4335 22.1379C74.0038 22.1358 72.807 21.6476 71.8077 20.6578C70.8106 19.666 70.3176 18.4552 70.3157 16.9852C70.3176 15.5145 70.8106 14.3044 71.8077 13.3133C72.807 12.3228 74.0038 11.8339 75.4335 11.8318C76.1406 11.8318 76.8139 11.97 77.4559 12.2452C78.0986 12.5226 78.6063 12.8861 78.9846 13.3373L79.1145 13.2277L78.9946 13.1076L78.1 14.0045L78.2199 14.1239L78.3505 14.0152C77.6454 13.1693 76.6556 12.7429 75.4336 12.7454C74.3225 12.744 73.3451 13.1415 72.5366 13.9244C71.7204 14.7098 71.3102 15.744 71.3116 16.9852C71.3102 18.2265 71.7204 19.2606 72.5366 20.0461C73.3451 20.829 74.3225 21.2264 75.4335 21.225C76.6077 21.2271 77.6084 20.8283 78.3962 20.0376C78.9223 19.5094 79.2206 18.7778 79.2988 17.8681L79.3146 17.6837H75.6032V16.7994H80.3656V16.6296L80.1985 16.6594C80.2449 16.917 80.2668 17.1617 80.2668 17.3986H80.6061C80.6061 17.1405 80.5822 16.8751 80.5325 16.5992L80.5074 16.4598H75.264V18.0234H79.1297V17.8536L78.9608 17.839C78.886 18.6935 78.6142 19.337 78.1564 19.7975C77.4275 20.5245 76.533 20.8833 75.4336 20.8854C74.402 20.884 73.5267 20.5284 72.772 19.802C72.0246 19.0782 71.6528 18.1541 71.6509 16.9852C71.6528 15.8163 72.0246 14.8922 72.772 14.1684C73.5267 13.442 74.4019 13.0864 75.4336 13.085C76.5807 13.0878 77.4468 13.4672 78.0902 14.2334L78.2095 14.3754L79.2345 13.3478L79.3445 13.2378L79.2444 13.1188C78.8276 12.6214 78.2723 12.2266 77.5898 11.9335C76.9061 11.6395 76.1845 11.4922 75.4336 11.4922C73.9256 11.4909 72.6242 12.0216 71.5686 13.0718C70.5092 14.12 69.9751 15.4375 69.9766 16.9852C69.9751 18.5322 70.5092 19.8505 71.5693 20.8993C72.6242 21.9488 73.9256 22.4789 75.4336 22.4775C77.0041 22.4789 78.3069 21.9567 79.2955 20.9171L79.1728 20.7997L79.2927 20.9199C80.1714 20.0408 80.6073 18.8534 80.6062 17.3986H80.4365H80.4366ZM88.2553 13.1421H83.6203V16.373H87.8002V17.5974H83.6203V20.8283H88.2553V22.0801H82.3136V11.8903H88.2553V13.1421Z" fill="white"/>
<path d="M88.2519 13.1404V12.9706H83.4473V16.5411H87.6271V17.4254L83.4472 17.4259V20.9964H88.0822V21.9085H82.4799V12.0584H88.0822V13.1404H88.2519V12.9706V13.1404H88.4215V11.7188H82.1406V22.2482H88.4215V20.6567H83.7865V17.7655H87.9664V16.2014H83.7865V13.3102H88.4215V13.1404H88.2519ZM93.7668 22.0785H92.4582V13.1403H89.6155V11.8885H96.6095V13.1403H93.7668V22.0783" fill="white"/>
<path d="M93.7701 22.0784V21.9085H92.6311V12.9706H89.7885V12.0585H96.4432V12.9706H93.6005V22.0784H93.7701V21.9085V22.0784H93.9398V13.3102H96.7824V11.7188H89.4492V13.3101H92.2918V22.2481H93.9398V22.0783H93.7701V22.0784ZM101.673 22.0784V11.8885H102.981V22.0783H101.673" fill="white"/>
<path d="M101.673 22.0785H101.843V12.0584H102.811V21.9085H101.673V22.0784H101.843H101.673V22.2482H103.15V11.7188H101.504V22.2482H101.673V22.0784V22.0785ZM108.782 22.0785H107.473V13.1403H104.631V11.8885H111.625V13.1403H108.782V22.0783" fill="white"/>
<path d="M108.782 22.0744V21.9045H107.643V12.9665H104.8V12.0544H111.455V12.9665H108.612V22.0743H108.782V21.9045V22.0743H108.951V13.3062H111.794V11.7147H104.461V13.3061H107.303V22.2441H108.951V22.0743H108.782V22.0744ZM118.367 19.9045C119.12 20.668 120.042 21.0494 121.132 21.0494C122.222 21.0494 123.145 20.668 123.897 19.9045C124.651 19.1409 125.029 18.1649 125.029 16.9794C125.029 15.7941 124.651 14.818 123.897 14.0545C123.145 13.2909 122.222 12.9094 121.132 12.9094C120.042 12.9094 119.12 13.2909 118.367 14.0545C117.615 14.818 117.237 15.794 117.237 16.9794C117.237 18.1649 117.615 19.1409 118.367 19.9045ZM124.864 20.7575C123.864 21.7877 122.619 22.3019 121.132 22.3019C119.644 22.3019 118.4 21.7877 117.402 20.7575C116.4 19.7285 115.902 18.4689 115.902 16.9794C115.902 15.49 116.4 14.2302 117.402 13.2014C118.4 12.171 119.644 11.6562 121.132 11.6562C122.611 11.6562 123.852 12.1737 124.858 13.208C125.861 14.2422 126.364 15.4993 126.364 16.9794C126.364 18.4689 125.863 19.7285 124.864 20.7575Z" fill="white"/>
<path d="M118.365 19.9102L118.244 20.0296C119.026 20.8237 120 21.2271 121.13 21.225C122.259 21.2271 123.235 20.8237 124.015 20.0296C124.802 19.2348 125.197 18.2065 125.196 16.9852C125.197 15.764 124.802 14.7357 124.015 13.9408C123.235 13.1467 122.259 12.7434 121.13 12.7454C120 12.7434 119.026 13.1467 118.244 13.9408C117.46 14.7357 117.064 15.764 117.066 16.9852C117.064 18.2064 117.46 19.2348 118.244 20.0296L118.365 19.9102L118.486 19.7908C117.766 19.0577 117.406 18.1355 117.405 16.9852C117.406 15.835 117.766 14.9128 118.486 14.1796C119.212 13.4467 120.079 13.0871 121.13 13.0851C122.18 13.0871 123.05 13.4467 123.774 14.1796C124.495 14.9128 124.855 15.835 124.856 16.9852C124.855 18.1354 124.495 19.0577 123.774 19.7908C123.05 20.5238 122.18 20.8833 121.13 20.8853C120.079 20.8833 119.212 20.5238 118.486 19.7908L118.365 19.9102ZM124.862 20.7633L124.741 20.6453C123.768 21.643 122.579 22.1359 121.13 22.1379C119.681 22.1358 118.492 21.643 117.521 20.6453L117.516 20.6399L117.521 20.6453C116.55 19.6441 116.071 18.4368 116.07 16.9852C116.071 15.5336 116.55 14.3263 117.521 13.3252C118.492 12.3274 119.681 11.8339 121.13 11.8319C122.569 11.8339 123.756 12.3295 124.734 13.3325C125.708 14.3382 126.19 15.5436 126.192 16.9852C126.19 18.4368 125.709 19.6441 124.741 20.6453L124.862 20.7633L124.984 20.8813C126.012 19.8239 126.532 18.5123 126.531 16.9852C126.532 15.4668 126.01 14.1579 124.977 13.0958C123.944 12.0295 122.649 11.4904 121.13 11.4922C119.603 11.4904 118.305 12.027 117.278 13.0892V13.0884C116.247 14.1465 115.729 15.4581 115.73 16.9852C115.729 18.5123 116.247 19.8239 117.278 20.8819L117.282 20.8868L117.278 20.8813C118.305 21.9434 119.603 22.4789 121.13 22.4775C122.656 22.4789 123.955 21.9434 124.984 20.8813L124.862 20.7633ZM128.197 22.0802V11.8902H129.789L134.735 19.8172H134.791L134.735 17.8535V11.8902H136.044V22.08H134.679L129.504 13.7689H129.447L129.504 15.7333V22.08H128.197" fill="white"/>
<path d="M128.2 22.0784H128.37V12.0584H129.698L134.644 19.9854H134.969L134.908 17.8493V12.0585H135.877V21.9085H134.776L129.601 13.5974H129.277L129.337 15.7344V21.9085H128.2V22.0784H128.37H128.2V22.2482H129.677V15.729L129.62 13.7627L129.451 13.7673V13.9371H129.507V13.7673L129.363 13.8576L134.588 22.2482H136.217V11.7188H134.569V17.8538L134.625 19.8201L134.795 19.8155V19.6457H134.738V19.8155L134.882 19.7254L129.886 11.7188H128.031V22.2482H128.2V22.0784L128.2 22.0784ZM181.397 50.9495H184.563V29.7187H181.397L181.397 50.9495ZM209.907 37.3666L206.279 46.5712H206.17L202.404 37.3665H198.995L204.642 50.2317L201.422 57.3878H204.725L213.427 37.3665L209.907 37.3666ZM191.957 48.5382C190.919 48.5382 189.473 48.0193 189.473 46.735C189.473 45.0963 191.275 44.4682 192.829 44.4682C194.221 44.4682 194.874 44.7686 195.721 45.1787C195.475 47.145 193.784 48.5382 191.957 48.5382ZM192.338 36.9021C190.047 36.9021 187.674 37.913 186.691 40.1528L189.5 41.327C190.101 40.1528 191.219 39.7699 192.393 39.7699C194.03 39.7699 195.694 40.7538 195.721 42.5019V42.7201C195.147 42.3923 193.921 41.9008 192.42 41.9008C189.392 41.9008 186.308 43.5665 186.308 46.6805C186.308 49.5213 188.791 51.3515 191.573 51.3515C193.702 51.3515 194.874 50.3955 195.612 49.2758H195.721V50.9144H198.776V42.7744C198.776 39.0058 195.967 36.9021 192.338 36.9021ZM172.777 39.951H168.275V32.6736H172.777C175.143 32.6736 176.487 34.6352 176.487 36.3122C176.487 37.9575 175.143 39.951 172.777 39.951ZM172.695 29.7187H165.111V50.9495H168.275V42.9058H172.695C176.203 42.9058 179.652 40.363 179.652 36.3122C179.652 32.2616 176.203 29.7187 172.695 29.7187ZM131.338 48.542C129.151 48.542 127.32 46.7091 127.32 44.1915C127.32 41.6475 129.151 39.7866 131.338 39.7866C133.497 39.7866 135.191 41.6474 135.191 44.1915C135.191 46.7091 133.497 48.542 131.338 48.542H131.338ZM134.972 38.5553H134.863C134.153 37.7074 132.786 36.9413 131.064 36.9413C127.457 36.9413 124.15 40.1149 124.15 44.1915C124.15 48.2409 127.457 51.3874 131.064 51.3874C132.786 51.3874 134.153 50.6211 134.863 49.7461H134.972V50.7856C134.972 53.5495 133.497 55.0268 131.119 55.0268C129.179 55.0268 127.976 53.631 127.484 52.4547L124.724 53.6038C125.517 55.519 127.621 57.8722 131.119 57.8722C134.836 57.8722 137.979 55.6829 137.979 50.3478V37.3791H134.972V38.5553ZM140.165 50.9495H143.335V29.718H140.165V50.9495ZM148.008 43.9454C147.926 41.1544 150.167 39.7321 151.779 39.7321C153.037 39.7321 154.102 40.361 154.457 41.2647L148.008 43.9454ZM157.846 41.5379C157.245 39.9231 155.413 36.9413 151.669 36.9413C147.953 36.9413 144.865 39.8688 144.865 44.1643C144.865 48.2138 147.926 51.3874 152.025 51.3874C155.332 51.3874 157.245 49.3626 158.038 48.1864L155.578 46.5444C154.759 47.7486 153.637 48.542 152.025 48.542C150.413 48.542 149.265 47.8031 148.527 46.3534L158.173 42.3585L157.846 41.5379ZM80.9897 39.1576V42.2218H88.3135C88.0948 43.9454 87.5209 45.2039 86.6463 46.0795C85.5809 47.1469 83.9138 48.3231 80.9896 48.3231C76.4804 48.3231 72.9554 44.6843 72.9554 40.1699C72.9554 35.6555 76.4804 32.0162 80.9897 32.0162C83.4221 32.0162 85.1979 32.974 86.5098 34.2052L88.6687 32.044C86.8379 30.2925 84.4054 28.952 80.9897 28.952C74.8134 28.952 69.6211 33.9864 69.6211 40.1699C69.6211 46.3534 74.8134 51.3874 80.9897 51.3874C84.3239 51.3874 86.8379 50.2935 88.8052 48.2409C90.8276 46.2162 91.4564 43.3709 91.4564 41.0729C91.4564 40.361 91.402 39.7049 91.292 39.1576H80.9897ZM99.7828 48.542C97.5961 48.542 95.7104 46.7362 95.7104 44.1643C95.7104 41.565 97.5961 39.7866 99.7828 39.7866C101.969 39.7866 103.854 41.565 103.854 44.1643C103.854 46.7363 101.969 48.542 99.7828 48.542ZM99.7828 36.9413C95.7924 36.9413 92.5403 39.9781 92.5403 44.1643C92.5403 48.3231 95.7924 51.3874 99.7828 51.3874C103.772 51.3874 107.024 48.3231 107.024 44.1643C107.024 39.9781 103.772 36.9413 99.7828 36.9413ZM115.581 48.542C113.395 48.542 111.509 46.7362 111.509 44.1643C111.509 41.565 113.395 39.7866 115.581 39.7866C117.767 39.7866 119.653 41.565 119.653 44.1643C119.653 46.7363 117.767 48.542 115.581 48.542H115.581ZM115.581 36.9413C111.591 36.9413 108.339 39.9781 108.339 44.1643C108.339 48.3231 111.591 51.3874 115.581 51.3874C119.57 51.3874 122.823 48.3231 122.823 44.1643C122.823 39.9781 119.57 36.9413 115.581 36.9413H115.581Z" fill="white"/>
<path d="M17.827 12.9263C17.2578 13.4405 16.918 14.2982 16.918 15.4367V15.1793V52.7476V52.5001C16.918 53.5515 17.2094 54.3635 17.703 54.8864L17.829 55.0071V55.0077C18.2285 55.3686 18.7408 55.5603 19.3279 55.5597C19.9016 55.5597 20.5471 55.3765 21.2283 54.9899L45.8504 40.9835L54.3079 36.1718C55.382 35.5609 55.985 34.7728 56.0858 33.97V33.9667C55.985 33.1621 55.382 32.3746 54.308 31.7636L45.8497 26.9525L21.2284 12.9461C20.5457 12.5588 19.8998 12.375 19.3246 12.375C18.7381 12.375 18.2265 12.566 17.8272 12.9263H17.827Z" fill="#00C1FF"/>
<path d="M17.8291 55.0078L17.703 54.8871C17.2094 54.3642 16.918 53.5522 16.918 52.5008V52.7483V15.1893V15.4373C16.918 14.2989 17.2578 13.4412 17.827 12.927L38.8438 33.9681L17.8291 55.0078Z" fill="url(#paint0_linear_2_2181)"/>
<path d="M45.8503 40.9844L38.8438 33.9684L45.8497 26.9535L54.3079 31.7644C55.382 32.3755 55.985 33.163 56.0858 33.9677V33.9709C55.985 34.7737 55.382 35.5619 54.3079 36.1727L45.8504 40.9843" fill="url(#paint1_linear_2_2181)"/>
<path d="M19.3269 55.5625C18.7399 55.563 18.2276 55.3713 17.8281 55.0104V55.0099L38.8429 33.9702L45.8494 40.9862L21.2272 54.9927C20.546 55.3794 19.9006 55.5625 19.3269 55.5625Z" fill="url(#paint2_linear_2_2181)"/>
<path d="M38.8411 33.9688L17.8242 12.9277C18.2237 12.5674 18.7353 12.3764 19.3217 12.3764C19.8969 12.3764 20.5429 12.5601 21.2255 12.9475L45.8469 26.9539L38.841 33.9688" fill="url(#paint3_linear_2_2181)"/>
<path d="M19.3247 55.8125C18.7376 55.8125 18.2246 55.6208 17.8251 55.2599L17.8244 55.2605C17.8228 55.2589 17.821 55.2573 17.8192 55.2559L17.7099 55.1491C17.7065 55.1457 17.7033 55.1418 17.6992 55.1379L17.8252 55.0118C18.2247 55.3726 18.7369 55.5644 19.3241 55.5637C19.8977 55.5637 20.5432 55.3806 21.2244 54.9939L45.8465 40.9875L46.0043 41.1455L45.8445 41.2363L21.2243 55.242C20.6035 55.5943 20.013 55.778 19.4797 55.8086C19.428 55.8111 19.3764 55.8124 19.3247 55.8124" fill="url(#paint4_linear_2_2181)"/>
<path d="M17.703 55.1328C17.2094 54.61 16.918 53.7986 16.918 52.7466V52.4991C16.918 53.5505 17.2094 54.3625 17.703 54.8854L17.829 55.0061L17.703 55.1328Z" fill="url(#paint5_linear_2_2181)"/>
<path d="M46.0093 41.1405L45.8516 40.9826L54.3091 36.171C55.3832 35.5601 55.9862 34.7719 56.087 33.9691C56.087 34.2638 56.0214 34.5583 55.8909 34.845C55.6278 35.4228 55.1005 35.9687 54.3092 36.4191L46.0093 41.1406" fill="url(#paint6_linear_2_2181)"/>
<path d="M56.0838 33.9688C55.983 33.164 55.38 32.3766 54.3059 31.7655L45.8477 26.9546L46.0054 26.7966H46.0061L54.3059 31.5181C55.4901 32.1921 56.0831 33.0803 56.0838 33.9688Z" fill="url(#paint7_linear_2_2181)"/>
<path d="M16.918 15.4375V15.178C16.918 15.0844 16.9205 14.9929 16.9253 14.9041V14.9C16.9253 14.8988 16.9253 14.8975 16.9258 14.8961V14.8861C16.9768 13.9805 17.2578 13.2741 17.703 12.8024L17.827 12.9271C17.2578 13.4414 16.918 14.299 16.918 15.4375Z" fill="url(#paint8_linear_2_2181)"/>
<path d="M45.8458 26.9531L21.2244 12.9466C20.5418 12.5592 19.8959 12.3755 19.3207 12.3755C18.7343 12.3755 18.2227 12.5665 17.8232 12.9268L17.6992 12.8021C17.7379 12.761 17.7782 12.7215 17.8199 12.6834C17.8212 12.682 17.8232 12.6807 17.8245 12.6794C18.2208 12.3218 18.727 12.1308 19.3082 12.1274H19.3207C19.8959 12.1274 20.5418 12.3112 21.2244 12.6987L46.0043 26.7946L46.0036 26.7951L45.8458 26.9531Z" fill="url(#paint9_linear_2_2181)"/>
<defs>
<linearGradient id="paint0_linear_2_2181" x1="30.349" y1="14.7923" x2="12.2451" y2="32.9332" gradientUnits="userSpaceOnUse">
<stop stop-color="#00A0FF"/>
<stop offset="0.00657" stop-color="#00A1FF"/>
<stop offset="0.2601" stop-color="#00BEFF"/>
<stop offset="0.5122" stop-color="#00D2FF"/>
<stop offset="0.7604" stop-color="#00DFFF"/>
<stop offset="1" stop-color="#00E3FF"/>
</linearGradient>
<linearGradient id="paint1_linear_2_2181" x1="57.3944" y1="33.8471" x2="16.3491" y2="33.8471" gradientUnits="userSpaceOnUse">
<stop stop-color="#FFE000"/>
<stop offset="0.4087" stop-color="#FFBD00"/>
<stop offset="0.7754" stop-color="#FFA500"/>
<stop offset="1" stop-color="#FF9C00"/>
</linearGradient>
<linearGradient id="paint2_linear_2_2181" x1="42.1296" y1="40.6407" x2="11.4511" y2="71.1575" gradientUnits="userSpaceOnUse">
<stop stop-color="#FF3A44"/>
<stop offset="1" stop-color="#C31162"/>
</linearGradient>
<linearGradient id="paint3_linear_2_2181" x1="12.4076" y1="9.80822" x2="26.0803" y2="23.4297" gradientUnits="userSpaceOnUse">
<stop stop-color="#32A071"/>
<stop offset="0.0685" stop-color="#2DA771"/>
<stop offset="0.4762" stop-color="#15CF74"/>
<stop offset="0.8009" stop-color="#06E775"/>
<stop offset="1" stop-color="#00F076"/>
</linearGradient>
<linearGradient id="paint4_linear_2_2181" x1="42.1114" y1="45.5087" x2="17.5426" y2="70.128" gradientUnits="userSpaceOnUse">
<stop stop-color="#CC2E36"/>
<stop offset="1" stop-color="#9C0E4E"/>
</linearGradient>
<linearGradient id="paint5_linear_2_2181" x1="19.7177" y1="14.7908" x2="3.76855" y2="30.773" gradientUnits="userSpaceOnUse">
<stop stop-color="#008DE0"/>
<stop offset="0.00657" stop-color="#008DE0"/>
<stop offset="0.2601" stop-color="#00A7E0"/>
<stop offset="0.5122" stop-color="#00B8E0"/>
<stop offset="0.7604" stop-color="#00C4E0"/>
<stop offset="1" stop-color="#00C7E0"/>
</linearGradient>
<linearGradient id="paint6_linear_2_2181" x1="57.3958" y1="33.9676" x2="16.3503" y2="33.9676" gradientUnits="userSpaceOnUse">
<stop stop-color="#E0C500"/>
<stop offset="0.4087" stop-color="#E0A600"/>
<stop offset="0.7754" stop-color="#E09100"/>
<stop offset="1" stop-color="#E08900"/>
</linearGradient>
<linearGradient id="paint7_linear_2_2181" x1="57.3925" y1="33.9704" x2="16.3473" y2="33.9704" gradientUnits="userSpaceOnUse">
<stop stop-color="#FFE840"/>
<stop offset="0.4087" stop-color="#FFCE40"/>
<stop offset="0.7754" stop-color="#FFBC40"/>
<stop offset="1" stop-color="#FFB540"/>
</linearGradient>
<linearGradient id="paint8_linear_2_2181" x1="19.7004" y1="14.8213" x2="4.33816" y2="29.5482" gradientUnits="userSpaceOnUse">
<stop stop-color="#40B8FF"/>
<stop offset="0.00657" stop-color="#40B9FF"/>
<stop offset="0.2601" stop-color="#40CEFF"/>
<stop offset="0.5122" stop-color="#40DDFF"/>
<stop offset="0.7604" stop-color="#40E7FF"/>
<stop offset="1" stop-color="#40EAFF"/>
</linearGradient>
<linearGradient id="paint9_linear_2_2181" x1="12.3759" y1="14.2572" x2="23.347" y2="25.2508" gradientUnits="userSpaceOnUse">
<stop stop-color="#65B895"/>
<stop offset="0.0685" stop-color="#62BD95"/>
<stop offset="0.4762" stop-color="#50DB97"/>
<stop offset="0.8009" stop-color="#44ED98"/>
<stop offset="1" stop-color="#40F498"/>
</linearGradient>
</defs>
</svg>
