<svg width="32" height="32" viewBox="0 0 32 32" fill="none" xmlns="http://www.w3.org/2000/svg">
<path d="M16.1148 0.890625C11.8199 0.890625 11.2814 0.908038 9.59467 0.981587C7.91146 1.05496 6.76186 1.31037 5.75594 1.68396C4.71604 2.07012 3.8341 2.58685 2.955 3.42694C2.07584 4.26697 1.53508 5.10971 1.13096 6.10339C0.739991 7.06454 0.472697 8.16305 0.395912 9.77145C0.318943 11.3832 0.300781 11.8978 0.300781 16.0018C0.300781 20.1057 0.318943 20.6203 0.395912 22.232C0.472697 23.8404 0.739991 24.9389 1.13096 25.9001C1.53508 26.8938 2.07584 27.7365 2.955 28.5766C3.8341 29.4167 4.71604 29.9334 5.75594 30.3196C6.76186 30.6931 7.91146 30.9486 9.59467 31.0219C11.2814 31.0954 11.8199 31.1128 16.1148 31.1128C20.4095 31.1128 20.9481 31.0954 22.6348 31.0219C24.318 30.9486 25.4676 30.6931 26.4735 30.3196C27.5134 29.9334 28.3953 29.4167 29.2745 28.5766C30.1536 27.7365 30.6944 26.8938 31.0985 25.9001C31.4894 24.9389 31.7568 23.8404 31.8336 22.232C31.9105 20.6203 31.9287 20.1057 31.9287 16.0018C31.9287 11.8978 31.9105 11.3832 31.8336 9.77145C31.7568 8.16305 31.4894 7.06454 31.0985 6.10339C30.6944 5.10971 30.1536 4.26697 29.2745 3.42694C28.3953 2.58685 27.5134 2.07012 26.4735 1.68396C25.4676 1.31037 24.318 1.05496 22.6348 0.981587C20.9481 0.908038 20.4095 0.890625 16.1148 0.890625V0.890625ZM16.1148 3.61341C20.3373 3.61341 20.8374 3.62876 22.505 3.70148C24.0468 3.76871 24.8841 4.01486 25.4414 4.22175C26.1795 4.49588 26.7063 4.82337 27.2597 5.35214C27.8131 5.88091 28.1557 6.38436 28.4426 7.08963C28.6592 7.62212 28.9168 8.42224 28.9872 9.89552C29.0632 11.489 29.0793 11.9669 29.0793 16.0018C29.0793 20.0366 29.0632 20.5145 28.9872 22.1079C28.9168 23.5812 28.6592 24.3814 28.4426 24.9138C28.1557 25.6192 27.8131 26.1226 27.2597 26.6513C26.7063 27.1802 26.1795 27.5076 25.4414 27.7817C24.8841 27.9887 24.0468 28.2348 22.505 28.302C20.8377 28.3747 20.3376 28.3901 16.1148 28.3901C11.8919 28.3901 11.3919 28.3747 9.72451 28.302C8.18271 28.2348 7.34537 27.9887 6.78811 27.7817C6.04998 27.5076 5.52317 27.1802 4.96975 26.6513C4.41638 26.1226 4.07366 25.6192 3.78684 24.9138C3.57027 24.3814 3.31267 23.5812 3.24231 22.1079C3.16621 20.5145 3.15015 20.0366 3.15015 16.0018C3.15015 11.9669 3.16621 11.489 3.24231 9.89552C3.31267 8.42224 3.57027 7.62212 3.78684 7.08963C4.07366 6.38436 4.41638 5.88091 4.96975 5.35214C5.52317 4.82337 6.04998 4.49588 6.78811 4.22175C7.34537 4.01486 8.18271 3.76871 9.72451 3.70148C11.3921 3.62876 11.8923 3.61341 16.1148 3.61341V3.61341Z" fill="url(#paint0_linear_2_126)"/>
<path d="M16.1051 21.0312C13.1938 21.0312 10.8337 18.776 10.8337 15.9942C10.8337 13.2123 13.1938 10.9571 16.1051 10.9571C19.0163 10.9571 21.3764 13.2123 21.3764 15.9942C21.3764 18.776 19.0163 21.0312 16.1051 21.0312ZM16.1051 8.23438C11.6201 8.23438 7.98438 11.7085 7.98438 15.9942C7.98438 20.2797 11.6201 23.7539 16.1051 23.7539C20.59 23.7539 24.2257 20.2797 24.2257 15.9942C24.2257 11.7085 20.59 8.23438 16.1051 8.23438V8.23438Z" fill="url(#paint1_linear_2_126)"/>
<path d="M26.4516 7.93828C26.4516 8.93981 25.602 9.75162 24.5539 9.75162C23.5059 9.75162 22.6562 8.93981 22.6562 7.93828C22.6562 6.93681 23.5059 6.125 24.5539 6.125C25.602 6.125 26.4516 6.93681 26.4516 7.93828V7.93828Z" fill="url(#paint2_linear_2_126)"/>
<defs>
<linearGradient id="paint0_linear_2_126" x1="18.8829" y1="-0.710705" x2="10.3817" y2="28.6812" gradientUnits="userSpaceOnUse">
<stop stop-color="#515BD4"/>
<stop offset="0.26" stop-color="#9510B8"/>
<stop offset="0.66" stop-color="#E51804"/>
<stop offset="1" stop-color="#FEDA77"/>
</linearGradient>
<linearGradient id="paint1_linear_2_126" x1="18.8732" y1="-0.718299" x2="10.3721" y2="28.6736" gradientUnits="userSpaceOnUse">
<stop stop-color="#515BD4"/>
<stop offset="0.26" stop-color="#9510B8"/>
<stop offset="0.66" stop-color="#E51804"/>
<stop offset="1" stop-color="#FFBF00"/>
</linearGradient>
<linearGradient id="paint2_linear_2_126" x1="18.8805" y1="-0.707808" x2="10.3794" y2="28.6841" gradientUnits="userSpaceOnUse">
<stop stop-color="#515BD4"/>
<stop offset="0.26" stop-color="#9510B8"/>
<stop offset="0.66" stop-color="#E51804"/>
<stop offset="1" stop-color="#FFBF00"/>
</linearGradient>
</defs>
</svg>
