<svg width="32" height="32" viewBox="0 0 32 32" fill="none" xmlns="http://www.w3.org/2000/svg">
<path fill-rule="evenodd" clip-rule="evenodd" d="M31.1129 4.6684C31.1129 2.58336 29.4201 0.890625 27.3351 0.890625H4.6684C2.58336 0.890625 0.890625 2.58336 0.890625 4.6684V27.3351C0.890625 29.4201 2.58336 31.1128 4.6684 31.1128H27.3351C29.4201 31.1128 31.1129 29.4201 31.1129 27.3351V4.6684Z" fill="#2867B2"/>
<path d="M9.55441 11.4453H4.49219V26.6722H9.55441V11.4453Z" fill="white"/>
<path d="M7.05887 4.10156C5.32693 4.10156 4.19531 5.24021 4.19531 6.73261C4.19531 8.19366 5.29252 9.36371 6.99187 9.36371H7.02457C8.78968 9.36371 9.88836 8.19366 9.88836 6.73261C9.8556 5.24021 8.78979 4.10156 7.05887 4.10156V4.10156Z" fill="white"/>
<path d="M21.9739 11.0859C19.2887 11.0859 18.086 12.5626 17.4125 13.5999V11.444H12.3516C12.4187 12.8723 12.3516 26.6709 12.3516 26.6709H17.4124V18.1671C17.4124 17.7119 17.4451 17.2569 17.5793 16.9316C17.9446 16.0225 18.7779 15.0809 20.1761 15.0809C22.0067 15.0809 22.74 16.4778 22.74 18.5239V26.6709H27.8011V17.9389C27.8011 13.2617 25.304 11.0859 21.9739 11.0859V11.0859Z" fill="white"/>
</svg>
