<svg width="82" height="82" viewBox="0 0 82 82" fill="none" xmlns="http://www.w3.org/2000/svg">
<path d="M41.1311 8.74414C27.4991 8.74414 16.3983 19.8586 16.3983 33.5075C16.3983 42.6293 21.4029 50.571 28.7647 54.8659V55.7945L28.6874 58.2708H28.7647C28.8807 58.2708 31.209 58.3386 33.634 59.8186C35.7788 61.1244 38.0299 63.3106 38.5806 68.1762H18.8716V73.1289H63.3906V68.1762H43.6817C44.2324 63.3106 46.4834 61.1244 48.6282 59.8186C51.0532 58.3386 53.3816 58.2708 53.4975 58.2708H53.5748L53.4975 55.7945V54.8659C60.8594 50.571 65.8639 42.6293 65.8639 33.5075C65.8639 19.8586 54.7631 8.74414 41.1311 8.74414ZM41.1311 13.6968C52.087 13.6968 60.9173 22.5381 60.9173 33.5075C60.9173 44.4769 52.087 53.3182 41.1311 53.3182C30.1753 53.3182 21.3449 44.4769 21.3449 33.5075C21.3449 22.5381 30.1753 13.6968 41.1311 13.6968ZM48.551 28.5548C47.1887 28.5548 46.0777 29.6672 46.0777 31.0312C46.0777 32.3951 47.1887 33.5075 48.551 33.5075C49.9132 33.5075 51.0242 32.3951 51.0242 31.0312C51.0242 29.6672 49.9132 28.5548 48.551 28.5548ZM43.6044 33.5075C42.2422 33.5075 41.1311 34.6199 41.1311 35.9838C41.1311 37.3477 42.2422 38.4602 43.6044 38.4602C44.9666 38.4602 46.0777 37.3477 46.0777 35.9838C46.0777 34.6199 44.9666 33.5075 43.6044 33.5075ZM51.0242 35.9838C49.662 35.9838 48.551 37.0962 48.551 38.4602C48.551 39.8241 49.662 40.9365 51.0242 40.9365C52.3865 40.9365 53.4975 39.8241 53.4975 38.4602C53.4975 37.0962 52.3865 35.9838 51.0242 35.9838ZM38.6578 38.4602C37.2956 38.4602 36.1846 39.5726 36.1846 40.9365C36.1846 42.3004 37.2956 43.4128 38.6578 43.4128C40.0201 43.4128 41.1311 42.3004 41.1311 40.9365C41.1311 39.5726 40.0201 38.4602 38.6578 38.4602ZM46.0777 40.9365C44.7154 40.9365 43.6044 42.0489 43.6044 43.4128C43.6044 44.7768 44.7154 45.8892 46.0777 45.8892C47.4399 45.8892 48.551 44.7768 48.551 43.4128C48.551 42.0489 47.4399 40.9365 46.0777 40.9365ZM39.3535 58.2708H42.9088C42.2615 59.006 41.6721 59.8089 41.1311 60.7472C40.5901 59.8089 40.0008 59.006 39.3535 58.2708Z" fill="#9AA8B6"/>
<ellipse cx="38.8701" cy="41" rx="2.66234" ry="2.66234" fill="#8BFF57"/>
</svg>
