<svg width="32" height="32" viewBox="0 0 32 32" fill="none" xmlns="http://www.w3.org/2000/svg">
<path d="M16.0017 31.1128C7.65738 31.1128 0.890625 24.3461 0.890625 16.0017C0.890625 7.65738 7.65738 0.890625 16.0017 0.890625C24.3461 0.890625 31.1129 7.65738 31.1129 16.0017C31.1129 24.3461 24.3461 31.1128 16.0017 31.1128Z" fill="#FF4500"/>
<path d="M19.465 19.1543C18.5976 19.1543 17.8904 18.4471 17.8904 17.5797C17.8904 16.7123 18.5976 16.0051 19.465 16.0051C20.3323 16.0051 21.0395 16.7123 21.0395 17.5797C21.0395 18.4471 20.3323 19.1543 19.465 19.1543ZM19.743 21.7383C18.6671 22.8111 16.609 22.8958 16.0045 22.8958C15.4001 22.8958 13.3389 22.8111 12.266 21.7383C12.1059 21.5781 12.1059 21.3212 12.266 21.161C12.4262 21.0008 12.6831 21.0008 12.8433 21.161C13.5203 21.838 14.9679 22.0798 16.0045 22.0798C17.0381 22.0798 18.4888 21.838 19.1658 21.161C19.3259 21.0008 19.5828 21.0008 19.743 21.161C19.9002 21.3212 19.9002 21.5781 19.743 21.7383ZM10.9635 17.5797C10.9635 16.7123 11.6707 16.0051 12.538 16.0051C13.4054 16.0051 14.1126 16.7123 14.1126 17.5797C14.1126 18.4471 13.4054 19.1543 12.538 19.1543C11.6707 19.1543 10.9635 18.4471 10.9635 17.5797ZM26.0746 16.0051C26.0746 14.7872 25.0893 13.8019 23.8714 13.8019C23.276 13.8019 22.738 14.0376 22.3421 14.4215C20.8371 13.3335 18.7608 12.6323 16.4488 12.5507L17.4522 7.827L20.7313 8.52513C20.7706 9.35926 21.4536 10.0241 22.2968 10.0241C23.1672 10.0241 23.8714 9.31997 23.8714 8.44957C23.8714 7.57918 23.1672 6.875 22.2968 6.875C21.6772 6.875 21.1483 7.23464 20.8915 7.75446L17.2285 6.97473C17.1258 6.95358 17.02 6.97171 16.9323 7.02913C16.8447 7.08656 16.7843 7.1742 16.7631 7.27695L15.663 12.4601C15.657 12.4903 15.663 12.5175 15.663 12.5477C13.3087 12.6081 11.1931 13.3123 9.6639 14.4154C9.26799 14.0346 8.73306 13.8019 8.1407 13.8019C6.92274 13.8019 5.9375 14.7902 5.9375 16.0051C5.9375 16.8997 6.47243 17.6704 7.24008 18.0149C7.20683 18.2325 7.1887 18.4561 7.1887 18.6828C7.1887 22.0737 11.1357 24.8209 16.0045 24.8209C20.8733 24.8209 24.8203 22.0737 24.8203 18.6828C24.8203 18.4591 24.8022 18.2385 24.769 18.0209C25.5336 17.6764 26.0746 16.9057 26.0746 16.0051Z" fill="white"/>
</svg>
