<svg width="32" height="26" viewBox="0 0 32 26" fill="none" xmlns="http://www.w3.org/2000/svg">
<path d="M10.3949 25.1118C21.7996 25.1118 28.0374 15.6631 28.0374 7.46926C28.0374 7.20092 28.0374 6.93376 28.0193 6.66778C29.2328 5.78998 30.2804 4.70322 31.1129 3.45821C29.9812 3.95965 28.7807 4.28843 27.5515 4.43376C28.8456 3.65908 29.8148 2.43968 30.2775 1.00413C29.0604 1.72633 27.7287 2.23539 26.3402 2.50922C25.1677 1.26249 23.5303 0.554688 21.819 0.554688C18.4142 0.554688 15.6126 3.35638 15.6126 6.76111C15.6126 7.23345 15.6665 7.70431 15.7732 8.16437C10.7902 7.91463 6.14109 5.55765 2.99408 1.68596C1.35759 4.50312 2.20435 8.15398 4.91378 9.96319C3.92713 9.93397 2.96167 9.66775 2.09951 9.18709V9.26565C2.10034 12.2061 4.19187 14.7618 7.07408 15.344C6.16127 15.5929 5.20331 15.6293 4.27433 15.4503C5.08461 17.97 7.42116 19.7067 10.0673 19.7564C7.87208 21.4816 5.15875 22.4188 2.36667 22.416C1.87332 22.415 1.38044 22.3852 0.890625 22.3265C3.72597 24.146 7.02597 25.1114 10.3949 25.1069" fill="#1DA1F2"/>
</svg>
